<svg aria-hidden="true" style="position: absolute; width: 0; height: 0; overflow: hidden;" version="1.1" xmlns="http://www.w3.org/2000/svg" xmlns:xlink="http://www.w3.org/1999/xlink">
<defs>
<symbol id="icon-search" viewBox="0 0 20 20">
<path d="M12.9 14.32c-1.34 1.049-3.050 1.682-4.908 1.682-4.418 0-8-3.582-8-8s3.582-8 8-8c4.418 0 8 3.582 8 8 0 1.858-0.633 3.567-1.695 4.925l0.013-0.018 5.35 5.33-1.42 1.42-5.33-5.34zM8 14c3.314 0 6-2.686 6-6s-2.686-6-6-6v0c-3.314 0-6 2.686-6 6s2.686 6 6 6v0z"></path>
</symbol>

<symbol id="icon-bars" viewBox="0 0 24 28">
<path d="M24 21v2c0 0.547-0.453 1-1 1h-22c-0.547 0-1-0.453-1-1v-2c0-0.547 0.453-1 1-1h22c0.547 0 1 0.453 1 1zM24 13v2c0 0.547-0.453 1-1 1h-22c-0.547 0-1-0.453-1-1v-2c0-0.547 0.453-1 1-1h22c0.547 0 1 0.453 1 1zM24 5v2c0 0.547-0.453 1-1 1h-22c-0.547 0-1-0.453-1-1v-2c0-0.547 0.453-1 1-1h22c0.547 0 1 0.453 1 1z"></path>
</symbol>

<symbol id="icon-shopping-bag" viewBox="0 0 24 24">
<path d="M19 5h-14l1.5-2h11zM21.794 5.392l-2.994-3.992c-0.196-0.261-0.494-0.399-0.8-0.4h-12c-0.326 0-0.616 0.156-0.8 0.4l-2.994 3.992c-0.043 0.056-0.081 0.117-0.111 0.182-0.065 0.137-0.096 0.283-0.095 0.426v14c0 0.828 0.337 1.58 0.879 2.121s1.293 0.879 2.121 0.879h14c0.828 0 1.58-0.337 2.121-0.879s0.879-1.293 0.879-2.121v-14c0-0.219-0.071-0.422-0.189-0.585-0.004-0.005-0.007-0.010-0.011-0.015zM4 7h16v13c0 0.276-0.111 0.525-0.293 0.707s-0.431 0.293-0.707 0.293h-14c-0.276 0-0.525-0.111-0.707-0.293s-0.293-0.431-0.293-0.707zM15 10c0 0.829-0.335 1.577-0.879 2.121s-1.292 0.879-2.121 0.879-1.577-0.335-2.121-0.879-0.879-1.292-0.879-2.121c0-0.552-0.448-1-1-1s-1 0.448-1 1c0 1.38 0.561 2.632 1.464 3.536s2.156 1.464 3.536 1.464 2.632-0.561 3.536-1.464 1.464-2.156 1.464-3.536c0-0.552-0.448-1-1-1s-1 0.448-1 1z"></path>
</symbol>

<symbol id="icon-cross" viewBox="0 0 32 32">
<path d="M31.708 25.708c-0-0-0-0-0-0l-9.708-9.708 9.708-9.708c0-0 0-0 0-0 0.105-0.105 0.18-0.227 0.229-0.357 0.133-0.356 0.057-0.771-0.229-1.057l-4.586-4.586c-0.286-0.286-0.702-0.361-1.057-0.229-0.13 0.048-0.252 0.124-0.357 0.228 0 0-0 0-0 0l-9.708 9.708-9.708-9.708c-0-0-0-0-0-0-0.105-0.104-0.227-0.18-0.357-0.228-0.356-0.133-0.771-0.057-1.057 0.229l-4.586 4.586c-0.286 0.286-0.361 0.702-0.229 1.057 0.049 0.13 0.124 0.252 0.229 0.357 0 0 0 0 0 0l9.708 9.708-9.708 9.708c-0 0-0 0-0 0-0.104 0.105-0.18 0.227-0.229 0.357-0.133 0.355-0.057 0.771 0.229 1.057l4.586 4.586c0.286 0.286 0.702 0.361 1.057 0.229 0.13-0.049 0.252-0.124 0.357-0.229 0-0 0-0 0-0l9.708-9.708 9.708 9.708c0 0 0 0 0 0 0.105 0.105 0.227 0.18 0.357 0.229 0.356 0.133 0.771 0.057 1.057-0.229l4.586-4.586c0.286-0.286 0.362-0.702 0.229-1.057-0.049-0.13-0.124-0.252-0.229-0.357z"></path>
</symbol>

<symbol id="icon-mail" viewBox="0 0 24 24">
<path d="M3 7.921l8.427 5.899c0.34 0.235 0.795 0.246 1.147 0l8.426-5.899v10.079c0 0.272-0.11 0.521-0.295 0.705s-0.433 0.295-0.705 0.295h-16c-0.272 0-0.521-0.11-0.705-0.295s-0.295-0.433-0.295-0.705zM1 5.983c0 0.010 0 0.020 0 0.030v11.987c0 0.828 0.34 1.579 0.88 2.12s1.292 0.88 2.12 0.88h16c0.828 0 1.579-0.34 2.12-0.88s0.88-1.292 0.88-2.12v-11.988c0-0.010 0-0.020 0-0.030-0.005-0.821-0.343-1.565-0.88-2.102-0.541-0.54-1.292-0.88-2.12-0.88h-16c-0.828 0-1.579 0.34-2.12 0.88-0.537 0.537-0.875 1.281-0.88 2.103zM20.894 5.554l-8.894 6.225-8.894-6.225c0.048-0.096 0.112-0.183 0.188-0.259 0.185-0.185 0.434-0.295 0.706-0.295h16c0.272 0 0.521 0.11 0.705 0.295 0.076 0.076 0.14 0.164 0.188 0.259z"></path>
</symbol>

<symbol id="icon-arrow_forward_ios" viewBox="0 0 24 24">
<path d="M5.859 4.125l2.156-2.109 9.984 9.984-9.984 9.984-2.156-2.109 7.922-7.875z"></path>
</symbol>

<symbol id="icon-arrow_back_ios" viewBox="0 0 24 24">
<path d="M11.672 3.891l-8.109 8.109 8.109 8.109-1.781 1.781-9.891-9.891 9.891-9.891z"></path>
</symbol>

<symbol id="icon-play" viewBox="0 0 24 24">
<path d="M0 0h24v24H0z" fill="none"/><path d="M8 5v14l11-7z"/>
</symbol>

<symbol id="icon-leaderboard" viewBox="0 0 24 24">
<path d="M7.5,21H2V9h5.5V21z M14.75,3h-5.5v18h5.5V3z M22,11h-5.5v10H22V11z"/>
</symbol>

<symbol id="icon-facebook" viewBox="0 0 32 32">
<path d="M32 16c0-8.8-7.2-16-16-16s-16 7.2-16 16c0 8 5.9 14.6 13.5 15.8v-11.2h-4.1v-4.6h4.1v-3.5c0-4 2.4-6.2 6-6.2 1.8 0 3.6 0.3 3.6 0.3v3.9h-2c-2 0-2.6 1.2-2.6 2.5v3h4.4l-0.7 4.6h-3.7v11.2c7.6-1.2 13.5-7.8 13.5-15.8z"/>
</symbol>

<symbol id="icon-instagram" viewBox="0 0 32 32">
<path d="M16 2.881c4.275 0 4.781 0.019 6.462 0.094 1.563 0.069 2.406 0.331 2.969 0.55 0.744 0.288 1.281 0.638 1.837 1.194 0.563 0.563 0.906 1.094 1.2 1.838 0.219 0.563 0.481 1.412 0.55 2.969 0.075 1.688 0.094 2.194 0.094 6.463s-0.019 4.781-0.094 6.463c-0.069 1.563-0.331 2.406-0.55 2.969-0.288 0.744-0.637 1.281-1.194 1.837-0.563 0.563-1.094 0.906-1.837 1.2-0.563 0.219-1.413 0.481-2.969 0.55-1.688 0.075-2.194 0.094-6.463 0.094s-4.781-0.019-6.463-0.094c-1.563-0.069-2.406-0.331-2.969-0.55-0.744-0.288-1.281-0.637-1.838-1.194-0.563-0.563-0.906-1.094-1.2-1.837-0.219-0.563-0.481-1.413-0.55-2.969-0.075-1.688-0.094-2.194-0.094-6.463s0.019-4.781 0.094-6.463c0.069-1.563 0.331-2.406 0.55-2.969 0.288-0.744 0.638-1.281 1.194-1.838 0.563-0.563 1.094-0.906 1.838-1.2 0.563-0.219 1.412-0.481 2.969-0.55 1.681-0.075 2.188-0.094 6.463-0.094zM16 0c-4.344 0-4.887 0.019-6.594 0.094-1.7 0.075-2.869 0.35-3.881 0.744-1.056 0.412-1.95 0.956-2.837 1.85-0.894 0.888-1.438 1.781-1.85 2.831-0.394 1.019-0.669 2.181-0.744 3.881-0.075 1.713-0.094 2.256-0.094 6.6s0.019 4.887 0.094 6.594c0.075 1.7 0.35 2.869 0.744 3.881 0.413 1.056 0.956 1.95 1.85 2.837 0.887 0.887 1.781 1.438 2.831 1.844 1.019 0.394 2.181 0.669 3.881 0.744 1.706 0.075 2.25 0.094 6.594 0.094s4.888-0.019 6.594-0.094c1.7-0.075 2.869-0.35 3.881-0.744 1.050-0.406 1.944-0.956 2.831-1.844s1.438-1.781 1.844-2.831c0.394-1.019 0.669-2.181 0.744-3.881 0.075-1.706 0.094-2.25 0.094-6.594s-0.019-4.887-0.094-6.594c-0.075-1.7-0.35-2.869-0.744-3.881-0.394-1.063-0.938-1.956-1.831-2.844-0.887-0.887-1.781-1.438-2.831-1.844-1.019-0.394-2.181-0.669-3.881-0.744-1.712-0.081-2.256-0.1-6.6-0.1v0z"></path>
<path d="M16 7.781c-4.537 0-8.219 3.681-8.219 8.219s3.681 8.219 8.219 8.219 8.219-3.681 8.219-8.219c0-4.537-3.681-8.219-8.219-8.219zM16 21.331c-2.944 0-5.331-2.387-5.331-5.331s2.387-5.331 5.331-5.331c2.944 0 5.331 2.387 5.331 5.331s-2.387 5.331-5.331 5.331z"></path>
<path d="M26.462 7.456c0 1.060-0.859 1.919-1.919 1.919s-1.919-0.859-1.919-1.919c0-1.060 0.859-1.919 1.919-1.919s1.919 0.859 1.919 1.919z"></path>
</symbol>

<symbol id="icon-snapchat" viewBox="0 0 32 32">
<path d="M16.275 1.057c1.32 0 5.796 0.368 7.907 5.095 0.705 1.591 0.537 4.292 0.399 6.463l-0.004 0.080c-0.016 0.24-0.029 0.46-0.040 0.68 0.1 0.060 0.271 0.12 0.535 0.12 0.4-0.021 0.879-0.16 1.377-0.401 0.22-0.117 0.459-0.139 0.619-0.139 0.243 0 0.479 0.039 0.679 0.12 0.6 0.199 0.979 0.639 0.979 1.117 0.020 0.599-0.52 1.119-1.617 1.557-0.119 0.039-0.279 0.1-0.459 0.159-0.6 0.18-1.519 0.48-1.777 1.080-0.12 0.299-0.081 0.699 0.16 1.157l0.020 0.020c0.080 0.181 2.035 4.633 6.388 5.352 0.34 0.059 0.58 0.36 0.56 0.679 0 0.1-0.020 0.199-0.060 0.3-0.32 0.759-1.697 1.317-4.195 1.695-0.079 0.121-0.16 0.5-0.219 0.76-0.039 0.239-0.099 0.48-0.179 0.737-0.101 0.361-0.36 0.54-0.74 0.54h-0.040c-0.18 0-0.417-0.041-0.717-0.099-0.48-0.1-1.020-0.18-1.697-0.18-0.4 0-0.799 0.020-1.217 0.099-0.8 0.139-1.497 0.619-2.297 1.179-1.137 0.799-2.435 1.717-4.392 1.717-0.080 0-0.159-0.020-0.24-0.020h-0.199c-1.957 0-3.236-0.9-4.372-1.717-0.799-0.56-1.476-1.039-2.276-1.179-0.419-0.060-0.839-0.099-1.237-0.099-0.72 0-1.277 0.119-1.696 0.199-0.281 0.057-0.521 0.099-0.72 0.099-0.499 0-0.697-0.299-0.777-0.56-0.081-0.256-0.12-0.519-0.18-0.756-0.061-0.241-0.14-0.659-0.221-0.76-2.557-0.296-3.933-0.856-4.252-1.635-0.041-0.084-0.069-0.2-0.073-0.3-0.020-0.324 0.22-0.62 0.56-0.679 4.352-0.72 6.307-5.172 6.388-5.36l0.021-0.039c0.24-0.46 0.299-0.86 0.159-1.159-0.26-0.579-1.179-0.877-1.776-1.079-0.161-0.039-0.32-0.099-0.461-0.159-1.476-0.58-1.676-1.24-1.596-1.697 0.12-0.639 0.899-1.057 1.557-1.057 0.195 0 0.36 0.039 0.511 0.099 0.56 0.259 1.052 0.4 1.472 0.4 0.312 0 0.512-0.080 0.62-0.14l-0.061-0.759c-0.131-2.168-0.3-4.868 0.409-6.449 2.052-4.703 6.515-5.063 7.832-5.063l0.559-0.020z"></path>
</symbol>

<symbol id="icon-twitter" viewBox="0 0 32 32">
<path d="M32 7.075c-1.175 0.525-2.444 0.875-3.769 1.031 1.356-0.813 2.394-2.1 2.887-3.631-1.269 0.75-2.675 1.3-4.169 1.594-1.2-1.275-2.906-2.069-4.794-2.069-3.625 0-6.563 2.938-6.563 6.563 0 0.512 0.056 1.012 0.169 1.494-5.456-0.275-10.294-2.888-13.531-6.862-0.563 0.969-0.887 2.1-0.887 3.3 0 2.275 1.156 4.287 2.919 5.463-1.075-0.031-2.087-0.331-2.975-0.819 0 0.025 0 0.056 0 0.081 0 3.181 2.263 5.838 5.269 6.437-0.55 0.15-1.131 0.231-1.731 0.231-0.425 0-0.831-0.044-1.237-0.119 0.838 2.606 3.263 4.506 6.131 4.563-2.25 1.762-5.075 2.813-8.156 2.813-0.531 0-1.050-0.031-1.569-0.094 2.913 1.869 6.362 2.95 10.069 2.95 12.075 0 18.681-10.006 18.681-18.681 0-0.287-0.006-0.569-0.019-0.85 1.281-0.919 2.394-2.075 3.275-3.394z"></path>
</symbol>

<symbol id="icon-youtube" viewBox="0 0 32 32">
<path d="M31.681 9.6c0 0-0.313-2.206-1.275-3.175-1.219-1.275-2.581-1.281-3.206-1.356-4.475-0.325-11.194-0.325-11.194-0.325h-0.012c0 0-6.719 0-11.194 0.325-0.625 0.075-1.987 0.081-3.206 1.356-0.963 0.969-1.269 3.175-1.269 3.175s-0.319 2.588-0.319 5.181v2.425c0 2.587 0.319 5.181 0.319 5.181s0.313 2.206 1.269 3.175c1.219 1.275 2.819 1.231 3.531 1.369 2.563 0.244 10.881 0.319 10.881 0.319s6.725-0.012 11.2-0.331c0.625-0.075 1.988-0.081 3.206-1.356 0.962-0.969 1.275-3.175 1.275-3.175s0.319-2.587 0.319-5.181v-2.425c-0.006-2.588-0.325-5.181-0.325-5.181zM12.694 20.15v-8.994l8.644 4.513-8.644 4.481z"></path>
</symbol>

<symbol id="icon-help-circle" viewBox="0 0 24 24">
<path d="M23 12c0-3.037-1.232-5.789-3.222-7.778s-4.741-3.222-7.778-3.222-5.789 1.232-7.778 3.222-3.222 4.741-3.222 7.778 1.232 5.789 3.222 7.778 4.741 3.222 7.778 3.222 5.789-1.232 7.778-3.222 3.222-4.741 3.222-7.778zM21 12c0 2.486-1.006 4.734-2.636 6.364s-3.878 2.636-6.364 2.636-4.734-1.006-6.364-2.636-2.636-3.878-2.636-6.364 1.006-4.734 2.636-6.364 3.878-2.636 6.364-2.636 4.734 1.006 6.364 2.636 2.636 3.878 2.636 6.364zM10.033 9.332c0.183-0.521 0.559-0.918 1.022-1.14s1.007-0.267 1.528-0.083c0.458 0.161 0.819 0.47 1.050 0.859 0.183 0.307 0.284 0.665 0.286 1.037 0 0.155-0.039 0.309-0.117 0.464-0.080 0.16-0.203 0.325-0.368 0.49-0.709 0.709-1.831 1.092-1.831 1.092-0.524 0.175-0.807 0.741-0.632 1.265s0.741 0.807 1.265 0.632c0 0 1.544-0.506 2.613-1.575 0.279-0.279 0.545-0.614 0.743-1.010 0.2-0.4 0.328-0.858 0.328-1.369-0.004-0.731-0.204-1.437-0.567-2.049-0.463-0.778-1.19-1.402-2.105-1.724-1.042-0.366-2.135-0.275-3.057 0.167s-1.678 1.238-2.044 2.28c-0.184 0.521 0.090 1.092 0.611 1.275s1.092-0.091 1.275-0.611zM12 18c0.552 0 1-0.448 1-1s-0.448-1-1-1-1 0.448-1 1 0.448 1 1 1z"></path>
</symbol>

<symbol id="icon-archive" viewBox="0 0 24 24">
<path d="M4 9h16v11h-16zM1 2c-0.552 0-1 0.448-1 1v5c0 0.552 0.448 1 1 1h1v12c0 0.552 0.448 1 1 1h18c0.552 0 1-0.448 1-1v-12h1c0.552 0 1-0.448 1-1v-5c0-0.552-0.448-1-1-1zM2 4h20v3h-20zM10 13h4c0.552 0 1-0.448 1-1s-0.448-1-1-1h-4c-0.552 0-1 0.448-1 1s0.448 1 1 1z"></path>
</symbol>

<symbol id="icon-heart" viewBox="0 0 24 24">
<path d="M12 21.35l-1.45-1.32C5.4 15.36 2 12.28 2 8.5 2 5.42 4.42 3 7.5 3c1.74 0 3.41.81 4.5 2.09C13.09 3.81 14.76 3 16.5 3 19.58 3 22 5.42 22 8.5c0 3.78-3.4 6.86-8.55 11.54L12 21.35z"/>
</symbol>

<symbol id="icon-heart-border" viewBox="0 0 24 24">
<path d="M20.133 5.317c0.88 0.881 1.319 2.031 1.319 3.184s-0.44 2.303-1.319 3.182l-8.133 8.133-8.133-8.133c-0.879-0.879-1.318-2.029-1.318-3.183s0.439-2.304 1.318-3.183 2.029-1.318 3.183-1.318 2.304 0.439 3.183 1.318l1.060 1.060c0.391 0.391 1.024 0.391 1.414 0l1.062-1.062c0.879-0.879 2.029-1.318 3.182-1.317s2.303 0.44 3.182 1.319zM21.547 3.903c-1.269-1.269-2.934-1.904-4.596-1.905s-3.327 0.634-4.597 1.903l-0.354 0.355-0.353-0.353c-1.269-1.269-2.935-1.904-4.597-1.904s-3.328 0.635-4.597 1.904-1.904 2.935-1.904 4.597 0.635 3.328 1.904 4.597l8.84 8.84c0.391 0.391 1.024 0.391 1.414 0l8.84-8.84c1.269-1.269 1.904-2.934 1.905-4.596s-0.634-3.327-1.905-4.598z"></path>
</symbol>

<symbol id="icon-nomad-logo" viewBox="0 0 86.742 37.452">
<g transform="translate(-133.911 -1693.874)"><g transform="translate(134.411 1711.87)"><path d="M149.825,1834.547h-.752l-1.375-2.176-9.991-14.554v14.354a1.4,1.4,0,0,0,1.427,1.6h.986v.776h-5.709v-.776h1.116a1.552,1.552,0,0,0,1.349-1.6v-13.929a1.115,1.115,0,0,0-1.22-1.175h-1.246v-.775h3.815l10.769,15.7v-13.8c0-.85-.623-1.125-1.3-1.125h-1.142v-.775h5.735v.775h-1.219a1.108,1.108,0,0,0-1.246,1.125Z" transform="translate(-134.411 -1816.117)" fill="#f2f7fb" stroke="#f8f1f1" stroke-width="1"/><path d="M260.307,1863.106c-4.334,0-5.891-3.551-5.891-6.227,0-4.8,3.555-6.5,5.891-6.5,2.958,0,5.735,2.126,5.735,6.5C266.042,1859.656,264.407,1863.106,260.307,1863.106Zm3.088-10.553a3.989,3.989,0,0,0-3.088-1.375,4.278,4.278,0,0,0-3.218,1.4,6.242,6.242,0,0,0-1.219,4.3c0,1.825.7,5.427,4.437,5.427,3.4,0,4.256-3.326,4.256-5.427A6.561,6.561,0,0,0,263.394,1852.553Z" transform="translate(-233.11 -1844.151)" fill="#f2f7fb" stroke="#f8f1f1" stroke-width="1"/><path d="M341.191,1854.867c0-.675-.779-.7-2-.7v-.775a8.044,8.044,0,0,0,3.322-.9v1.876c.934-1.125,1.583-1.876,3.3-1.876a3.038,3.038,0,0,1,2.543,1.125,3.492,3.492,0,0,1,.467.976,4.224,4.224,0,0,1,3.737-2.1c1.79,0,3.14,1.2,3.14,3.451v6.652a.865.865,0,0,0,.96.95h.908v.776h-5.034v-.776h1.012c.519,0,.83-.35.83-.95v-6.652c0-1.675-.857-2.676-2.154-2.676a3.535,3.535,0,0,0-3.166,2.375v6.977a.837.837,0,0,0,.96.925h.882v.776h-5.112v-.776h1.09a.888.888,0,0,0,.856-.925v-6.552c0-1.35-.493-2.8-2.258-2.8a3.191,3.191,0,0,0-2.958,2.6v6.777a.8.8,0,0,0,.856.9h.986v.776h-5.138v-.776H340c.441,0,1.194-.125,1.194-.9Z" transform="translate(-302.836 -1845.889)" fill="#f2f7fb" stroke="#f8f1f1" stroke-width="1"/><path d="M469.1,1862.244a6.63,6.63,0,0,1-4.074,1.3,3.012,3.012,0,0,1-1.868-5.5c1.194-.875,3.4-1.5,6.669-1.926v-1.65a3,3,0,0,0-3.14-2.751c-1.869,0-2.751,1.15-2.751,1.675v.3c.052.275.156,1-.752,1a.737.737,0,0,1-.8-.776c0-1.55,1.79-2.976,4.308-2.976,2.751,0,4.463,1.8,4.463,3.526v5.8c0,.925,0,2.5.545,2.5.233,0,.545-.475.882-1.375l.727.375c-.519,1.6-1.22,1.775-1.894,1.775-1.375,0-1.479-1.226-1.557-2.076Zm.727-5.326a14.893,14.893,0,0,0-5.527,1.726,2.144,2.144,0,0,0-1.142,1.9,2.341,2.341,0,0,0,2.387,2.226c1.635,0,4.022-1.125,4.282-2.951Z" transform="translate(-403.7 -1844.614)" fill="#f2f7fb" stroke="#f8f1f1" stroke-width="1"/><path d="M556.018,1831.586c0,1.05.571,1.375,1.246,1.375h1.064v.776h-3.633v-1.6a4.395,4.395,0,0,1-3.944,1.776c-3.062,0-5.164-2.526-5.164-6.277a5.675,5.675,0,0,1,5.605-5.727,4.767,4.767,0,0,1,3.5,1.376v-5.477c0-.625-.208-.7-2-.7v-.775a7.4,7.4,0,0,0,3.322-1.026Zm-1.323-6.9a4.112,4.112,0,0,0-3.5-1.9c-1.972,0-4.152,1.625-4.152,4.852,0,2.325,1.064,5.4,4.048,5.4a3.736,3.736,0,0,0,3.607-2.751Z" transform="translate(-472.586 -1815.306)" fill="#f2f7fb" stroke="#f8f1f1" stroke-width="1"/></g><g transform="translate(151.874 1695.374)"><g transform="translate(13.564 0.051)"><path d="M467.992,1753.614c.016.009.148.066.146.139,0,.124-.4.207-.447.22-.706.149-1.128-.544-1.922-.693-1.075-.2-1.513.842-2.456.546a2.289,2.289,0,0,1-1.123-1.05c-.48-.732-.341-1.127-.684-1.6-.274-.383-.844-.8-2.831-.817l-.492-2.063-1.022-4.283,2.96,2.625Z" transform="translate(-430.888 -1740.222)" fill="#f2f7fb" stroke="#f8f1f1" stroke-width="1"/><path d="M432.486,1750.591c.035.192.139.759-.023.83-.092.041-.234-.091-.293-.146-.391-.369-1.684-1.67-3.418-3.443l-.836-4.145,1.182-.536,2.424,1.538-.718.8c-.891.879-.88,1.179-.809,1.714C430.156,1748.416,432.206,1749.062,432.486,1750.591Z" transform="translate(-406.834 -1739.516)" fill="#f2f7fb" stroke="#f8f1f1" stroke-width="1"/><path d="M381.434,1734.37a.363.363,0,0,1-.136.545c-.223.158-.643-.157-1.453-.58s-1.21-.631-1.44-.586c-.5.1-.56.612-1.563,1.214-.324.2-.434.213-.524.208-.381-.016-.658-.446-1.2-1.306-.861-1.374-1.035-1.664-1.318-1.666-.337,0-.621.408-.817.69-.308.442-.188.833-.379.9-.217.081-.581-.3-.823-.659-.727-1.062-.368-1.866-.836-2.914a3.61,3.61,0,0,0-1.4-1.547l-1.271-5.981.012-.013,6.682,5.936Z" transform="translate(-357.784 -1722.676)" fill="#f2f7fb" stroke="#f8f1f1" stroke-width="1"/><path d="M313.333,1748.751l-2.528,2.711a.854.854,0,0,0,.051-.073l-.051.073-.006.007a.817.817,0,0,1-1.456-.545l-.168-3.038,1.2-1.162Z" transform="translate(-309.175 -1742.455)" fill="#f2f7fb" stroke="#f8f1f1" stroke-width="1"/></g><g transform="translate(0 0)"><line y1="2.711" x2="2.528" transform="translate(15.195 6.348)" fill="none" stroke="#f8f1f1" stroke-linejoin="round" stroke-width="3"/><path d="M318.357,1773.073a.818.818,0,0,0,.051-.073Z" transform="translate(-303.162 -1764.014)" fill="#f2f7fb" stroke="#f8f1f1" stroke-linejoin="round" stroke-width="3"/><path d="M309.175,1753.274l.168,3.038a.817.817,0,0,0,1.456.545l.006-.008" transform="translate(-295.611 -1747.79)" fill="#f2f7fb" stroke="#f8f1f1" stroke-linejoin="round" stroke-width="3"/><path d="M242.116,1765.94l-2.558-2.254-6.786,6.721c.324-.236,2.648-1.931,5.15-3.735a.577.577,0,0,1,.327-.121c.413-.009.507.876,1.285,1.691.157.165.217.2.286.213.313.063.633-.324,1.44-1.384C241.576,1766.656,241.86,1766.286,242.116,1765.94Z" transform="translate(-232.773 -1756.354)" fill="#f2f7fb" stroke="#f8f1f1" stroke-linejoin="round" stroke-width="3"/><line y1="4.103" x2="4.221" transform="translate(9.343 5.484)" fill="none" stroke="#f8f1f1" stroke-linejoin="round" stroke-width="3"/><path d="M326.361,1728.375l-6.682-5.937-.057-.051-6.289,6.348-2.963-2.027-1.2,1.163" transform="translate(-295.61 -1722.387)" fill="#f2f7fb" stroke="#f8f1f1" stroke-linejoin="round" stroke-width="3"/><path d="M431.521,1744.69l-2.424-1.538-1.182.536" transform="translate(-393.269 -1739.465)" fill="#f2f7fb" stroke="#f8f1f1" stroke-linejoin="round" stroke-width="3"/><path d="M457.161,1744.01l1.514,6.347c1.988.022,2.557.434,2.831.817.343.476.2.87.684,1.6a2.289,2.289,0,0,0,1.123,1.05c.943.3,1.381-.748,2.456-.546.794.15,1.216.842,1.922.693.051-.013.444-.1.447-.22,0-.074-.13-.131-.146-.139Z" transform="translate(-417.323 -1740.171)" fill="#f2f7fb" stroke="#f8f1f1" stroke-linejoin="round" stroke-width="3"/><line x1="1.586" y2="1.386" transform="translate(38.252 3.839)" fill="none" stroke="#f8f1f1" stroke-linejoin="round" stroke-width="3"/><path d="M427.915,1746.171l.836,4.145c1.734,1.773,3.027,3.073,3.418,3.442.059.055.2.188.293.146.163-.072.059-.639.023-.831-.28-1.529-2.33-2.175-2.491-3.389-.072-.535-.082-.835.809-1.714l.718-.8" transform="translate(-393.269 -1741.948)" fill="#f2f7fb" stroke="#f8f1f1" stroke-linejoin="round" stroke-width="3"/><line x1="3.895" y2="1.765" transform="translate(30.751 4.223)" fill="none" stroke="#f8f1f1" stroke-linejoin="round" stroke-width="3"/><path d="M368.277,1722.75l1.271,5.982a3.609,3.609,0,0,1,1.4,1.547c.469,1.048.11,1.853.836,2.915.242.354.606.74.823.659.192-.069.072-.46.379-.9.2-.282.48-.693.817-.69.283,0,.457.292,1.318,1.665.539.86.816,1.29,1.2,1.307.091,0,.2-.013.524-.208,1-.6,1.059-1.113,1.563-1.214.23-.045.634.164,1.44.586s1.23.738,1.453.58a.363.363,0,0,0,.136-.545l-6.464-5.758" transform="translate(-344.22 -1722.685)" fill="#f2f7fb" stroke="#f8f1f1" stroke-linejoin="round" stroke-width="3"/></g></g></g>
</symbol>

<symbol id="icon-cart" viewBox="0 0 36.536 36.536">
<g transform="translate(1.5 1.5)"><path d="M15.253,31.626A1.626,1.626,0,1,1,13.626,30,1.626,1.626,0,0,1,15.253,31.626Z" transform="translate(-1.401 0.283)"  stroke-linecap="round" stroke-linejoin="round" stroke-width="3"/><path d="M31.753,31.626A1.626,1.626,0,1,1,30.126,30,1.626,1.626,0,0,1,31.753,31.626Z" transform="translate(-1.47 0.283)"  stroke-linecap="round" stroke-linejoin="round" stroke-width="3"/><path d="M1.5,1.5H7.6l4.085,21.225a3.079,3.079,0,0,0,3.049,2.552H29.548A3.079,3.079,0,0,0,32.6,22.725l2.439-13.3H9.122" transform="translate(-1.5 -1.5)"  stroke-linecap="round" stroke-linejoin="round" stroke-width="3"/></g>
</symbol>

<symbol id="icon-globe" viewBox="0 0 24 24"> 
<path d="M16.951 11c-0.214-2.69-1.102-5.353-2.674-7.71 1.57 0.409 2.973 1.232 4.087 2.346 1.408 1.408 2.351 3.278 2.581 5.364zM14.279 20.709c1.483-2.226 2.437-4.853 2.669-7.709h3.997c-0.23 2.086-1.173 3.956-2.581 5.364-1.113 1.113-2.516 1.936-4.085 2.345zM7.049 13c0.214 2.69 1.102 5.353 2.674 7.71-1.57-0.409-2.973-1.232-4.087-2.346-1.408-1.408-2.351-3.278-2.581-5.364zM9.721 3.291c-1.482 2.226-2.436 4.853-2.669 7.709h-3.997c0.23-2.086 1.173-3.956 2.581-5.364 1.114-1.113 2.516-1.936 4.085-2.345zM12.004 1c0 0 0 0 0 0-3.044 0.001-5.794 1.233-7.782 3.222-1.99 1.989-3.222 4.741-3.222 7.778s1.232 5.789 3.222 7.778c1.988 1.989 4.738 3.221 7.774 3.222 0 0 0 0 0 0 3.044-0.001 5.793-1.233 7.782-3.222 1.99-1.989 3.222-4.741 3.222-7.778s-1.232-5.789-3.222-7.778c-1.988-1.989-4.738-3.221-7.774-3.222zM14.946 13c-0.252 2.788-1.316 5.36-2.945 7.451-1.729-2.221-2.706-4.818-2.945-7.451zM11.999 3.549c1.729 2.221 2.706 4.818 2.945 7.451h-5.89c0.252-2.788 1.316-5.36 2.945-7.451z"></path>
</symbol>   

<symbol id="icon-message" viewBox="0 0 24 24">
<path d="M18 8.016v-2.016h-12v2.016h12zM18 11.016v-2.016h-12v2.016h12zM18 14.016v-2.016h-12v2.016h12zM20.016 2.016q0.797 0 1.383 0.586t0.586 1.383v12q0 0.797-0.586 1.406t-1.383 0.609h-14.016l-3.984 3.984v-18q0-0.797 0.586-1.383t1.383-0.586h16.031z"></path>
</symbol>

<symbol id="icon-star" viewBox="0 0 26 28">
<path d="M26 10.109c0 0.281-0.203 0.547-0.406 0.75l-5.672 5.531 1.344 7.812c0.016 0.109 0.016 0.203 0.016 0.313 0 0.406-0.187 0.781-0.641 0.781-0.219 0-0.438-0.078-0.625-0.187l-7.016-3.687-7.016 3.687c-0.203 0.109-0.406 0.187-0.625 0.187-0.453 0-0.656-0.375-0.656-0.781 0-0.109 0.016-0.203 0.031-0.313l1.344-7.812-5.688-5.531c-0.187-0.203-0.391-0.469-0.391-0.75 0-0.469 0.484-0.656 0.875-0.719l7.844-1.141 3.516-7.109c0.141-0.297 0.406-0.641 0.766-0.641s0.625 0.344 0.766 0.641l3.516 7.109 7.844 1.141c0.375 0.063 0.875 0.25 0.875 0.719z"></path>
</symbol>

<symbol id="icon-homepage" width="40px" height="40px" viewBox="2 2 24 24">
<path d="M12 5.69l5 4.5V18h-2v-6H9v6H7v-7.81l5-4.5M12 3L2 12h3v8h6v-6h2v6h6v-8h3L12 3z"/>
</symbol>

<symbol id="icon-user" width="40px" height="40px" viewBox="2 2 24 24">
<path d="M12 5.9c1.16 0 2.1.94 2.1 2.1s-.94 2.1-2.1 2.1S9.9 9.16 9.9 8s.94-2.1 2.1-2.1m0 9c2.97 0 6.1 1.46 6.1 2.1v1.1H5.9V17c0-.64 3.13-2.1 6.1-2.1M12 4C9.79 4 8 5.79 8 8s1.79 4 4 4 4-1.79 4-4-1.79-4-4-4zm0 9c-2.67 0-8 1.34-8 4v3h16v-3c0-2.66-5.33-4-8-4z"/>
</symbol>

<symbol id="icon-nomad-logo-dark" width="70px" height="60px" viewBox="-10 0 100 50">
<g transform="translate(-133.911 -1693.874)"><g transform="translate(134.411 1711.87)"><path d="M149.825,1834.547h-.752l-1.375-2.176-9.991-14.554v14.354a1.4,1.4,0,0,0,1.427,1.6h.986v.776h-5.709v-.776h1.116a1.552,1.552,0,0,0,1.349-1.6v-13.929a1.115,1.115,0,0,0-1.22-1.175h-1.246v-.775h3.815l10.769,15.7v-13.8c0-.85-.623-1.125-1.3-1.125h-1.142v-.775h5.735v.775h-1.219a1.108,1.108,0,0,0-1.246,1.125Z" transform="translate(-134.411 -1816.117)" fill="#123132" stroke="#123132" stroke-width="1"/><path d="M260.307,1863.106c-4.334,0-5.891-3.551-5.891-6.227,0-4.8,3.555-6.5,5.891-6.5,2.958,0,5.735,2.126,5.735,6.5C266.042,1859.656,264.407,1863.106,260.307,1863.106Zm3.088-10.553a3.989,3.989,0,0,0-3.088-1.375,4.278,4.278,0,0,0-3.218,1.4,6.242,6.242,0,0,0-1.219,4.3c0,1.825.7,5.427,4.437,5.427,3.4,0,4.256-3.326,4.256-5.427A6.561,6.561,0,0,0,263.394,1852.553Z" transform="translate(-233.11 -1844.151)" fill="#123132" stroke="#123132" stroke-width="1"/><path d="M341.191,1854.867c0-.675-.779-.7-2-.7v-.775a8.044,8.044,0,0,0,3.322-.9v1.876c.934-1.125,1.583-1.876,3.3-1.876a3.038,3.038,0,0,1,2.543,1.125,3.492,3.492,0,0,1,.467.976,4.224,4.224,0,0,1,3.737-2.1c1.79,0,3.14,1.2,3.14,3.451v6.652a.865.865,0,0,0,.96.95h.908v.776h-5.034v-.776h1.012c.519,0,.83-.35.83-.95v-6.652c0-1.675-.857-2.676-2.154-2.676a3.535,3.535,0,0,0-3.166,2.375v6.977a.837.837,0,0,0,.96.925h.882v.776h-5.112v-.776h1.09a.888.888,0,0,0,.856-.925v-6.552c0-1.35-.493-2.8-2.258-2.8a3.191,3.191,0,0,0-2.958,2.6v6.777a.8.8,0,0,0,.856.9h.986v.776h-5.138v-.776H340c.441,0,1.194-.125,1.194-.9Z" transform="translate(-302.836 -1845.889)" fill="#123132" stroke="#123132" stroke-width="1"/><path d="M469.1,1862.244a6.63,6.63,0,0,1-4.074,1.3,3.012,3.012,0,0,1-1.868-5.5c1.194-.875,3.4-1.5,6.669-1.926v-1.65a3,3,0,0,0-3.14-2.751c-1.869,0-2.751,1.15-2.751,1.675v.3c.052.275.156,1-.752,1a.737.737,0,0,1-.8-.776c0-1.55,1.79-2.976,4.308-2.976,2.751,0,4.463,1.8,4.463,3.526v5.8c0,.925,0,2.5.545,2.5.233,0,.545-.475.882-1.375l.727.375c-.519,1.6-1.22,1.775-1.894,1.775-1.375,0-1.479-1.226-1.557-2.076Zm.727-5.326a14.893,14.893,0,0,0-5.527,1.726,2.144,2.144,0,0,0-1.142,1.9,2.341,2.341,0,0,0,2.387,2.226c1.635,0,4.022-1.125,4.282-2.951Z" transform="translate(-403.7 -1844.614)" fill="#123132" stroke="#123132" stroke-width="1"/><path d="M556.018,1831.586c0,1.05.571,1.375,1.246,1.375h1.064v.776h-3.633v-1.6a4.395,4.395,0,0,1-3.944,1.776c-3.062,0-5.164-2.526-5.164-6.277a5.675,5.675,0,0,1,5.605-5.727,4.767,4.767,0,0,1,3.5,1.376v-5.477c0-.625-.208-.7-2-.7v-.775a7.4,7.4,0,0,0,3.322-1.026Zm-1.323-6.9a4.112,4.112,0,0,0-3.5-1.9c-1.972,0-4.152,1.625-4.152,4.852,0,2.325,1.064,5.4,4.048,5.4a3.736,3.736,0,0,0,3.607-2.751Z" transform="translate(-472.586 -1815.306)" fill="#123132" stroke="#123132" stroke-width="1"/></g><g transform="translate(151.874 1695.374)"><g transform="translate(13.564 0.051)"><path d="M467.992,1753.614c.016.009.148.066.146.139,0,.124-.4.207-.447.22-.706.149-1.128-.544-1.922-.693-1.075-.2-1.513.842-2.456.546a2.289,2.289,0,0,1-1.123-1.05c-.48-.732-.341-1.127-.684-1.6-.274-.383-.844-.8-2.831-.817l-.492-2.063-1.022-4.283,2.96,2.625Z" transform="translate(-430.888 -1740.222)" fill="#123132" stroke="#123132" stroke-width="1"/><path d="M432.486,1750.591c.035.192.139.759-.023.83-.092.041-.234-.091-.293-.146-.391-.369-1.684-1.67-3.418-3.443l-.836-4.145,1.182-.536,2.424,1.538-.718.8c-.891.879-.88,1.179-.809,1.714C430.156,1748.416,432.206,1749.062,432.486,1750.591Z" transform="translate(-406.834 -1739.516)" fill="#123132" stroke="#123132" stroke-width="1"/><path d="M381.434,1734.37a.363.363,0,0,1-.136.545c-.223.158-.643-.157-1.453-.58s-1.21-.631-1.44-.586c-.5.1-.56.612-1.563,1.214-.324.2-.434.213-.524.208-.381-.016-.658-.446-1.2-1.306-.861-1.374-1.035-1.664-1.318-1.666-.337,0-.621.408-.817.69-.308.442-.188.833-.379.9-.217.081-.581-.3-.823-.659-.727-1.062-.368-1.866-.836-2.914a3.61,3.61,0,0,0-1.4-1.547l-1.271-5.981.012-.013,6.682,5.936Z" transform="translate(-357.784 -1722.676)" fill="#123132" stroke="#123132" stroke-width="1"/><path d="M313.333,1748.751l-2.528,2.711a.854.854,0,0,0,.051-.073l-.051.073-.006.007a.817.817,0,0,1-1.456-.545l-.168-3.038,1.2-1.162Z" transform="translate(-309.175 -1742.455)" fill="#123132" stroke="#123132" stroke-width="1"/></g><g transform="translate(0 0)"><line y1="2.711" x2="2.528" transform="translate(15.195 6.348)" fill="none" stroke="#123132" stroke-linejoin="round" stroke-width="3"/><path d="M318.357,1773.073a.818.818,0,0,0,.051-.073Z" transform="translate(-303.162 -1764.014)" fill="#123132" stroke="#123132" stroke-linejoin="round" stroke-width="3"/><path d="M309.175,1753.274l.168,3.038a.817.817,0,0,0,1.456.545l.006-.008" transform="translate(-295.611 -1747.79)" fill="#123132" stroke="#123132" stroke-linejoin="round" stroke-width="3"/><path d="M242.116,1765.94l-2.558-2.254-6.786,6.721c.324-.236,2.648-1.931,5.15-3.735a.577.577,0,0,1,.327-.121c.413-.009.507.876,1.285,1.691.157.165.217.2.286.213.313.063.633-.324,1.44-1.384C241.576,1766.656,241.86,1766.286,242.116,1765.94Z" transform="translate(-232.773 -1756.354)" fill="#123132" stroke="#123132" stroke-linejoin="round" stroke-width="3"/><line y1="4.103" x2="4.221" transform="translate(9.343 5.484)" fill="none" stroke="#123132" stroke-linejoin="round" stroke-width="3"/><path d="M326.361,1728.375l-6.682-5.937-.057-.051-6.289,6.348-2.963-2.027-1.2,1.163" transform="translate(-295.61 -1722.387)" fill="#123132" stroke="#123132" stroke-linejoin="round" stroke-width="3"/><path d="M431.521,1744.69l-2.424-1.538-1.182.536" transform="translate(-393.269 -1739.465)" fill="#123132" stroke="#123132" stroke-linejoin="round" stroke-width="3"/><path d="M457.161,1744.01l1.514,6.347c1.988.022,2.557.434,2.831.817.343.476.2.87.684,1.6a2.289,2.289,0,0,0,1.123,1.05c.943.3,1.381-.748,2.456-.546.794.15,1.216.842,1.922.693.051-.013.444-.1.447-.22,0-.074-.13-.131-.146-.139Z" transform="translate(-417.323 -1740.171)" fill="#123132" stroke="#123132" stroke-linejoin="round" stroke-width="3"/><line x1="1.586" y2="1.386" transform="translate(38.252 3.839)" fill="none" stroke="#123132" stroke-linejoin="round" stroke-width="3"/><path d="M427.915,1746.171l.836,4.145c1.734,1.773,3.027,3.073,3.418,3.442.059.055.2.188.293.146.163-.072.059-.639.023-.831-.28-1.529-2.33-2.175-2.491-3.389-.072-.535-.082-.835.809-1.714l.718-.8" transform="translate(-393.269 -1741.948)" fill="#123132" stroke="#123132" stroke-linejoin="round" stroke-width="3"/><line x1="3.895" y2="1.765" transform="translate(30.751 4.223)" fill="none" stroke="#123132" stroke-linejoin="round" stroke-width="3"/><path d="M368.277,1722.75l1.271,5.982a3.609,3.609,0,0,1,1.4,1.547c.469,1.048.11,1.853.836,2.915.242.354.606.74.823.659.192-.069.072-.46.379-.9.2-.282.48-.693.817-.69.283,0,.457.292,1.318,1.665.539.86.816,1.29,1.2,1.307.091,0,.2-.013.524-.208,1-.6,1.059-1.113,1.563-1.214.23-.045.634.164,1.44.586s1.23.738,1.453.58a.363.363,0,0,0,.136-.545l-6.464-5.758" transform="translate(-344.22 -1722.685)" fill="#123132" stroke="#123132" stroke-linejoin="round" stroke-width="3"/></g></g></g>
</symbol>

<symbol id="icon-place" viewBox="0 0 17.039 25.737">
<path d="M176.229,87.017c2.294,0,4.161-2.154,4.161-4.8s-1.867-4.8-4.161-4.8-4.161,2.154-4.161,4.8S173.935,87.017,176.229,87.017Zm0-7.888a3.117,3.117,0,1,1-2.674,3.086A2.905,2.905,0,0,1,176.229,79.129Z" transform="translate(-167.709 -73.784)" /><path d="M99.555,15.281c1.21,1.507.724.921,4.208,5.5a.839.839,0,0,0,1.309,0c3.5-4.6,3.019-4.017,4.209-5.5a18.427,18.427,0,0,0,3.135-4.874,7.1,7.1,0,0,0-1.2-7.338h0a9.057,9.057,0,0,0-13.59,0,7.1,7.1,0,0,0-1.2,7.338,18.424,18.424,0,0,0,3.135,4.874ZM98.886,3.967a7.374,7.374,0,0,1,11.065,0h0a5.764,5.764,0,0,1,.957,5.96A17.366,17.366,0,0,1,108,14.409c-.883,1.1-.619.763-3.579,4.667-2.957-3.9-2.7-3.568-3.579-4.667a17.367,17.367,0,0,1-2.911-4.481,5.764,5.764,0,0,1,.957-5.96Z" transform="translate(-95.898 0)" /><path d="M110.331,370.577a.76.76,0,0,0-1.1-.267l-2.257,1.541a.9.9,0,0,0,0,1.451l7.113,4.857a.744.744,0,0,0,.848,0l7.113-4.857a.9.9,0,0,0,0-1.451L119.8,370.31a.76.76,0,0,0-1.1.267.9.9,0,0,0,.247,1.184l1.195.816-5.627,3.842-5.627-3.842,1.195-.816A.9.9,0,0,0,110.331,370.577Z" transform="translate(-105.996 -352.555)" />
</symbol>

<symbol id="icon-difficulty" viewBox="0 0 35.5 19.966">
<g transform="translate(-70.644 -5)"><g transform="translate(0 0)"><g transform="translate(70.644 5)"><path d="M1439.519,159.39a17.75,17.75,0,0,0-30.3,12.551v2.176h13.535l.083-.949a4.15,4.15,0,0,1,4.132-3.78,4.187,4.187,0,0,1,.652.052l-1.691,2.337v2.382h2.08v-1.708l1.555-2.148c.073.058.144.118.214.182a4.137,4.137,0,0,1,1.323,2.685l.083.949h13.535v-2.176a17.635,17.635,0,0,0-5.2-12.551Zm3.119,12.647h-9.624a6.215,6.215,0,0,0-1.828-3.084c-.13-.119-.264-.232-.4-.339l4.355-6.015-1.685-1.22-4.521,6.246a6.232,6.232,0,0,0-8.012,4.412H1411.3v-.1a15.67,15.67,0,0,1,31.34,0Z" transform="translate(-1409.218 -154.191)"/></g></g></g>
</symbol>

<symbol id="icon-time" viewBox="0 0 29 29">
<g transform="translate(-244 -846)"><g transform="translate(257.178 852.482)"><path d="M1523.483,169.131l-4.242-3.182v-6.48a1.178,1.178,0,1,0-2.357,0v7.07a1.176,1.176,0,0,0,.472.943l4.713,3.535a1.178,1.178,0,0,0,1.414-1.885Z" transform="translate(-1516.884 -158.29)" /></g><g transform="translate(244 846)"><g transform="translate(0)"><path d="M1508.321,146.691a14.5,14.5,0,1,0,14.5,14.5A14.516,14.516,0,0,0,1508.321,146.691Zm0,26.754a12.254,12.254,0,1,1,12.253-12.254A12.269,12.269,0,0,1,1508.321,173.445Z" transform="translate(-1493.821 -146.691)"/></g></g></g>
</symbol>

<symbol id="icon-price" viewBox="0 0 29 29">
<path d="M1580.693,148.635a14.5,14.5,0,1,0,14.5,14.5A14.516,14.516,0,0,0,1580.693,148.635Zm0,27.092a12.592,12.592,0,1,1,12.592-12.592A12.606,12.606,0,0,1,1580.693,175.727Z" transform="translate(-1566.193 -148.635)" /><path d="M1588.776,165.013V159.6a2.745,2.745,0,0,1,1.339,1.066.954.954,0,0,0,1.594-1.049,4.648,4.648,0,0,0-2.933-2V156.1a.954.954,0,0,0-1.908,0v1.513a4.654,4.654,0,0,0,0,9.112v5.417a2.743,2.743,0,0,1-1.339-1.065.954.954,0,1,0-1.594,1.049,4.643,4.643,0,0,0,2.933,2v1.515a.954.954,0,0,0,1.908,0v-1.513a4.654,4.654,0,0,0,0-9.112Zm-3.7-2.844a2.749,2.749,0,0,1,1.8-2.573v5.145A2.748,2.748,0,0,1,1585.072,162.169Zm3.7,9.972V167a2.741,2.741,0,0,1,0,5.145Z" transform="translate(-1573.321 -151.369)" />
</symbol>

<symbol id="icon-warning" viewBox="0 0 24 24">
<path d="M1 21h22L12 2 1 21zm12-3h-2v-2h2v2zm0-4h-2v-4h2v4z"/>
</symbol>

<symbol id="icon-warning-rounded" viewBox="0 0 24 24">
<path d="M4.47 21h15.06c1.54 0 2.5-1.67 1.73-3L13.73 4.99c-.77-1.33-2.69-1.33-3.46 0L2.74 18c-.77 1.33.19 3 1.73 3zM12 14c-.55 0-1-.45-1-1v-2c0-.55.45-1 1-1s1 .45 1 1v2c0 .55-.45 1-1 1zm1 4h-2v-2h2v2z"/>
</symbol>

<symbol id="icon-report">
<path d="M0 0h24v24H0V0z" /><path d="M12 5.99L19.53 19H4.47L12 5.99M12 2L1 21h22L12 2zm1 14h-2v2h2v-2zm0-6h-2v4h2v-4z"/>
</symbol>

<symbol id="icon-history" viewBox="0 0 33.583 33.583">
<path d="M34.146,17.322A16.792,16.792,0,0,1,6.816,30.428a1.624,1.624,0,0,1-.125-2.411l.763-.763a1.628,1.628,0,0,1,2.159-.134,12.459,12.459,0,1,0-.8-18.843l3.436,3.436a1.083,1.083,0,0,1-.766,1.849H1.646A1.083,1.083,0,0,1,.563,12.479V2.636A1.083,1.083,0,0,1,2.412,1.87L5.755,5.213A16.791,16.791,0,0,1,34.146,17.322ZM21.9,22.657l.665-.855a1.625,1.625,0,0,0-.285-2.28l-2.756-2.143V10.312A1.625,1.625,0,0,0,17.9,8.687H16.812a1.625,1.625,0,0,0-1.625,1.625V19.5l4.429,3.445a1.625,1.625,0,0,0,2.28-.285Z" transform="translate(-0.563 -0.563)" />
</symbol>

<symbol id="icon-profile" viewBox="0 0 31.975 23.981">
<path d="M34.19,11.138H31.954V7.783l-4.616-.071.024,3.426H13.492l.095-3.426-4.52.071v3.426l-2.284-.071A2.285,2.285,0,0,0,4.5,13.422V29.41a2.285,2.285,0,0,0,2.284,2.284H34.19a2.285,2.285,0,0,0,2.284-2.284V13.422A2.285,2.285,0,0,0,34.19,11.138ZM28.48,8.854h2.284v4.568H28.48ZM13.635,16.633c1.38,0,2.5,1.47,2.5,3.283s-1.119,3.283-2.5,3.283-2.5-1.47-2.5-3.283,1.119-3.283,2.5-3.283ZM10.209,8.854h2.284v4.568H10.209ZM8.686,27.066s.271-2.172.886-2.582a8.758,8.758,0,0,1,2.387-.683s1.149,1.228,1.638,1.228S15.233,23.8,15.233,23.8a8.731,8.731,0,0,1,2.388.683c.723.482.9,2.582.9,2.582H8.686Zm23.22-1.083H21.628V24.842H31.906Zm0-2.284H21.628V22.558H31.906Zm0-2.284H21.628V20.274H31.906Zm0-2.284H21.628V17.99H31.906Z" transform="translate(-4.499 -7.712)" />
</symbol>

<symbol id="icon-trophy" viewBox="0 0 32.835 29.187">
<path d="M31.467,3.648H25.539V1.368A1.365,1.365,0,0,0,24.17,0H8.665A1.365,1.365,0,0,0,7.3,1.368v2.28H1.368A1.365,1.365,0,0,0,0,5.016V8.209c0,2.035,1.283,4.127,3.529,5.74A13.355,13.355,0,0,0,9.8,16.326a12.61,12.61,0,0,0,3.882,4.2v4.1H10.945c-2.012,0-3.648,1.18-3.648,3.192V28.5a.686.686,0,0,0,.684.684H24.854a.686.686,0,0,0,.684-.684v-.684c0-2.012-1.636-3.192-3.648-3.192H19.154v-4.1a12.61,12.61,0,0,0,3.882-4.2,13.309,13.309,0,0,0,6.271-2.377c2.24-1.613,3.529-3.705,3.529-5.74V5.016A1.365,1.365,0,0,0,31.467,3.648ZM5.661,10.991A4.193,4.193,0,0,1,3.648,8.209V7.3h3.66a20.474,20.474,0,0,0,.73,4.914,9.187,9.187,0,0,1-2.377-1.22ZM29.187,8.209c0,.918-1.009,2.058-2.012,2.782a9.223,9.223,0,0,1-2.383,1.22,20.474,20.474,0,0,0,.73-4.914h3.665Z" />
</symbol>

<symbol id="icon-arrow-down" viewBox="0 0 24 24">
<svg><path d="M0 0h24v24H0z" fill="transparent" /><path d="M16.59 8.59L12 13.17 7.41 8.59 6 10l6 6 6-6z"/></svg>
</symbol>

<symbol id="icon-arrow-up" viewBox="0 0 24 24">
<svg><path d="M0 0h24v24H0z" fill="transparent"/><path d="M12 8l-6 6 1.41 1.41L12 10.83l4.59 4.58L18 14z"/></svg>
</symbol>

<symbol id="icon-remove" viewBox="0 0 24 24">
<path d="M0 0h24v24H0V0z" fill="none"/><path d="M19 13H5v-2h14v2z"/>
</symbol>

<symbol id="icon-add" viewBox="0 0 24 24">
<path d="M0 0h24v24H0V0z" fill="none"/><path d="M19 13h-6v6h-2v-6H5v-2h6V5h2v6h6v2z"/>
</symbol>

<symbol id="icon-chip" viewBox="0 0 497 497">
<g><path d="m437 458.5h-377c-33.137 0-60-26.863-60-60v-300c0-33.137 26.863-60 60-60h377c33.137 0 60 26.863 60 60v300c0 33.137-26.863 60-60 60z" fill="#ffeebc"/><path d="m467 248.5v75l-60 45v-165z" fill="#ff6737"/><path d="m248.5 398.5v-180h188.5v105z" fill="#ff8937"/><path d="m467 173.5v75h-30l-45-120z" fill="#ff8937"/><path d="m437 173.5v75h-188.5v-150z" fill="#ffab37"/><path d="m248.5 398.51c-.18-.01-218.5-75.01-218.5-75.01v-75l218.5-60z" fill="#ffab37"/><path d="m248.5 98.5v150h-218.5v-75z" fill="#ff8937"/><path d="m437 323.5-30 105h30c16.54 0 30-13.46 30-30v-75z" fill="#ffab37"/><path d="m437 68.5h-30l30 105h30v-75c0-16.54-13.46-30-30-30z" fill="#ffab37"/><path d="m30 323.5v75c0 16.54 13.46 30 30 30h121l67.5-32.85 67.5 32.85h91c16.54 0 30-13.46 30-30v-75z" fill="#ffcd37"/><path d="m407 68.5h-347c-16.54 0-30 13.46-30 30v75h407v-75c0-16.54-13.46-30-30-30z" fill="#ffcd37"/><path d="m302.93 132.68c8.06-5.76 13.07-14.85 13.07-24.76v-39.42h-135v39.42c0 9.91 5.01 19 13.07 24.76 5.91 4.23 9.7 11.25 9.42 19.14-.43 12.01-10.52 21.4-22.49 21.67v150.02c11.97.27 22.06 9.66 22.49 21.67.28 7.89-3.51 14.91-9.42 19.14-8.06 5.76-13.07 14.85-13.07 24.76v39.42h135v-39.42c0-9.91-5.01-19-13.07-24.76-5.91-4.23-9.7-11.25-9.42-19.14.43-12.01 10.52-21.4 22.49-21.67v-150.02c-11.97-.27-22.06-9.66-22.49-21.67-.28-7.89 3.51-14.91 9.42-19.14z" fill="#ffdf7d"/></g>
</symbol>

<symbol id="icon-done" viewBox="0 0 24 24">
<path d="M0 0h24v24H0V0z" fill="none"/><path d="M9 16.2l-3.5-3.5c-.39-.39-1.01-.39-1.4 0-.39.39-.39 1.01 0 1.4l4.19 4.19c.39.39 1.02.39 1.41 0L20.3 7.7c.39-.39.39-1.01 0-1.4-.39-.39-1.01-.39-1.4 0L9 16.2z"/>
</symbol>

<symbol id='icon-account-user' viewBox="0 0 24 24">
<path d="M0 0h24v24H0z" fill="none"/><path d="M12 2C6.48 2 2 6.48 2 12s4.48 10 10 10 10-4.48 10-10S17.52 2 12 2zm0 3c1.66 0 3 1.34 3 3s-1.34 3-3 3-3-1.34-3-3 1.34-3 3-3zm0 14.2c-2.5 0-4.71-1.28-6-3.22.03-1.99 4-3.08 6-3.08 1.99 0 5.97 1.09 6 3.08-1.29 1.94-3.5 3.22-6 3.22z"/>
</symbol>

</defs>
</svg>
