<svg xmlns="http://www.w3.org/2000/svg" xmlns:xlink="http://www.w3.org/1999/xlink" viewBox="0 0 47.94 57.61"><defs><style>.cls-1{fill:none;}.cls-2{clip-path:url(#clip-path);}.cls-3{fill:#f4f4f4;}</style><clipPath id="clip-path" transform="translate(-0.03 0.01)"><rect class="cls-1" width="48" height="57.6"/></clipPath></defs><g id="圖層_2" data-name="圖層 2"><g id="圖層_1-2" data-name="圖層 1"><g id="Group_391" data-name="Group 391"><g id="Group_390" data-name="Group 390"><g class="cls-2"><g id="Group_389" data-name="Group 389"><path id="Path_2998" data-name="Path 2998" class="cls-3" d="M24,57.6A24,24,0,0,0,26.88,9.78V8.63a4.8,4.8,0,1,0-6.72-1,4.6,4.6,0,0,0,1,1V9.78A24,24,0,0,0,24,57.6ZM24,1.92a2.88,2.88,0,0,1,2.49,4.33A2.37,2.37,0,0,0,26,5.66a2.85,2.85,0,0,0-4.52.59A2.88,2.88,0,0,1,24,1.92ZM23,7.68a1,1,0,0,1,1-1,1,1,0,0,1,1,1V9.62l-1,0-1,0Zm1,3.84A22.08,22.08,0,1,1,1.92,33.6h0A22.08,22.08,0,0,1,24,11.52Z" transform="translate(-0.03 0.01)"/></g></g></g><path id="Path_2999" data-name="Path 2999" class="cls-3" d="M24,53.76A20.16,20.16,0,1,0,3.84,33.6,20.16,20.16,0,0,0,24,53.76Zm0-38.4A18.24,18.24,0,1,1,5.76,33.6h0A18.24,18.24,0,0,1,24,15.36Z" transform="translate(-0.03 0.01)"/><path id="Path_3000" data-name="Path 3000" class="cls-3" d="M19,40.18l-3.22,5.59a1,1,0,1,0,1.66,1l3.17-5.5,1.86,7.5a1.59,1.59,0,0,0,3.08,0l1.86-7.49,3.17,5.5a1,1,0,1,0,1.66-1h0L29,40.11,36.69,42a1.5,1.5,0,0,0,.37,0,1.59,1.59,0,0,0,1.57-1.59,1.62,1.62,0,0,0-.53-1.17l-3.46-3.09c.18,0,.36-.06.54-.11l4.2-1.2a1.34,1.34,0,0,0,.9-1.65,1.33,1.33,0,0,0-.91-.9l-4.2-1.2c-.21-.06-.42-.09-.63-.14l3.52-3.2a1.55,1.55,0,0,0,.33-1.9,1.58,1.58,0,0,0-1.79-.8L29.15,27l3.35-5.36a1,1,0,1,0-1.61-1.05l0,0L27.44,26.1l-1.9-7.63a1.58,1.58,0,0,0-3.07,0l-1.9,7.62-3.43-5.49a1,1,0,0,0-1.32-.33,1,1,0,0,0-.34,1.31l0,0,3.4,5.44-7.58-1.86A1.58,1.58,0,0,0,9.9,27.93L13.36,31l-.53.1-4.2,1.2a1.33,1.33,0,0,0,0,2.56l4.19,1.2c.21.06.43.09.64.13l-3.53,3.2a1.59,1.59,0,0,0-.09,2.24,1.62,1.62,0,0,0,1.17.51,1.58,1.58,0,0,0,.38,0Zm5-12.34a5.79,5.79,0,0,1,5,2.88H26.51a3.76,3.76,0,0,0-5,0H19a5.79,5.79,0,0,1,5-2.88Zm1.92,5.76A1.92,1.92,0,1,1,24,31.68a1.92,1.92,0,0,1,1.92,1.92Zm-4.43,2.88a3.76,3.76,0,0,0,5,0H29a5.72,5.72,0,0,1-9.94,0ZM24,47l-1.45-5.83a6.75,6.75,0,0,0,2.9,0Zm6-8.57a7.56,7.56,0,0,0,1.11-1.9h1L35.8,39.8Zm6.87-4.78-2.2.63a8.78,8.78,0,0,1-2.39.33H27.7a3.48,3.48,0,0,0,0-1.92h4.56a8.66,8.66,0,0,1,2.38.33ZM32,30.72H31.1a7.6,7.6,0,0,0-1.17-1.95l5.83-1.49ZM24,20.26l1.45,5.82a6.75,6.75,0,0,0-2.9,0Zm-6,8.57a7.55,7.55,0,0,0-1.12,1.9h-1L12.2,27.4ZM11.15,33.6l2.2-.63a8.76,8.76,0,0,1,2.38-.33H20.3a3.48,3.48,0,0,0,0,1.92H15.73a8.64,8.64,0,0,1-2.37-.33ZM16,36.48h.87a7.46,7.46,0,0,0,1.16,2l-5.82,1.48Z" transform="translate(-0.03 0.01)"/></g></g></g></svg>