<?xml version="1.0" encoding="utf-8"?>
<!-- Generator: Adobe Illustrator 25.2.1, SVG Export Plug-In . SVG Version: 6.00 Build 0)  -->
<svg version="1.1" id="圖層_1" xmlns="http://www.w3.org/2000/svg" xmlns:xlink="http://www.w3.org/1999/xlink" x="0px" y="0px"
	 viewBox="0 0 38.9 38.9" style="enable-background:new 0 0 38.9 38.9;" xml:space="preserve">
<style type="text/css">
	.st0{fill:#FCFCFC;}
</style>
<g id="圖層_2_1_">
	<g id="圖層_1-2">
		<g id="browser-user_interface-interface-internet-content">
			<path id="Path_3008" class="st0" d="M38.3,0H0.6C0.3,0,0,0.3,0,0.6l0,0l0,0v37.6c0,0.4,0.3,0.7,0.6,0.7l0,0h37.6
				c0.4,0,0.6-0.3,0.6-0.7V0.6C38.9,0.3,38.6,0,38.3,0L38.3,0z M37.6,37.6H1.3V6.5h36.3V37.6z M37.6,5.2H1.3V1.3h36.3V5.2z"/>
			<path id="Path_3009" class="st0" d="M3.9,2.6H3.2c-0.4,0-0.6,0.3-0.6,0.6s0.3,0.7,0.6,0.7h0.6c0.4,0,0.7-0.3,0.7-0.7
				S4.2,2.6,3.9,2.6z"/>
			<path id="Path_3010" class="st0" d="M7.1,2.6H6.5c-0.4,0-0.7,0.3-0.7,0.6s0.3,0.7,0.7,0.7l0,0h0.6c0.4,0,0.7-0.3,0.7-0.7
				S7.5,2.6,7.1,2.6z"/>
			<path id="Path_3011" class="st0" d="M10.4,2.6H9.7c-0.4,0-0.6,0.3-0.6,0.6s0.3,0.7,0.6,0.7h0.6c0.4,0,0.6-0.3,0.6-0.7
				S10.7,2.6,10.4,2.6z"/>
			<path id="Path_3012" class="st0" d="M24,10.4h0.6c0.4,0,0.6-0.3,0.6-0.7s-0.3-0.6-0.6-0.6l0,0H24c-0.4,0-0.6,0.3-0.6,0.6
				C23.4,10.1,23.6,10.4,24,10.4z"/>
			<path id="Path_3013" class="st0" d="M34.4,19.5h-0.6c-0.4,0-0.6,0.3-0.6,0.7c0,0.4,0.3,0.6,0.6,0.6h0.6c0.4,0,0.6-0.3,0.6-0.7
				C35,19.8,34.7,19.5,34.4,19.5z"/>
			<path id="Path_3014" class="st0" d="M24,20.8h7.1c0.4,0,0.7-0.3,0.7-0.6c0-0.4-0.3-0.7-0.6-0.7l0,0H24c-0.4,0-0.6,0.3-0.6,0.7
				C23.4,20.5,23.6,20.7,24,20.8z"/>
			<path id="Path_3015" class="st0" d="M24,18.2h10.4c0.4,0,0.6-0.3,0.6-0.7c0-0.4-0.3-0.6-0.6-0.6H24c-0.4,0-0.6,0.3-0.6,0.7
				C23.4,17.9,23.6,18.2,24,18.2z"/>
			<path id="Path_3016" class="st0" d="M24,15.6h10.4c0.4,0,0.7-0.3,0.7-0.6c0-0.4-0.3-0.7-0.7-0.7H24c-0.4,0-0.6,0.3-0.6,0.7
				C23.4,15.3,23.6,15.6,24,15.6z"/>
			<path id="Path_3017" class="st0" d="M24,13h10.4c0.4,0,0.7-0.3,0.7-0.6c0-0.4-0.3-0.7-0.7-0.7H24c-0.4,0-0.6,0.3-0.6,0.7
				C23.4,12.7,23.6,13,24,13z"/>
			<path id="Path_3018" class="st0" d="M27.2,10.4h7.1c0.4,0,0.7-0.3,0.7-0.7s-0.3-0.6-0.7-0.6h-7.1c-0.4,0-0.6,0.3-0.6,0.6
				C26.6,10.1,26.9,10.4,27.2,10.4L27.2,10.4z"/>
			<path id="Path_3019" class="st0" d="M4.5,24.6h0.7c0.4,0,0.7-0.3,0.7-0.6c0-0.4-0.3-0.7-0.6-0.7l0,0H4.5c-0.4,0-0.7,0.3-0.7,0.6
				C3.9,24.4,4.2,24.6,4.5,24.6L4.5,24.6z"/>
			<path id="Path_3020" class="st0" d="M34.4,33.7h-0.6c-0.4,0-0.6,0.3-0.6,0.7s0.3,0.6,0.6,0.6h0.6c0.4,0,0.7-0.3,0.7-0.6
				C35,34,34.7,33.7,34.4,33.7L34.4,33.7z"/>
			<path id="Path_3021" class="st0" d="M4.5,35h26.6c0.4,0,0.7-0.3,0.7-0.6c0-0.4-0.3-0.7-0.6-0.7l0,0H4.5c-0.4,0-0.7,0.3-0.7,0.6
				C3.9,34.7,4.2,35,4.5,35L4.5,35z"/>
			<path id="Path_3022" class="st0" d="M4.5,32.4h29.8c0.4,0,0.7-0.3,0.7-0.6c0-0.4-0.3-0.7-0.6-0.7l0,0H4.5c-0.4,0-0.6,0.3-0.6,0.7
				C3.9,32.1,4.2,32.4,4.5,32.4z"/>
			<path id="Path_3023" class="st0" d="M4.5,29.8h29.8c0.4,0,0.6-0.3,0.6-0.7c0-0.4-0.3-0.6-0.6-0.6H4.5c-0.4,0-0.7,0.3-0.7,0.6
				C3.9,29.5,4.2,29.8,4.5,29.8L4.5,29.8z"/>
			<path id="Path_3024" class="st0" d="M4.5,27.2h29.8c0.4,0,0.6-0.3,0.6-0.7c0-0.4-0.3-0.6-0.6-0.6H4.5c-0.4,0-0.7,0.3-0.7,0.6
				C3.9,26.9,4.2,27.2,4.5,27.2L4.5,27.2z"/>
			<path id="Path_3025" class="st0" d="M34.4,23.4H7.8c-0.4,0-0.7,0.3-0.7,0.6c0,0.4,0.3,0.7,0.6,0.7l0,0h26.6
				c0.4,0,0.6-0.3,0.6-0.7C35,23.6,34.7,23.4,34.4,23.4z"/>
			<path id="Path_3026" class="st0" d="M20.1,9.1H4.5c-0.4,0-0.6,0.3-0.7,0.6v10.4c0,0.4,0.3,0.6,0.7,0.6h15.6
				c0.4,0,0.6-0.3,0.6-0.6l0,0V9.7C20.8,9.4,20.5,9.1,20.1,9.1L20.1,9.1z M5.8,19.5l4-6l4,6H5.8z M15.3,19.5l-0.8-1.2l1.7-2.3
				l2.6,3.5H15.3z M19.5,18.2l-2.7-3.6c-0.1-0.2-0.3-0.3-0.5-0.3s-0.4,0.1-0.5,0.3l-2,2.6L10.3,12c-0.2-0.3-0.6-0.4-0.9-0.1l0,0
				c-0.1,0-0.1,0.1-0.1,0.1l-4,6v-7.6h14.3L19.5,18.2z"/>
			<circle id="Ellipse_49" class="st0" cx="13.6" cy="13" r="1.3"/>
		</g>
	</g>
</g>
</svg>
