<svg xmlns="http://www.w3.org/2000/svg" xmlns:xlink="http://www.w3.org/1999/xlink" viewBox="0 0 38.91 38.92"><defs><style>.cls-1{}.cls-2{clip-path:url(#clip-path);}.cls-3{}</style><clipPath id="clip-path" transform="translate(-0.45 -0.38)"><rect class="cls-1" width="39" height="39"/></clipPath></defs><g id="圖層_2" data-name="圖層 2"><g id="圖層_1-2" data-name="圖層 1"><g id="Group_385" data-name="Group 385"><g id="Group_384" data-name="Group 384"><g class="cls-2"><g id="Group_383" data-name="Group 383"><path id="Path_2992" data-name="Path 2992" class="cls-3" d="M21.94,6.87a1.27,1.27,0,0,0-1.11-.64h-.27V4.75a1.3,1.3,0,0,0,.65-1.12V2.33a1.3,1.3,0,0,0-.65-1.12V1a.65.65,0,1,0-1.3,0H16.34a1,1,0,0,0-1,1,1,1,0,0,0,.28.68l.29.29-.29.28a1,1,0,0,0,0,1.38,1,1,0,0,0,.69.29h2.92v1.3H19a1.3,1.3,0,0,0-1.12.65l-.76,1.35a1.94,1.94,0,0,0-1.84,3.24L.62,37.36A1.3,1.3,0,0,0,1.75,39.3H38.07A1.29,1.29,0,0,0,39.36,38a1.37,1.37,0,0,0-.16-.63ZM17.13,2.33h2.78v1.3H17.12a1,1,0,0,0,0-1.3Zm3.69,5.19,5,8.79-.92,1.19L23.66,16a1.16,1.16,0,0,0-1-.44,1.19,1.19,0,0,0-.94.5l-.3.41-3.1-5.36a1.89,1.89,0,0,0-.15-2.14L19,7.53Zm-.81,11L18.2,15.58a1.19,1.19,0,0,0-1.64-.38,1,1,0,0,0-.3.27L15.05,17l-.84-1,2.23-4,.23,0a1.79,1.79,0,0,0,.68-.13l3.28,5.67Zm-3.34-9a.65.65,0,1,1-.65.65A.65.65,0,0,1,16.67,9.47Zm-3.14,7.72.62.72a1.12,1.12,0,0,0,.92.42,1.16,1.16,0,0,0,.91-.45l1.21-1.5,1.8,2.9a1.19,1.19,0,0,0,1,.56h0a1.18,1.18,0,0,0,1-.5l.36-.51,1,1.7a2,2,0,0,0-.46,1.14L16.3,23.25A1.95,1.95,0,1,0,15.82,26l6.78,5a.88.88,0,0,0-.05.15l-6.1.82a1.94,1.94,0,0,0-3.67.88,2,2,0,0,0,.19.84L8.62,38H1.75Zm10.28,3.95a.65.65,0,1,1-.65.65h0A.65.65,0,0,1,23.81,21.14Zm-8.43,3.24a.65.65,0,1,1-.65-.65h0a.65.65,0,0,1,.65.65Zm-1.3,8.43a.65.65,0,1,1,.65.65h0A.65.65,0,0,1,14.08,32.81ZM10.46,38l3.44-3.44a1.82,1.82,0,0,0,.83.2,2,2,0,0,0,1.9-1.54l6.1-.82a1.94,1.94,0,1,0,.84-2.62,1.07,1.07,0,0,0-.21.13l-6.78-5a2.17,2.17,0,0,0,.08-.43l5.56-1.59a2,2,0,0,0,3.19-2.25,1.93,1.93,0,0,0-2-.79l-1.28-2.2.56-.79,1.21,1.52a1.17,1.17,0,0,0,.93.45,1.21,1.21,0,0,0,.95-.46l.67-.86L38.08,38ZM23.8,31.52a.65.65,0,1,1,.65.64h0a.65.65,0,0,1-.65-.64Z" transform="translate(-0.45 -0.38)"/></g></g></g><path id="Path_2993" data-name="Path 2993" class="cls-3" d="M34.18,36.38a.65.65,0,1,0,1.12-.64h0l-4.93-8.46a.65.65,0,1,0-1.12.66Z" transform="translate(-0.45 -0.38)"/><path id="Path_2994" data-name="Path 2994" class="cls-3" d="M29.16,25.44a.65.65,0,1,1-.65-.65h0a.65.65,0,0,1,.65.65Z" transform="translate(-0.45 -0.38)"/></g></g></g></svg>