<svg xmlns="http://www.w3.org/2000/svg" viewBox="0 0 39.21 39.4"><defs><style>.cls-1{fill:#fff;stroke:#fff;stroke-miterlimit:10;stroke-width:0.3px;}</style></defs><g id="圖層_2" data-name="圖層 2"><g id="圖層_1-2" data-name="圖層 1"><g id="Group_383" data-name="Group 383"><path id="Path_2992" data-name="Path 2992" class="cls-1" d="M21.9,6.69A1.25,1.25,0,0,0,20.8,6h-.27V4.56a1.31,1.31,0,0,0,.66-1.12V2.14A1.29,1.29,0,0,0,20.57,1V.81a.64.64,0,0,0-.64-.66.66.66,0,0,0-.66.64h0l-2.92,0a1,1,0,0,0-1,1,.94.94,0,0,0,.27.68l.29.3-.3.27a1,1,0,0,0,.68,1.68l2.92,0V6H19a1.32,1.32,0,0,0-1.13.64L17.07,8a1.94,1.94,0,0,0-2.35,1.41,2,2,0,0,0,.48,1.81L.32,37A1.31,1.31,0,0,0,.8,38.77a1.28,1.28,0,0,0,.64.17l36.32.31A1.28,1.28,0,0,0,39.06,38h0a1.44,1.44,0,0,0-.16-.64ZM17.13,2.11l2.78,0v1.3l-2.79,0a1,1,0,0,0,0-1.3Zm3.65,5.22,4.92,8.83-.93,1.18-1.22-1.51a1.2,1.2,0,0,0-1-.45,1.16,1.16,0,0,0-.94.5l-.31.4L18.25,10.9a1.9,1.9,0,0,0-.13-2.14L19,7.32Zm-.91,11-1.78-3a1.19,1.19,0,0,0-1.64-.4h0a1,1,0,0,0-.3.27l-1.22,1.52-.83-1,2.26-4h.23a1.78,1.78,0,0,0,.68-.12l3.23,5.7Zm-3.26-9a.66.66,0,0,1,.65.66.65.65,0,0,1-.66.64A.63.63,0,0,1,16,9.94h0a.65.65,0,0,1,.6-.7h.05ZM13.41,17l.61.72a1.13,1.13,0,0,0,.92.43,1.16,1.16,0,0,0,.91-.44l1.22-1.49,1.78,2.91a1.19,1.19,0,0,0,1,.57h0a1.18,1.18,0,0,0,1-.49l.36-.51,1,1.71a1.93,1.93,0,0,0-.47,1.14L16.12,23a1.95,1.95,0,1,0-.5,2.74l6.74,5.06a.88.88,0,0,0-.05.15l-6.11.77a1.94,1.94,0,0,0-3.68.85,1.88,1.88,0,0,0,.19.84L8.32,37.7l-6.87-.06Zm10.24,4a.66.66,0,0,1,.65.66.65.65,0,0,1-.66.64.63.63,0,0,1-.64-.65h0a.65.65,0,0,1,.6-.7h0Zm-8.46,3.17a.65.65,0,0,1-.65.65.66.66,0,0,1-.65-.66.65.65,0,0,1,.66-.64h0A.63.63,0,0,1,15.19,24.19Zm-1.37,8.42a.65.65,0,0,1,.66-.64.63.63,0,0,1,.64.65.65.65,0,0,1-.65.65h0a.66.66,0,0,1-.65-.66v0Zm-3.66,5.11,3.47-3.41a2,2,0,0,0,.83.21A2,2,0,0,0,16.37,33l6.11-.77a1.94,1.94,0,1,0,.86-2.61,1.07,1.07,0,0,0-.21.13l-6.74-5.06a2,2,0,0,0,.08-.43l5.58-1.54a2,2,0,0,0,3.21-2.22,1.94,1.94,0,0,0-2-.81L22,17.47l.57-.79,1.2,1.53a1.16,1.16,0,0,0,.92.46,1.21,1.21,0,0,0,1-.45l.67-.85L37.78,38Zm13.39-6.37a.65.65,0,0,1,.65-.65.65.65,0,0,1,0,1.3h0A.66.66,0,0,1,23.55,31.35Z"/></g><path id="Path_2993" data-name="Path 2993" class="cls-1" d="M34.28,36.58a.65.65,0,0,0,.85.35.64.64,0,0,0,.35-.85.5.5,0,0,0-.08-.14h0l-4.93-8.46a.65.65,0,1,0-1.12.66h0Z"/><path id="Path_2994" data-name="Path 2994" class="cls-1" d="M29.26,25.64a.65.65,0,1,1-.65-.65h0A.65.65,0,0,1,29.26,25.64Z"/></g></g></svg>