<svg xmlns="http://www.w3.org/2000/svg" xmlns:xlink="http://www.w3.org/1999/xlink" viewBox="0 0 38.71 50.48"><defs><style>.cls-1{fill:none;}.cls-2{clip-path:url(#clip-path);}.cls-3{fill:#fff;}</style><clipPath id="clip-path" transform="translate(-0.1 0)"><rect class="cls-1" width="38.91" height="50.48"/></clipPath></defs><g id="圖層_2" data-name="圖層 2"><g id="圖層_1-2" data-name="圖層 1"><g id="Group_388" data-name="Group 388"><g id="Group_387" data-name="Group 387"><g class="cls-2"><g id="Group_386" data-name="Group 386"><path id="Path_2995" data-name="Path 2995" class="cls-3" d="M19.46,32.81A13.46,13.46,0,1,0,6,19.35,13.46,13.46,0,0,0,19.46,32.81Zm0-1.68a11.75,11.75,0,0,1-7.29-2.54l18.32-5.16A11.79,11.79,0,0,1,19.46,31.13ZM16.93,12.62a.85.85,0,1,1,.84.84.85.85,0,0,1-.84-.84Zm4.8,11.53-.46-1.85a2.6,2.6,0,0,0-1.05-1.49l-1.61-1.07V17.82l.4.27a2.52,2.52,0,0,0,2.53.15l.9-.45,1.07,5.86Zm-4.8-9v4.2H15.25a.84.84,0,0,1-.84-.84h0V16a.84.84,0,0,1,.84-.84h1.68Zm1.69,8v-1.4l.67.44a1,1,0,0,1,.36.5l.47,1.89-2.24.63.47-.94a2.47,2.47,0,0,0,.27-1.13Zm.84-15.59A11.75,11.75,0,0,1,31.24,19.29,12.08,12.08,0,0,1,31,21.54l-5.89,1.65L24,17h0a.83.83,0,0,0,.38-1.12h0a.84.84,0,0,0-.69-.45L23.65,15a.84.84,0,0,0-1.66.24.13.13,0,0,0,0,.06l.14.77-1.34.67a.82.82,0,0,1-.84,0l-1.34-.89V15a2.54,2.54,0,1,0-3.23-1.57v.05h-.15A2.52,2.52,0,0,0,12.73,16h0v2.52A2.52,2.52,0,0,0,15.25,21h1.68v2.13a.8.8,0,0,1-.08.37l-1.16,2.31-4.95,1.4A11.76,11.76,0,0,1,19.46,7.58Z" transform="translate(-0.1 0)"/><path id="Path_2996" data-name="Path 2996" class="cls-3" d="M1.45,16.35A4,4,0,0,0,1.12,22q.15.16.33.33a5.39,5.39,0,0,1,.93,1.57,5.77,5.77,0,0,1,0,1.9,3.93,3.93,0,0,0,2.49,5,4.05,4.05,0,0,0,.47.12A5.48,5.48,0,0,1,7,31.84a2.84,2.84,0,0,1,.41.57L3.53,46.06a1.68,1.68,0,0,0,1.94,2.1l3.79-.72L12.11,50a1.68,1.68,0,0,0,2.38-.11,1.64,1.64,0,0,0,.38-.68l3.07-10.94a3.12,3.12,0,0,0,3,0L24,49.24a1.67,1.67,0,0,0,2.07,1.17,1.62,1.62,0,0,0,.68-.37l2.85-2.6,3.8.72a1.68,1.68,0,0,0,2-1.34,1.63,1.63,0,0,0,0-.76L31.54,32.42a2.58,2.58,0,0,1,.41-.57,5.48,5.48,0,0,1,1.63-.92,4,4,0,0,0,3.09-4.64c0-.16-.08-.31-.13-.46a5.83,5.83,0,0,1,0-1.91,5.66,5.66,0,0,1,.93-1.57,4,4,0,0,0,.33-5.68,3.43,3.43,0,0,0-.33-.33,5.52,5.52,0,0,1-.93-1.57,5.51,5.51,0,0,1,0-1.9,3.94,3.94,0,0,0-2.5-5,3.9,3.9,0,0,0-.46-.12A3.49,3.49,0,0,1,31,5.23,3.94,3.94,0,0,0,26.4,2.14a4.12,4.12,0,0,0-.47.13,5.77,5.77,0,0,1-1.9,0,5.66,5.66,0,0,1-1.57-.93A4,4,0,0,0,16.78,1a2.57,2.57,0,0,0-.33.33,5.66,5.66,0,0,1-1.57.93,5.77,5.77,0,0,1-1.9,0A3.92,3.92,0,0,0,8,4.76a3.59,3.59,0,0,0-.12.47A3.52,3.52,0,0,1,5.33,7.78a3.93,3.93,0,0,0-3.08,4.63,3.59,3.59,0,0,0,.12.47,5.77,5.77,0,0,1,0,1.9,5.42,5.42,0,0,1-.94,1.57ZM13.25,48.8l-2.78-2.52.88-3.14a.84.84,0,0,0-1.62-.45l-.88,3.13-3.7.7L8.47,34.71a3.65,3.65,0,0,0,1.3,1.4,3.44,3.44,0,0,0,1.69.42l-.79,2.79a.85.85,0,0,0,.58,1,.91.91,0,0,0,.23,0,.84.84,0,0,0,.81-.61l1-3.37a5,5,0,0,1,1.63,0,5.61,5.61,0,0,1,1.58.94h0Zm16.81-3-.88-3.14a.84.84,0,0,0-1.06-.54.83.83,0,0,0-.56,1l.88,3.13L25.66,48.8,22.45,37.36h0A5.66,5.66,0,0,1,24,36.42a4.75,4.75,0,0,1,1.64,0l.95,3.36a.84.84,0,1,0,1.63-.4.43.43,0,0,0,0,0l-.79-2.79a3.56,3.56,0,0,0,1.69-.42,3.67,3.67,0,0,0,1.3-1.41l3.32,11.82ZM2.81,17.35A6.74,6.74,0,0,0,4,15.21a7.11,7.11,0,0,0,0-2.52A2.4,2.4,0,0,1,5.25,9.52,2.2,2.2,0,0,1,6,9.32,5,5,0,0,0,9.42,5.9,2.4,2.4,0,0,1,12,3.74a2.45,2.45,0,0,1,.75.2,7.11,7.11,0,0,0,2.52,0,6.74,6.74,0,0,0,2.14-1.2,2.47,2.47,0,0,1,3.46-.55,2.39,2.39,0,0,1,.55.55,6.69,6.69,0,0,0,2.13,1.2,7.17,7.17,0,0,0,2.53,0,2.4,2.4,0,0,1,3.17,1.21,2.77,2.77,0,0,1,.2.75A5,5,0,0,0,32.9,9.32a2.4,2.4,0,0,1,2.16,2.62,2.45,2.45,0,0,1-.2.75,7.17,7.17,0,0,0,0,2.53,7,7,0,0,0,1.2,2.13,2.47,2.47,0,0,1,.55,3.46,2.21,2.21,0,0,1-.55.55,6.89,6.89,0,0,0-1.2,2.13,7.17,7.17,0,0,0,0,2.53,2.4,2.4,0,0,1-2,3.37,5,5,0,0,0-3.41,3.42A2.41,2.41,0,0,1,26.87,35a2.14,2.14,0,0,1-.75-.2,6.94,6.94,0,0,0-2.53,0A6.51,6.51,0,0,0,21.46,36a2.48,2.48,0,0,1-3.47.54,2.56,2.56,0,0,1-.55-.54,6.51,6.51,0,0,0-2.13-1.2,4.34,4.34,0,0,0-1.14-.14,12.81,12.81,0,0,0-1.38.1,2.4,2.4,0,0,1-3.17-1.21,2.14,2.14,0,0,1-.2-.75A5,5,0,0,0,6,29.39a2.4,2.4,0,0,1-2.15-2.63,2.47,2.47,0,0,1,.2-.74A6.89,6.89,0,0,0,4,23.5a6.55,6.55,0,0,0-1.2-2.14,2.48,2.48,0,0,1-.55-3.46,2.61,2.61,0,0,1,.55-.55Z" transform="translate(-0.1 0)"/></g></g></g><path id="Path_2997" data-name="Path 2997" class="cls-3" d="M24.08,27l-4,1.13a.84.84,0,0,0,.23,1.65.91.91,0,0,0,.23,0l4-1.13A.84.84,0,0,0,24.08,27Z" transform="translate(-0.1 0)"/></g></g></g></svg>