<svg xmlns="http://www.w3.org/2000/svg" viewBox="0 0 38.91 38.91"><defs><style>.cls-1{fill:#fff;}</style></defs><g id="圖層_2" data-name="圖層 2"><g id="圖層_1-2" data-name="圖層 1"><g id="browser-user_interface-interface-internet-content" data-name="browser-user interface-interface-internet-content"><path id="Path_3008" data-name="Path 3008" class="cls-1" d="M38.26,0H.65A.65.65,0,0,0,0,.65H0V38.26a.65.65,0,0,0,.65.65H38.27a.65.65,0,0,0,.64-.65V.65A.65.65,0,0,0,38.26,0Zm-.64,37.62H1.3V6.48H37.62Zm0-32.43H1.3V1.3H37.62Z"/><path id="Path_3009" data-name="Path 3009" class="cls-1" d="M3.89,2.59H3.24a.65.65,0,1,0,0,1.3h.65a.65.65,0,0,0,0-1.3Z"/><path id="Path_3010" data-name="Path 3010" class="cls-1" d="M7.13,2.59H6.49a.65.65,0,0,0,0,1.3h.64a.65.65,0,0,0,0-1.3Z"/><path id="Path_3011" data-name="Path 3011" class="cls-1" d="M10.38,2.59H9.73a.65.65,0,0,0,0,1.3h.65a.65.65,0,1,0,0-1.3Z"/><path id="Path_3012" data-name="Path 3012" class="cls-1" d="M24,10.38h.64a.65.65,0,0,0,0-1.3H24a.65.65,0,1,0,0,1.3Z"/><path id="Path_3013" data-name="Path 3013" class="cls-1" d="M34.37,19.46h-.64a.65.65,0,0,0,0,1.3h.64a.65.65,0,0,0,0-1.3Z"/><path id="Path_3014" data-name="Path 3014" class="cls-1" d="M24,20.75h7.13a.65.65,0,1,0,0-1.3H24a.65.65,0,0,0,0,1.3Z"/><path id="Path_3015" data-name="Path 3015" class="cls-1" d="M24,18.16H34.37a.65.65,0,0,0,0-1.3H24a.65.65,0,0,0,0,1.3Z"/><path id="Path_3016" data-name="Path 3016" class="cls-1" d="M24,15.57H34.37a.65.65,0,1,0,0-1.3H24a.65.65,0,1,0,0,1.3Z"/><path id="Path_3017" data-name="Path 3017" class="cls-1" d="M24,13H34.37a.65.65,0,1,0,0-1.3H24A.65.65,0,1,0,24,13Z"/><path id="Path_3018" data-name="Path 3018" class="cls-1" d="M27.24,10.38h7.13a.65.65,0,1,0,0-1.3H27.24a.65.65,0,1,0,0,1.3Z"/><path id="Path_3019" data-name="Path 3019" class="cls-1" d="M4.54,24.65h.65a.65.65,0,1,0,0-1.3H4.54a.65.65,0,1,0,0,1.3Z"/><path id="Path_3020" data-name="Path 3020" class="cls-1" d="M34.37,33.73h-.64a.65.65,0,0,0,0,1.3h.64a.65.65,0,1,0,0-1.3Z"/><path id="Path_3021" data-name="Path 3021" class="cls-1" d="M4.54,35H31.13a.65.65,0,1,0,0-1.3H4.54a.65.65,0,1,0,0,1.3Z"/><path id="Path_3022" data-name="Path 3022" class="cls-1" d="M4.54,32.43H34.37a.65.65,0,1,0,0-1.3H4.54a.65.65,0,0,0,0,1.3Z"/><path id="Path_3023" data-name="Path 3023" class="cls-1" d="M4.54,29.83H34.37a.65.65,0,0,0,0-1.3H4.54a.65.65,0,1,0,0,1.3Z"/><path id="Path_3024" data-name="Path 3024" class="cls-1" d="M4.54,27.24H34.37a.65.65,0,0,0,0-1.3H4.54a.65.65,0,1,0,0,1.3Z"/><path id="Path_3025" data-name="Path 3025" class="cls-1" d="M34.37,23.35H7.78a.65.65,0,1,0,0,1.3H34.37a.65.65,0,0,0,0-1.3Z"/><path id="Path_3026" data-name="Path 3026" class="cls-1" d="M20.1,9.08H4.54a.65.65,0,0,0-.65.65V20.1a.65.65,0,0,0,.65.65H20.11a.64.64,0,0,0,.64-.64h0V9.73a.65.65,0,0,0-.64-.65ZM5.75,19.45l4-6,4,6Zm9.52,0-.78-1.16L16.21,16l2.6,3.46Zm4.19-1.3-2.73-3.63a.65.65,0,0,0-.52-.26.68.68,0,0,0-.52.26l-2,2.63L10.27,12a.67.67,0,0,0-.94-.14.93.93,0,0,0-.14.14l-4,6V10.37H19.46Z"/><circle id="Ellipse_49" data-name="Ellipse 49" class="cls-1" cx="13.62" cy="12.97" r="1.3"/></g></g></g></svg>