<svg xmlns="http://www.w3.org/2000/svg" width="32.981" height="32.981" viewBox="0 0 32.981 32.981">
  <path id="Icon_awesome-plus-circle" data-name="Icon awesome-plus-circle" d="M17.053.562A16.491,16.491,0,1,0,33.544,17.053,16.488,16.488,0,0,0,17.053.562Zm9.575,18.353a.8.8,0,0,1-.8.8H19.713v6.118a.8.8,0,0,1-.8.8H15.191a.8.8,0,0,1-.8-.8V19.713H8.276a.8.8,0,0,1-.8-.8V15.191a.8.8,0,0,1,.8-.8h6.118V8.276a.8.8,0,0,1,.8-.8h3.724a.8.8,0,0,1,.8.8v6.118h6.118a.8.8,0,0,1,.8.8Z" transform="translate(-0.563 -0.563)" fill="#123132"/>
</svg>
