<svg xmlns="http://www.w3.org/2000/svg" width="24.095" height="23.09" viewBox="0 0 24.095 23.09">
  <g id="Icon_feather-shopping-cart" data-name="Icon feather-shopping-cart" transform="translate(-0.5 -0.5)">
    <path id="Path_3080" data-name="Path 3080" d="M14.009,31a1,1,0,1,1-1-1A1,1,0,0,1,14.009,31Z" transform="translate(-3.47 -9.418)" fill="none" stroke="#707070" stroke-linecap="round" stroke-linejoin="round" stroke-width="2"/>
    <path id="Path_3081" data-name="Path 3081" d="M30.509,31a1,1,0,1,1-1-1A1,1,0,0,1,30.509,31Z" transform="translate(-8.922 -9.418)" fill="none" stroke="#707070" stroke-linecap="round" stroke-linejoin="round" stroke-width="2"/>
    <path id="Path_3082" data-name="Path 3082" d="M1.5,1.5H5.517L8.209,14.948a2.009,2.009,0,0,0,2.009,1.617h9.762a2.009,2.009,0,0,0,2.009-1.617l1.607-8.426H6.522" transform="translate(0 0)" fill="none" stroke="#707070" stroke-linecap="round" stroke-linejoin="round" stroke-width="2"/>
  </g>
</svg>
