<?xml version="1.0" encoding="utf-8"?>
<!-- Generator: Adobe Illustrator 25.2.1, SVG Export Plug-In . SVG Version: 6.00 Build 0)  -->
<svg version="1.1" id="圖層_1" xmlns="http://www.w3.org/2000/svg" xmlns:xlink="http://www.w3.org/1999/xlink" x="0px" y="0px"
	 viewBox="0 0 38.9 38.9" style="enable-background:new 0 0 38.9 38.9;" xml:space="preserve">
<style type="text/css">
	.st0{clip-path:url(#SVGID_2_);}
	.st1{fill:#FFFFFF;}
</style>
<g>
	<g>
		<defs>
			<rect id="SVGID_1_" x="0" y="0" width="39" height="39"/>
		</defs>
		<clipPath id="SVGID_2_">
			<use xlink:href="#SVGID_1_"  style="overflow:visible;"/>
		</clipPath>
		<g class="st0">
			<g id="Group_383">
				<path id="Path_2992" class="st1" d="M21.9,6.8c-0.2-0.4-0.7-0.6-1.1-0.6h-0.3V4.7c0.4-0.2,0.6-0.7,0.6-1.1V2.3
					c0-0.5-0.2-0.9-0.6-1.1V1c0-0.4-0.3-0.7-0.6-0.7c-0.4,0-0.7,0.3-0.7,0.6c0,0,0,0,0,0h-2.9c-0.6,0-1,0.4-1,1
					c0,0.3,0.1,0.5,0.3,0.7l0.3,0.3l-0.3,0.3c-0.4,0.4-0.4,1,0,1.4c0.2,0.2,0.4,0.3,0.7,0.3h2.9v1.3H19c-0.5,0-0.9,0.2-1.1,0.7
					l-0.8,1.3c-1-0.2-2.1,0.4-2.3,1.4c-0.2,0.6,0,1.3,0.5,1.8L0.6,37.3c-0.4,0.6-0.1,1.4,0.5,1.8c0.2,0.1,0.4,0.2,0.6,0.2H38
					c0.7,0,1.3-0.6,1.3-1.3c0,0,0,0,0,0c0-0.2-0.1-0.4-0.2-0.6L21.9,6.8z M17.1,2.3h2.8v1.3h-2.8C17.4,3.2,17.4,2.7,17.1,2.3
					L17.1,2.3z M20.8,7.5l5,8.8l-0.9,1.2L23.6,16c-0.2-0.3-0.6-0.5-1-0.4c-0.4,0-0.7,0.2-0.9,0.5l-0.3,0.4l-3.1-5.4
					c0.4-0.7,0.3-1.5-0.1-2.1L19,7.5L20.8,7.5z M20,18.5l-1.8-2.9c-0.3-0.6-1.1-0.7-1.6-0.4c0,0,0,0,0,0c-0.1,0.1-0.2,0.2-0.3,0.3
					L15,17l-0.8-1l2.2-4h0.2c0.2,0,0.5,0,0.7-0.1l3.3,5.7L20,18.5z M16.6,9.5c0.4,0,0.6,0.3,0.6,0.6s-0.3,0.7-0.6,0.7
					c-0.4,0-0.6-0.3-0.6-0.6c0,0,0,0,0,0C15.9,9.8,16.2,9.5,16.6,9.5C16.6,9.4,16.6,9.4,16.6,9.5L16.6,9.5z M13.5,17.2l0.6,0.7
					c0.2,0.3,0.6,0.4,0.9,0.4c0.4,0,0.7-0.2,0.9-0.5l1.2-1.5l1.8,2.9c0.2,0.3,0.6,0.6,1,0.6l0,0c0.4,0,0.8-0.2,1-0.5l0.4-0.5l1,1.7
					c-0.3,0.3-0.4,0.7-0.5,1.1l-5.6,1.5c-0.6-0.9-1.8-1.1-2.7-0.4c-0.9,0.6-1.1,1.8-0.4,2.7c0.6,0.9,1.8,1.1,2.7,0.5l6.8,5
					c0,0,0,0.1,0,0.1l-6.1,0.8c-0.5-1-1.7-1.3-2.6-0.9c-0.7,0.3-1.1,1-1.1,1.7c0,0.3,0.1,0.6,0.2,0.8L8.6,38H1.7L13.5,17.2z
					 M23.8,21.1c0.4,0,0.6,0.3,0.6,0.6s-0.3,0.6-0.6,0.6c-0.4,0-0.6-0.3-0.6-0.6l0,0l0,0C23.1,21.4,23.4,21.1,23.8,21.1
					C23.7,21.1,23.7,21.1,23.8,21.1L23.8,21.1z M15.3,24.4c0,0.4-0.3,0.6-0.6,0.6S14,24.7,14,24.4c0-0.4,0.3-0.6,0.6-0.6
					c0,0,0,0,0,0l0,0C15,23.7,15.3,24,15.3,24.4z M14,32.8c0-0.4,0.3-0.6,0.7-0.6s0.6,0.3,0.6,0.7c0,0.4-0.3,0.6-0.7,0.6l0,0
					C14.3,33.5,14,33.2,14,32.8C14,32.8,14,32.8,14,32.8L14,32.8z M10.4,38l3.4-3.4c0.3,0.1,0.5,0.2,0.8,0.2c0.9,0,1.7-0.7,1.9-1.5
					l6.1-0.8c0.5,1,1.7,1.3,2.6,0.8c1-0.5,1.3-1.7,0.8-2.6c-0.5-0.9-1.7-1.3-2.6-0.8c-0.1,0-0.1,0.1-0.2,0.1l-6.8-5
					c0-0.1,0.1-0.3,0.1-0.4l5.6-1.6c0.8,0.7,2.1,0.7,2.8-0.1c0.5-0.6,0.7-1.4,0.4-2.1c-0.4-0.6-1.2-1-2-0.8l-1.3-2.2l0.6-0.8
					l1.2,1.5c0.2,0.3,0.6,0.5,0.9,0.5c0.4,0,0.7-0.2,1-0.5l0.7-0.9L38,38H10.4z M23.8,31.5c0-0.4,0.3-0.7,0.6-0.7
					c0.4,0,0.7,0.3,0.7,0.6c0,0.4-0.3,0.7-0.6,0.7c0,0,0,0,0,0l0,0C24,32.1,23.8,31.8,23.8,31.5z"/>
			</g>
		</g>
	</g>
	<path id="Path_2993" class="st1" d="M34.1,36.3c0.1,0.3,0.5,0.5,0.8,0.4c0.3-0.1,0.5-0.5,0.4-0.8c0,0,0-0.1-0.1-0.1l0,0l-4.9-8.5
		c-0.2-0.3-0.6-0.4-0.9-0.2c-0.3,0.2-0.4,0.6-0.2,0.9l0,0L34.1,36.3z"/>
	<path id="Path_2994" class="st1" d="M29.1,25.4c0,0.4-0.3,0.6-0.6,0.6s-0.6-0.3-0.6-0.6c0-0.4,0.3-0.6,0.6-0.6l0,0l0,0
		C28.8,24.8,29.1,25,29.1,25.4z"/>
</g>
</svg>
