<svg xmlns="http://www.w3.org/2000/svg" width="17.826" height="16.043" viewBox="0 0 17.826 16.043">
  <g id="Path_3235" data-name="Path 3235" fill="none">
    <path d="M8.913,16.043C4.12,12.84,1.607,9.926.576,7.487-2.185.951,5.7-2.175,8.913,1.683c3.211-3.858,11.1-.733,8.337,5.8C16.219,9.926,13.705,12.84,8.913,16.043Z" stroke="none"/>
    <path d="M 8.912861824035645 13.6129732131958 C 13.11207485198975 10.61418914794922 14.76550579071045 8.226569175720215 15.40713310241699 6.708418846130371 C 15.79754257202148 5.784328460693359 16.1123218536377 4.455648422241211 15.3947925567627 3.373558759689331 C 14.84150314331055 2.539158582687378 13.75980281829834 1.999998688697815 12.6390323638916 1.999998688697815 C 12.12072277069092 1.999998688697815 11.14714241027832 2.125058650970459 10.45024299621582 2.962588548660278 L 8.912872314453125 4.810168743133545 L 7.375492572784424 2.962588548660278 C 6.678572654724121 2.125058650970459 5.704992771148682 1.999998688697815 5.18668270111084 1.999998688697815 C 4.066082954406738 1.999998688697815 2.984452724456787 2.539208650588989 2.431102752685547 3.373698711395264 C 1.713512778282166 4.455868721008301 2.028222799301147 5.784448623657227 2.418502807617188 6.708188533782959 C 3.060213088989258 8.226551055908203 4.713642120361328 10.61418724060059 8.912861824035645 13.6129732131958 M 8.912862777709961 16.04314804077148 C 4.12047290802002 12.83985900878906 1.607052803039551 9.925718307495117 0.5762727856636047 7.486778736114502 C -1.359121561050415 2.905857801437378 1.936605215072632 -1.269226117983635e-06 5.186685562133789 -1.269226117983635e-06 C 6.573835372924805 -1.269226117983635e-06 7.95247745513916 0.5291657447814941 8.912862777709961 1.683338642120361 C 9.873048782348633 0.5294012427330017 11.25217247009277 -1.269226117983635e-06 12.63903617858887 -1.269226117983635e-06 C 15.88939094543457 -1.269226117983635e-06 19.18501472473145 2.905458927154541 17.24945259094238 7.486778736114502 C 16.21866226196289 9.925718307495117 13.70524311065674 12.83985900878906 8.912862777709961 16.04314804077148 Z" stroke="none" fill="#a75353"/>
  </g>
</svg>
