<svg xmlns="http://www.w3.org/2000/svg" xmlns:xlink="http://www.w3.org/1999/xlink" viewBox="0 0 38.92 32.43"><defs><style>.cls-1{fill:none;}.cls-2{clip-path:url(#clip-path);}.cls-3{fill:#fff;}</style><clipPath id="clip-path" transform="translate(0 0)"><rect class="cls-1" width="38.91" height="32.43"/></clipPath></defs><g id="圖層_2" data-name="圖層 2"><g id="圖層_1-2" data-name="圖層 1"><g id="Group_378" data-name="Group 378"><g id="Group_377" data-name="Group 377"><g class="cls-2"><g id="Group_376" data-name="Group 376"><path id="Path_2984" data-name="Path 2984" class="cls-3" d="M33.73,18.81H29.87a12.94,12.94,0,0,1-12.8-11,18.22,18.22,0,0,1-.2-2.66V2.6A2.59,2.59,0,0,0,14.27,0H10.56A3.25,3.25,0,0,0,8.87.48,12.79,12.79,0,0,1,3.08,1.89,2.6,2.6,0,0,0,.65,4.48V26.77A1.33,1.33,0,0,0,0,27.89v3.24a1.3,1.3,0,0,0,1.3,1.3H2.86A1.28,1.28,0,0,0,4,31.75l.65-1.26,1.14,1.44a1.24,1.24,0,0,0,1,.5H8a1.31,1.31,0,0,0,1.16-.7l.65-1.24L11,31.93a1.27,1.27,0,0,0,1,.5h1.23a1.31,1.31,0,0,0,1.16-.7L15,30.48l1.14,1.45a1.3,1.3,0,0,0,1,.5h7.45c.85,0,1.66,0,2.42,0a1.28,1.28,0,0,0,1.11-.71l.57-1.14s0-.05.07-.05a.08.08,0,0,1,.07,0l.9,1.14a1.3,1.3,0,0,0,1.16.49L32.22,32a1.28,1.28,0,0,0,1.05-.85l.44-1.22a.09.09,0,0,1,.07-.06.09.09,0,0,1,.09,0L35,31a1.32,1.32,0,0,0,1.23.32,13.78,13.78,0,0,0,1.46-.46A1.92,1.92,0,0,0,38.92,29V24a5.18,5.18,0,0,0-5.18-5.19ZM37.62,24v.85a38.7,38.7,0,0,1-9,1.58,3.86,3.86,0,0,1,3.8-3.08h5.13a4.62,4.62,0,0,1,.06.65Zm-20-10.89-1.5.94a1.9,1.9,0,0,0-1.2-.43,2,2,0,1,0,1.94,2,1.6,1.6,0,0,0,0-.44l1.52-1a14,14,0,0,0,1.75,2l-1.23,1.45a1.86,1.86,0,0,0-.7-.14,1.95,1.95,0,1,0,1.95,1.95,1.87,1.87,0,0,0-.27-1l1.23-1.44a14.1,14.1,0,0,0,2.69,1.68l-.46,1.38A2,2,0,0,0,23.36,24a2,2,0,0,0,1.18-3.51L25,19.23a14.14,14.14,0,0,0,4.9.87h3.86a3.91,3.91,0,0,1,3.37,1.95H32.43a5.16,5.16,0,0,0-5.13,4.46c-.91,0-1.8.08-2.66.08H13.87A16.94,16.94,0,0,0,2,16V7.77c4.84-.09,7.18-1.19,8.29-2.12a2,2,0,0,1,1.26-.46h4.07A19.61,19.61,0,0,0,15.78,8c.06.39.14.78.23,1.16l-1.37.27A1.95,1.95,0,1,0,14,12.05a1.93,1.93,0,0,0,.93-1.4l1.47-.29a14.59,14.59,0,0,0,1.27,2.75Zm-2.06,2.46a.65.65,0,0,1-1.3,0,.65.65,0,0,1,1.3,0Zm3.24,3.89a.65.65,0,1,1-.65-.65h0a.65.65,0,0,1,.65.65ZM24,22.05a.65.65,0,1,1-.65-.65h0A.65.65,0,0,1,24,22.05ZM12.49,26.59H2V17.36a15.59,15.59,0,0,1,10.53,9.23Zm1.13-16.21A.65.65,0,1,1,13,9.73.65.65,0,0,1,13.62,10.38ZM3.16,3.18a14.06,14.06,0,0,0,6.38-1.6,2.14,2.14,0,0,1,1-.29h3.72a1.3,1.3,0,0,1,1.3,1.3v1.3H11.5a3.34,3.34,0,0,0-2.09.77C8.64,5.31,6.64,6.39,2,6.48v-2a1.31,1.31,0,0,1,1.21-1.3ZM37.62,29a.65.65,0,0,1-.42.61q-.66.24-1.35.42L34.76,29a1.38,1.38,0,0,0-2.27.53l-.44,1.23-1.26.14-.9-1.15a1.37,1.37,0,0,0-2.31.23L27,31.09c-.74,0-1.53,0-2.37,0H17.17L16,29.68a1.27,1.27,0,0,0-1-.5h-.11a1.32,1.32,0,0,0-1,.69l-.66,1.25H12l-1.14-1.44a1.29,1.29,0,0,0-2.16.2L8,31.12H6.8L5.66,29.68a1.26,1.26,0,0,0-1.14-.49,1.24,1.24,0,0,0-1,.68l-.66,1.25H1.3V27.88H24.63a50.86,50.86,0,0,0,13-1.66Z" transform="translate(0 0)"/></g></g></g><path id="Path_2985" data-name="Path 2985" class="cls-3" d="M6.79,9.09a3.25,3.25,0,1,0-.65,6.46h.05l.3,0a3.25,3.25,0,0,0,.3-6.48ZM6.3,14.26a1.94,1.94,0,1,1,1.43-.44A1.94,1.94,0,0,1,6.3,14.26Z" transform="translate(0 0)"/><path id="Path_2986" data-name="Path 2986" class="cls-3" d="M14.92,25.29H20.1a.65.65,0,1,0,0-1.3H14.92a.65.65,0,0,0,0,1.3Z" transform="translate(0 0)"/></g></g></g></svg>