<svg xmlns="http://www.w3.org/2000/svg" viewBox="0 0 38.91 43.25"><defs><style>.cls-1{fill:#fff;}</style></defs><g id="圖層_2" data-name="圖層 2"><g id="圖層_1-2" data-name="圖層 1"><g id="Group_407" data-name="Group 407"><path id="Path_3027" data-name="Path 3027" class="cls-1" d="M30.86,21.24h3A1.23,1.23,0,0,0,35.11,20V17a1.24,1.24,0,0,0-1.24-1.24h-3A1.25,1.25,0,0,0,29.62,17v3A1.24,1.24,0,0,0,30.86,21.24Zm0-4.22h3V20h-3Zm0,12.24h3A1.23,1.23,0,0,0,35.11,28V25a1.24,1.24,0,0,0-1.24-1.24h-3A1.25,1.25,0,0,0,29.62,25v3a1.24,1.24,0,0,0,1.23,1.24h0Zm0-4.22h3v3h-3Zm-8.64-3.8h3A1.23,1.23,0,0,0,26.5,20V17a1.24,1.24,0,0,0-1.23-1.24h-3A1.25,1.25,0,0,0,21,17v3a1.24,1.24,0,0,0,1.24,1.24Zm0-4.22h3V20h-3ZM8.05,31.42H5A1.23,1.23,0,0,0,3.8,32.66v3A1.23,1.23,0,0,0,5,36.91h3a1.24,1.24,0,0,0,1.24-1.24v-3a1.25,1.25,0,0,0-1.24-1.24Zm0,4.22h-3v-3H8Zm0-19.89H5A1.23,1.23,0,0,0,3.8,17v3A1.24,1.24,0,0,0,5,21.24h3A1.25,1.25,0,0,0,9.29,20V17a1.24,1.24,0,0,0-1.24-1.24ZM8,20h-3V17H8Zm14.23,9.1h3a1.23,1.23,0,0,0,1.23-1.24v-3a1.24,1.24,0,0,0-1.23-1.24h-3A1.25,1.25,0,0,0,21,24.82v3a1.25,1.25,0,0,0,1.24,1.25h0Zm0-4.22h3V27.8h-3Zm13.46-22H33v-1A1.92,1.92,0,0,0,31.1,0h-.29a1.92,1.92,0,0,0-1.92,1.93v1H10v-1A1.92,1.92,0,0,0,8.1,0H7.8A1.92,1.92,0,0,0,5.88,1.93v1H3.17A3.18,3.18,0,0,0,0,6.06v34a3.17,3.17,0,0,0,3.17,3.17H35.74a3.17,3.17,0,0,0,3.17-3.17v-34A3.17,3.17,0,0,0,35.74,2.9Zm-5.59-1a.66.66,0,0,1,.66-.66h.29a.65.65,0,0,1,.66.66v1H30.15Zm-23,0a.66.66,0,0,1,.66-.66h.29a.65.65,0,0,1,.66.66v1H7.14v-1Zm30.5,38.14a1.9,1.9,0,0,1-1.9,1.9H3.16a1.91,1.91,0,0,1-1.9-1.9h0a3.13,3.13,0,0,0,1.9.64H28.85a3.14,3.14,0,0,0,2.24-.93l6.55-6.55Zm-7.2-1.44a2.74,2.74,0,0,0,.08-.64V33.77A1.46,1.46,0,0,1,32,32.32h4.22a2.73,2.73,0,0,0,.64-.07ZM37.64,12h-27a.63.63,0,0,0,0,1.26h27v16.4a1.44,1.44,0,0,1-1.44,1.45H32a2.71,2.71,0,0,0-2.71,2.71V38a1.44,1.44,0,0,1-1.44,1.45H3.17a1.91,1.91,0,0,1-1.9-1.91V13.22H8.12a.64.64,0,0,0,.64-.63A.64.64,0,0,0,8.12,12H1.26V6.07a1.91,1.91,0,0,1,1.9-1.9H5.87V6A1.94,1.94,0,0,0,7.8,8a.64.64,0,0,0,0-1.27h0A.66.66,0,0,1,7.14,6V4.17H28.89V6A1.92,1.92,0,0,0,30.81,8a.64.64,0,0,0,.61-.66.63.63,0,0,0-.61-.61A.66.66,0,0,1,30.15,6V4.17h5.59a1.91,1.91,0,0,1,1.9,1.9ZM8.05,23.58H5A1.24,1.24,0,0,0,3.8,24.82v3A1.23,1.23,0,0,0,5,29.07h3a1.24,1.24,0,0,0,1.24-1.23v-3a1.24,1.24,0,0,0-1.24-1.23ZM8,27.8h-3V24.85H8Zm5.62-6.56h3A1.25,1.25,0,0,0,17.9,20V17a1.24,1.24,0,0,0-1.24-1.23h-3A1.24,1.24,0,0,0,12.4,17v3a1.25,1.25,0,0,0,1.24,1.24Zm0-4.23h3v3h-3Zm8.61,18.63a.63.63,0,0,0-.68-.58.64.64,0,0,0-.59.61,1.25,1.25,0,0,0,1.24,1.24h3a1.24,1.24,0,0,0,1.23-1.24v-3a1.24,1.24,0,0,0-1.23-1.24h-3A1.25,1.25,0,0,0,21,32.66v.87a.64.64,0,0,0,1.27,0v-.89h3v3Zm-8.64-6.57h3a1.24,1.24,0,0,0,1.24-1.24v-3a1.24,1.24,0,0,0-1.24-1.24h-3a1.25,1.25,0,0,0-1.24,1.24v3a1.25,1.25,0,0,0,1.24,1.25h0Zm0-4.22h3V27.8h-3Zm0,12.06h3a1.25,1.25,0,0,0,1.24-1.24v-3a1.25,1.25,0,0,0-1.24-1.24h-3a1.25,1.25,0,0,0-1.24,1.24v3a1.24,1.24,0,0,0,1.24,1.23Zm0-4.23h3v3h-3Z"/></g></g></g></svg>