<svg xmlns="http://www.w3.org/2000/svg" width="295.519" height="165.408" viewBox="0 0 295.519 165.408">
  <g id="logo" transform="translate(-133.911 -1691.505)">
    <g id="Group_35" data-name="Group 35" transform="translate(134.411 1780.051)">
      <path id="Path_28" data-name="Path 28" d="M196.508,1889.833h-3.031l-5.541-8.765-40.248-58.631v57.826c0,3.929,2.091,6.447,5.75,6.447h3.972v3.124h-23v-3.124h4.5c1.882,0,5.436-2.115,5.436-6.447v-56.114c0-4.13-3.345-4.735-4.914-4.735h-5.018v-3.122h15.367l43.384,63.266v-55.61c0-3.425-2.509-4.533-5.227-4.533h-4.6v-3.122h23.1v3.122h-4.913c-2.927,0-5.019,1.612-5.019,4.533Z" transform="translate(-134.411 -1815.587)" fill="#fff" stroke="#707070" stroke-linecap="round" stroke-linejoin="round" stroke-width="1"/>
      <path id="Path_29" data-name="Path 29" d="M278.146,1901.656c-17.459,0-23.73-14.306-23.73-25.085,0-19.343,14.322-26.193,23.73-26.193,11.917,0,23.1,8.563,23.1,26.193C301.25,1887.754,294.664,1901.656,278.146,1901.656Zm12.44-42.513a16.072,16.072,0,0,0-12.44-5.541,17.236,17.236,0,0,0-12.963,5.641c-3.345,3.627-4.913,9.47-4.913,17.327,0,7.354,2.822,21.861,17.876,21.861,13.694,0,17.144-13.4,17.144-21.861C295.29,1868.613,293.723,1862.769,290.586,1859.143Z" transform="translate(-183.215 -1825.294)" fill="#fff" stroke="#707070" stroke-linecap="round" stroke-linejoin="round" stroke-width="1"/>
      <path id="Path_30" data-name="Path 30" d="M347.243,1862.061c0-2.72-3.136-2.82-8.05-2.82v-3.123c3.764,0,8.259-1.209,13.381-3.627v7.556c3.764-4.533,6.377-7.556,13.277-7.556,4.392,0,7.737,1.41,10.246,4.533a14.065,14.065,0,0,1,1.881,3.93,17.016,17.016,0,0,1,15.054-8.463c7.213,0,12.649,4.835,12.649,13.9v26.8c0,2.418,1.359,3.828,3.868,3.828h3.659v3.124H392.927v-3.124H397c2.091,0,3.345-1.41,3.345-3.828v-26.8c0-6.75-3.45-10.78-8.677-10.78-4.5,0-11.29,3.728-12.754,9.571v28.107c0,2.519,1.359,3.727,3.868,3.727h3.555v3.124H365.746v-3.124h4.392a3.579,3.579,0,0,0,3.449-3.727V1866.9c0-5.439-1.987-11.283-9.1-11.283a12.855,12.855,0,0,0-11.918,10.478v27.3c0,2.419,1.36,3.626,3.45,3.626H360v3.124H339.3v-3.124h3.136c1.777,0,4.808-.5,4.808-3.626Z" transform="translate(-220.193 -1825.895)" fill="#fff" stroke="#707070" stroke-linecap="round" stroke-linejoin="round" stroke-width="1"/>
      <path id="Path_31" data-name="Path 31" d="M491.1,1896.477a26.705,26.705,0,0,1-16.412,5.24c-4.7,0-12.858-2.317-12.858-12.09,0-4.029,1.672-7.354,5.331-10.074,4.808-3.526,13.694-6.044,26.867-7.757v-6.65c0-6.749-6.587-11.081-12.649-11.081-7.528,0-11.082,4.634-11.082,6.749v1.21c.21,1.108.627,4.029-3.031,4.029a2.968,2.968,0,0,1-3.241-3.123c0-6.245,7.213-11.989,17.354-11.989,11.081,0,17.98,7.254,17.98,14.205v23.373c0,3.727,0,10.074,2.2,10.074.94,0,2.2-1.914,3.554-5.541l2.927,1.512c-2.091,6.447-4.914,7.152-7.631,7.152-5.541,0-5.959-4.937-6.272-8.362Zm2.927-21.458q-15.681,2.569-22.267,6.952c-3.136,1.914-4.6,4.533-4.6,7.656,0,5.44,5.017,8.966,9.618,8.966,6.586,0,16.2-4.533,17.249-11.887Z" transform="translate(-267.484 -1825.454)" fill="#fff" stroke="#707070" stroke-linecap="round" stroke-linejoin="round" stroke-width="1"/>
      <path id="Path_32" data-name="Path 32" d="M587.611,1880.889c0,4.231,2.3,5.54,5.018,5.54h4.286v3.124H582.28v-6.447c-3.973,4.936-8.05,7.152-15.89,7.152-12.336,0-20.8-10.174-20.8-25.286,0-12.191,9.618-23.071,22.581-23.071a19.2,19.2,0,0,1,14.113,5.541V1825.38c0-2.519-.837-2.821-8.05-2.821v-3.123c3.764,0,8.259-1.411,13.381-4.13Zm-5.331-27.805c-1.15-2.519-6.482-7.656-14.113-7.656-7.946,0-16.726,6.548-16.726,19.544,0,9.369,4.286,21.76,16.308,21.76a15.052,15.052,0,0,0,14.531-11.082Z" transform="translate(-302.397 -1815.306)" fill="#fff" stroke="#707070" stroke-linecap="round" stroke-linejoin="round" stroke-width="1"/>
    </g>
    <g id="Group_38" data-name="Group 38" transform="translate(179.315 1713.593)">
      <g id="Group_36" data-name="Group 36" transform="translate(54.645 0.207)">
        <path id="Path_33" data-name="Path 33" d="M500.8,1782.7c.065.036.6.265.589.561-.012.5-1.593.837-1.8.885-2.844.6-4.543-2.189-7.742-2.791-4.331-.814-6.1,3.393-9.9,2.2-2.2-.7-3.528-2.708-4.525-4.231-1.935-2.95-1.375-4.537-2.756-6.455-1.1-1.547-3.4-3.2-11.406-3.293l-6.1-25.567Z" transform="translate(-351.318 -1728.751)" fill="#fff" stroke="#707070" stroke-linecap="round" stroke-linejoin="round" stroke-width="1"/>
        <path id="Path_34" data-name="Path 34" d="M446.331,1773.121c.142.773.561,3.056-.094,3.346-.372.165-.944-.366-1.18-.59-1.576-1.487-6.785-6.727-13.772-13.867l-3.37-16.7,4.762-2.159,9.765,6.2-2.891,3.216c-3.588,3.54-3.546,4.75-3.257,6.9C436.943,1764.359,445.2,1766.961,446.331,1773.121Z" transform="translate(-342.989 -1728.507)" fill="#fff" stroke="#707070" stroke-linecap="round" stroke-linejoin="round" stroke-width="1"/>
        <path id="Path_35" data-name="Path 35" d="M421.281,1769.786a1.463,1.463,0,0,1-.549,2.2c-.9.637-2.591-.631-5.853-2.337-3.245-1.7-4.874-2.543-5.8-2.36-2.03.407-2.254,2.466-6.3,4.892-1.3.784-1.747.855-2.112.837-1.534-.064-2.65-1.8-4.821-5.263-3.47-5.534-4.171-6.7-5.311-6.708-1.357-.012-2.5,1.64-3.292,2.779-1.239,1.782-.755,3.357-1.528,3.635-.873.325-2.342-1.227-3.316-2.656-2.927-4.278-1.481-7.517-3.369-11.742a14.547,14.547,0,0,0-5.635-6.231l-5.122-24.1.047-.053,26.918,23.914Z" transform="translate(-326.006 -1722.676)" fill="#fff" stroke="#707070" stroke-linecap="round" stroke-linejoin="round" stroke-width="1"/>
        <path id="Path_36" data-name="Path 36" d="M325.926,1754.891l-10.184,10.921a3.383,3.383,0,0,0,.207-.294l-.207.294-.024.031a3.292,3.292,0,0,1-5.866-2.2l-.678-12.238,4.815-4.685Z" transform="translate(-309.175 -1729.524)" fill="#fff" stroke="#707070" stroke-linecap="round" stroke-linejoin="round" stroke-width="1"/>
      </g>
      <g id="Group_37" data-name="Group 37" transform="translate(0 0)">
        <line id="Line_5" data-name="Line 5" y1="10.922" x2="10.184" transform="translate(61.212 25.573)" fill="none" stroke="#fff" stroke-linecap="round" stroke-linejoin="round" stroke-width="3"/>
        <path id="Path_37" data-name="Path 37" d="M318.357,1773.294a3.436,3.436,0,0,0,.207-.294Z" transform="translate(-257.145 -1736.8)" fill="none" stroke="#fff" stroke-linecap="round" stroke-linejoin="round" stroke-width="3"/>
        <path id="Path_38" data-name="Path 38" d="M309.175,1753.274l.678,12.238a3.291,3.291,0,0,0,5.866,2.2l.024-.03" transform="translate(-254.53 -1731.183)" fill="none" stroke="#fff" stroke-linecap="round" stroke-linejoin="round" stroke-width="3"/>
        <path id="Path_39" data-name="Path 39" d="M270.412,1772.767l-10.3-9.081-27.337,27.077c1.3-.95,10.668-7.777,20.746-15.047a2.326,2.326,0,0,1,1.316-.49c1.664-.035,2.041,3.529,5.175,6.815.632.661.873.8,1.151.855,1.262.254,2.549-1.3,5.8-5.576C268.235,1775.652,269.38,1774.159,270.412,1772.767Z" transform="translate(-232.773 -1734.148)" fill="none" stroke="#fff" stroke-linecap="round" stroke-linejoin="round" stroke-width="3"/>
        <line id="Line_6" data-name="Line 6" y1="16.527" x2="17.005" transform="translate(37.639 22.092)" fill="none" stroke="#fff" stroke-linecap="round" stroke-linejoin="round" stroke-width="3"/>
        <path id="Path_40" data-name="Path 40" d="M378.411,1746.508l-26.918-23.915-.23-.207-25.337,25.573-11.937-8.166-4.815,4.685" transform="translate(-254.53 -1722.387)" fill="none" stroke="#fff" stroke-linecap="round" stroke-linejoin="round" stroke-width="3"/>
        <path id="Path_41" data-name="Path 41" d="M442.442,1749.348l-9.765-6.2-4.762,2.16" transform="translate(-288.344 -1728.3)" fill="none" stroke="#fff" stroke-linecap="round" stroke-linejoin="round" stroke-width="3"/>
        <path id="Path_42" data-name="Path 42" d="M457.161,1744.01l6.1,25.567c8.007.088,10.3,1.746,11.406,3.293,1.381,1.918.82,3.5,2.756,6.455,1,1.523,2.325,3.535,4.525,4.231,3.8,1.192,5.565-3.015,9.9-2.2,3.2.6,4.9,3.393,7.742,2.791.207-.047,1.788-.383,1.8-.885.006-.3-.525-.525-.589-.561Z" transform="translate(-296.673 -1728.544)" fill="none" stroke="#fff" stroke-linecap="round" stroke-linejoin="round" stroke-width="3"/>
        <line id="Line_7" data-name="Line 7" x1="6.39" y2="5.582" transform="translate(154.098 15.465)" fill="none" stroke="#fff" stroke-linecap="round" stroke-linejoin="round" stroke-width="3"/>
        <path id="Path_43" data-name="Path 43" d="M427.915,1746.171l3.37,16.7c6.986,7.14,12.2,12.38,13.772,13.867.236.224.808.755,1.18.59.655-.29.236-2.573.094-3.346-1.127-6.16-9.388-8.762-10.037-13.654-.289-2.154-.33-3.364,3.257-6.9l2.891-3.216" transform="translate(-288.344 -1729.16)" fill="none" stroke="#fff" stroke-linecap="round" stroke-linejoin="round" stroke-width="3"/>
        <line id="Line_8" data-name="Line 8" x1="15.689" y2="7.11" transform="translate(123.881 17.011)" fill="none" stroke="#fff" stroke-linecap="round" stroke-linejoin="round" stroke-width="3"/>
        <path id="Path_44" data-name="Path 44" d="M368.277,1722.75l5.122,24.1a14.551,14.551,0,0,1,5.635,6.231c1.888,4.225.443,7.464,3.369,11.742.973,1.428,2.442,2.98,3.316,2.655.773-.277.29-1.853,1.528-3.635.791-1.138,1.935-2.791,3.292-2.779,1.139.006,1.841,1.174,5.311,6.709,2.171,3.464,3.287,5.2,4.821,5.263.365.018.808-.053,2.112-.838,4.042-2.425,4.266-4.485,6.3-4.891.926-.183,2.555.661,5.8,2.36,3.263,1.705,4.957,2.974,5.853,2.337a1.463,1.463,0,0,0,.549-2.2l-26.039-23.2" transform="translate(-271.361 -1722.49)" fill="none" stroke="#fff" stroke-linecap="round" stroke-linejoin="round" stroke-width="3"/>
      </g>
    </g>
    <g id="Group_39" data-name="Group 39" transform="translate(171.961 1691.505)">
      <text id="ESTD" transform="translate(0 13)" fill="#fff" font-size="13" font-family="MicrosoftYaHeiLight, Microsoft YaHei" letter-spacing="0.06em"><tspan x="0" y="0">ESTD</tspan></text>
      <text id="_2021" data-name="2021" transform="translate(178.611 13)" fill="#fff" font-size="13" font-family="MicrosoftYaHeiLight, Microsoft YaHei" letter-spacing="0.06em"><tspan x="0" y="0">2021</tspan></text>
    </g>
  </g>
</svg>
