<svg xmlns="http://www.w3.org/2000/svg" width="40.064" height="38.334" viewBox="0 0 40.064 38.334">
  <g id="Icon_feather-shopping-cart" data-name="Icon feather-shopping-cart" transform="translate(1 1)">
    <path id="Path_3080" data-name="Path 3080" d="M15.46,31.73A1.73,1.73,0,1,1,13.73,30,1.73,1.73,0,0,1,15.46,31.73Z" transform="translate(0.111 2.873)" fill="none" stroke="#fff9ef" stroke-linecap="round" stroke-linejoin="round" stroke-width="2"/>
    <path id="Path_3081" data-name="Path 3081" d="M31.96,31.73A1.73,1.73,0,1,1,30.23,30,1.73,1.73,0,0,1,31.96,31.73Z" transform="translate(2.643 2.873)" fill="none" stroke="#fff9ef" stroke-linecap="round" stroke-linejoin="round" stroke-width="2"/>
    <path id="Path_3082" data-name="Path 3082" d="M1.5,1.5H8.421l4.637,23.167a3.46,3.46,0,0,0,3.46,2.786H33.335a3.46,3.46,0,0,0,3.46-2.786l2.768-14.516H10.151" transform="translate(-1.5 -1.5)" fill="none" stroke="#fff9ef" stroke-linecap="round" stroke-linejoin="round" stroke-width="2"/>
  </g>
</svg>
