<svg xmlns="http://www.w3.org/2000/svg" viewBox="0 0 200 93.1"><defs><style>.cls-1{fill:#001028;}</style></defs><g id="圖層_2" data-name="圖層 2"><g id="圖層_2-2" data-name="圖層 2"><path class="cls-1" d="M36,91.87H34.2L31,86.8,7.69,52.85V86.33c0,2.27,1.21,3.73,3.33,3.73h2.3v1.81H0V90.06H2.6a3.62,3.62,0,0,0,3.15-3.73V53.84A2.6,2.6,0,0,0,2.91,51.1H0V49.29H8.9L34,85.92V53.72c0-2-1.45-2.62-3-2.62H28.33V49.29H41.71V51.1H38.86c-1.69,0-2.9.93-2.9,2.62Z"/><path class="cls-1" d="M63.44,93.1c-10.11,0-13.74-8.29-13.74-14.53C49.7,67.37,58,63.4,63.44,63.4c6.9,0,13.37,5,13.37,15.17C76.81,85.05,73,93.1,63.44,93.1Zm7.2-24.62a9.31,9.31,0,0,0-7.2-3.21,10,10,0,0,0-7.51,3.27c-1.94,2.1-2.84,5.48-2.84,10,0,4.26,1.63,12.66,10.35,12.66,7.93,0,9.92-7.76,9.92-12.66C73.36,74,72.46,70.58,70.64,68.48Z"/><path class="cls-1" d="M89.47,69.82c0-1.57-1.82-1.63-4.66-1.63V66.38a18.71,18.71,0,0,0,7.74-2.1v4.37c2.18-2.62,3.7-4.37,7.69-4.37a7.1,7.1,0,0,1,5.93,2.62,8.07,8.07,0,0,1,1.09,2.28,9.87,9.87,0,0,1,8.72-4.9c4.18,0,7.32,2.8,7.32,8V87.85a2,2,0,0,0,2.24,2.21h2.12v1.81H115.92V90.06h2.36c1.21,0,1.94-.81,1.94-2.21V72.33c0-3.91-2-6.24-5-6.24-2.6,0-6.53,2.16-7.38,5.54V87.9a2,2,0,0,0,2.24,2.16h2.06v1.81H100.18V90.06h2.54a2.07,2.07,0,0,0,2-2.16V72.62c0-3.15-1.15-6.53-5.27-6.53a7.45,7.45,0,0,0-6.9,6.06V88a1.87,1.87,0,0,0,2,2.1h2.3v1.81h-12V90.06h1.81c1,0,2.79-.29,2.79-2.1Z"/><path class="cls-1" d="M152.54,90a15.41,15.41,0,0,1-9.5,3c-2.73,0-7.45-1.34-7.45-7a6.94,6.94,0,0,1,3.09-5.84c2.78-2,7.93-3.5,15.56-4.49V71.86c0-3.91-3.82-6.41-7.33-6.41-4.36,0-6.41,2.68-6.41,3.9v.7c.12.65.36,2.34-1.76,2.34a1.73,1.73,0,0,1-1.88-1.81c0-3.62,4.18-6.94,10-6.94,6.42,0,10.41,4.2,10.41,8.22V85.4c0,2.15,0,5.83,1.27,5.83.55,0,1.28-1.11,2.06-3.21l1.7.88c-1.21,3.73-2.85,4.14-4.42,4.14-3.21,0-3.45-2.86-3.63-4.84Zm1.7-12.42c-6.06,1-10.35,2.33-12.9,4A5,5,0,0,0,138.68,86c0,3.15,2.91,5.19,5.57,5.19,3.81,0,9.38-2.63,10-6.88Z"/><path class="cls-1" d="M194.61,86.85c0,2.45,1.33,3.21,2.91,3.21H200v1.81h-8.47V88.14c-2.3,2.86-4.67,4.14-9.2,4.14-7.15,0-12.05-5.89-12.05-14.64a13.24,13.24,0,0,1,13.07-13.36,11.13,11.13,0,0,1,8.18,3.21V54.71c0-1.45-.49-1.63-4.67-1.63V51.27a17.16,17.16,0,0,0,7.75-2.39Zm-3.08-16.1c-.67-1.45-3.76-4.43-8.18-4.43-4.6,0-9.68,3.79-9.68,11.32,0,5.42,2.48,12.6,9.44,12.6a8.73,8.73,0,0,0,8.42-6.42Z"/><path class="cls-1" d="M158.92,41.76s.35.15.35.32-.93.49-1.05.51c-1.64.35-2.62-1.26-4.48-1.61-2.5-.47-3.53,2-5.73,1.27a5.37,5.37,0,0,1-2.62-2.45c-1.12-1.7-.79-2.62-1.59-3.74-.64-.89-2-1.85-6.61-1.9l-3.53-14.8Z"/><path class="cls-1" d="M132.21,36.35c.09.45.32,1.77-.05,1.94-.22.1-.55-.21-.69-.34-.91-.87-3.93-3.9-8-8l-2-9.67L124.3,19,130,22.59l-1.68,1.86c-2.07,2.05-2,2.75-1.88,4C126.78,31.28,131.56,32.78,132.21,36.35Z"/><path class="cls-1" d="M127.54,37.8a.85.85,0,0,1-.32,1.27c-.52.37-1.5-.37-3.39-1.35s-2.82-1.48-3.36-1.37c-1.17.24-1.3,1.42-3.64,2.83-.75.46-1,.49-1.22.49-.89,0-1.54-1-2.8-3.05-2-3.2-2.41-3.88-3.07-3.89s-1.45,1-1.91,1.61c-.71,1-.43,1.95-.88,2.11s-1.35-.71-1.92-1.54c-1.69-2.48-.86-4.35-2-6.8a8.38,8.38,0,0,0-3.27-3.61l-3-13.95,0,0,15.59,13.84Z"/><path class="cls-1" d="M82.07,25.21l-5.89,6.31a1,1,0,0,0,.12-.16l-.14.19,0,0a1.9,1.9,0,0,1-3.41-1.24l-.4-7.09,2.79-2.71Z"/><rect class="cls-1" x="74.81" y="28.02" width="8.64" height="0.69" transform="translate(4.42 66.9) rotate(-47)"/><path class="cls-1" d="M76.16,31.89a.33.33,0,0,1-.21-.07.35.35,0,0,1-.07-.48l.14-.19a.36.36,0,0,1,.47-.08.35.35,0,0,1,.11.46,1.77,1.77,0,0,1-.16.22v0A.36.36,0,0,1,76.16,31.89Z"/><path class="cls-1" d="M74.66,32.61a2.5,2.5,0,0,1-.66-.09,2.26,2.26,0,0,1-1.58-2.24L72,23.21l.69,0,.39,7.09v0a1.56,1.56,0,0,0,2.8,1l.55.42A2.27,2.27,0,0,1,74.66,32.61Z"/><path class="cls-1" d="M40.73,43.53a.35.35,0,0,1-.26-.13.34.34,0,0,1,0-.47L56.32,27.26a.34.34,0,0,1,.47,0l6,5.26a.35.35,0,0,1,.05.47l-2,2.64c-2,2.64-2.75,3.55-3.7,3.35a1.55,1.55,0,0,1-.84-.59,11.18,11.18,0,0,1-1.82-2.66c-.35-.66-.63-1.18-.92-1.18h0a1,1,0,0,0-.56.22c-6.25,4.51-12,8.67-12,8.71A.4.4,0,0,1,40.73,43.53ZM56.58,28,44.21,40.22c2.22-1.61,5.21-3.78,8.34-6a1.62,1.62,0,0,1,1-.35c.72,0,1.09.67,1.55,1.55a10.73,10.73,0,0,0,1.71,2.5c.34.37.43.39.48.4.54.11,1.45-1,3-3.1l1.81-2.38Z"/><rect class="cls-1" x="60.59" y="27.63" width="13.73" height="0.69" transform="translate(-0.42 54.92) rotate(-44.18)"/><path class="cls-1" d="M82.07,25.55a.33.33,0,0,1-.19-.06L75.2,20.93l-2.59,2.51-.48-.5,2.79-2.71a.36.36,0,0,1,.44,0L82,24.76,96.5,10.16a.34.34,0,0,1,.47,0l.14.12L112.7,24.11l-.46.51L96.76,10.88,82.32,25.45A.35.35,0,0,1,82.07,25.55Z"/><path class="cls-1" d="M129.78,22.88l-5.5-3.49-2.59,1.17-.28-.63,2.75-1.24a.35.35,0,0,1,.33,0l5.66,3.59Z"/><path class="cls-1" d="M157.76,43a4.21,4.21,0,0,1-2.16-.82,5.77,5.77,0,0,0-1.92-.85A3.83,3.83,0,0,0,151,42a3.62,3.62,0,0,1-3,.59A5.6,5.6,0,0,1,145.12,40l0,0a7.1,7.1,0,0,1-1-2.31,4.17,4.17,0,0,0-.59-1.42c-.57-.79-1.81-1.7-6.33-1.75a.38.38,0,0,1-.34-.27l-3.52-14.8a.34.34,0,0,1,.15-.38.35.35,0,0,1,.41,0l25.22,22.36c.19.09.51.29.5.63s-.45.67-1.32.84A2.46,2.46,0,0,1,157.76,43Zm-4.65-2.42a3.53,3.53,0,0,1,.7.07,6.51,6.51,0,0,1,2.15.94,2.93,2.93,0,0,0,2.19.67,3.67,3.67,0,0,0,.62-.18l-.08,0L134.25,20.34l3.22,13.48c4.58.09,5.92,1.08,6.61,2a4.61,4.61,0,0,1,.7,1.64,6.24,6.24,0,0,0,.9,2.11v0a5,5,0,0,0,2.42,2.29,3,3,0,0,0,2.5-.54A5.14,5.14,0,0,1,153.11,40.57Z"/><rect class="cls-1" x="129.36" y="20.63" width="4.91" height="0.69" transform="translate(18.72 91.86) rotate(-41.12)"/><path class="cls-1" d="M132.07,38.65a1.44,1.44,0,0,1-.84-.45c-1-.91-4.09-4.07-8-8a.56.56,0,0,1-.09-.17l-2-9.67.68-.14,1.93,9.57c3.85,3.93,6.94,7,7.89,8a2.07,2.07,0,0,0,.29.23,4.61,4.61,0,0,0-.13-1.51c-.32-1.75-1.72-3-3.07-4.19s-2.55-2.26-2.74-3.74-.18-2.16,2-4.29l1.66-1.84.52.46-1.68,1.86c-2,2-1.94,2.61-1.8,3.72s1.31,2.24,2.51,3.31c1.38,1.22,2.94,2.6,3.3,4.58.23,1.22.27,2.08-.25,2.32A.66.66,0,0,1,132.07,38.65Z"/><rect class="cls-1" x="112.02" y="21.96" width="9.97" height="0.69" transform="translate(1.23 50.29) rotate(-24.38)"/><path class="cls-1" d="M115.64,40h0c-1.09,0-1.79-1.17-3.07-3.21l-.12-.18c-1.69-2.72-2.21-3.54-2.66-3.54h0c-.59,0-1.21.87-1.61,1.46a3.08,3.08,0,0,0-.5,1.31c-.08.38-.15.78-.55.92-.85.31-1.91-1.06-2.33-1.66a8.07,8.07,0,0,1-1.31-4,9.06,9.06,0,0,0-.67-2.84,8.17,8.17,0,0,0-3.13-3.45.34.34,0,0,1-.15-.22l-3-14,.68-.14,2.93,13.81A8.68,8.68,0,0,1,103.39,28a9.77,9.77,0,0,1,.73,3,7.36,7.36,0,0,0,1.19,3.71c.7,1,1.34,1.47,1.52,1.4a1.33,1.33,0,0,0,.11-.41,3.89,3.89,0,0,1,.61-1.57c.49-.7,1.23-1.75,2.19-1.75h0c.84,0,1.21.59,3.25,3.86l.12.19c1.21,1.92,1.82,2.85,2.51,2.88.11,0,.29,0,1-.43a9.34,9.34,0,0,0,2.21-1.83A2.83,2.83,0,0,1,120.41,36c.65-.13,1.57.35,3.58,1.4l1.17.63c.88.48,1.64.9,1.86.75s.45-.41.25-.77l-15-13.4.46-.51,15.07,13.43a.27.27,0,0,1,.07.08,1.17,1.17,0,0,1-.42,1.73c-.58.41-1.34,0-2.59-.7L123.67,38c-1.69-.88-2.71-1.42-3.13-1.33s-.73.38-1.17.85A10.41,10.41,0,0,1,117,39.48,2.62,2.62,0,0,1,115.64,40Z"/><path class="cls-1" d="M22.74,8V.17h3.64v.5h-3.1V3.79h2.88v.49H23.28v3.2h3.28V8Z"/><path class="cls-1" d="M28.68,7.69V7.07a3.09,3.09,0,0,0,1.69.54,2.17,2.17,0,0,0,1.39-.38,1.28,1.28,0,0,0,.47-1.06,1.33,1.33,0,0,0-.32-1,6.21,6.21,0,0,0-1.37-1A4.88,4.88,0,0,1,29,3.09,1.87,1.87,0,0,1,28.72,2a1.81,1.81,0,0,1,.65-1.4A2.4,2.4,0,0,1,31.07,0a4.29,4.29,0,0,1,1.4.24V.84A3.65,3.65,0,0,0,31,.53a1.89,1.89,0,0,0-1.25.4,1.31,1.31,0,0,0-.47,1,1.4,1.4,0,0,0,.32,1,6.64,6.64,0,0,0,1.37,1A4.87,4.87,0,0,1,32.43,5a1.79,1.79,0,0,1,.36,1.1,1.88,1.88,0,0,1-.62,1.46,2.54,2.54,0,0,1-1.76.57A3.76,3.76,0,0,1,29.48,8,3.15,3.15,0,0,1,28.68,7.69Z"/><path class="cls-1" d="M37.19.67V8h-.54V.67H34.4V.17h5v.5Z"/><path class="cls-1" d="M41.38,8V.17h1.95a4.08,4.08,0,0,1,3,1,3.71,3.71,0,0,1,1,2.82,4,4,0,0,1-1.08,2.89,4,4,0,0,1-3,1.11ZM41.92.67V7.48h1.22a3.66,3.66,0,0,0,2.66-.9A3.46,3.46,0,0,0,46.73,4q0-3.31-3.48-3.31Z"/><path class="cls-1" d="M155.15,8V7.6a3.2,3.2,0,0,1,.06-.65,2.14,2.14,0,0,1,.18-.54A2.65,2.65,0,0,1,155.7,6a4.21,4.21,0,0,1,.42-.43c.16-.14.35-.29.55-.44l.67-.49c.24-.17.46-.34.66-.5a4.59,4.59,0,0,0,.54-.54,2.45,2.45,0,0,0,.36-.63,2.2,2.2,0,0,0,.13-.8A1.58,1.58,0,0,0,158.6.93,1.58,1.58,0,0,0,157.41.5a2.23,2.23,0,0,0-1,.23,4.12,4.12,0,0,0-1,.63V.77a4,4,0,0,1,1-.53,3,3,0,0,1,1.07-.2,2.52,2.52,0,0,1,.85.14,1.89,1.89,0,0,1,.65.41,1.6,1.6,0,0,1,.41.63,2.14,2.14,0,0,1,.15.82,2.85,2.85,0,0,1-.15,1,3.44,3.44,0,0,1-.42.75,3.37,3.37,0,0,1-.63.62c-.23.19-.48.38-.75.58s-.65.47-.89.66a3.59,3.59,0,0,0-.59.57,1.84,1.84,0,0,0-.33.57,2,2,0,0,0-.1.68v.08h3.87V8Z"/><path class="cls-1" d="M163.78,8.1a1.87,1.87,0,0,1-1.68-1,5.49,5.49,0,0,1-.61-2.87,6.11,6.11,0,0,1,.64-3.14A2,2,0,0,1,164,0q2.25,0,2.25,4a5.77,5.77,0,0,1-.64,3A2,2,0,0,1,163.78,8.1Zm.13-7.6a1.53,1.53,0,0,0-1.4.92,6,6,0,0,0-.5,2.75,5.51,5.51,0,0,0,.48,2.57,1.46,1.46,0,0,0,2.7,0,5.77,5.77,0,0,0,.48-2.62C165.67,1.7,165.08.5,163.91.5Z"/><path class="cls-1" d="M167.85,8V7.6a3.2,3.2,0,0,1,.06-.65,2.14,2.14,0,0,1,.18-.54,2.59,2.59,0,0,1,.3-.46,4.36,4.36,0,0,1,.43-.43c.16-.14.34-.29.55-.44l.67-.49.66-.5a3.85,3.85,0,0,0,.53-.54,2.22,2.22,0,0,0,.37-.63,2.44,2.44,0,0,0,.13-.8A1.58,1.58,0,0,0,171.3.93,1.59,1.59,0,0,0,170.1.5a2.22,2.22,0,0,0-1,.23,4.12,4.12,0,0,0-.95.63V.77a4,4,0,0,1,1-.53,3,3,0,0,1,1.07-.2,2.57,2.57,0,0,1,.85.14,1.89,1.89,0,0,1,.65.41,1.72,1.72,0,0,1,.41.63,2.14,2.14,0,0,1,.15.82,2.61,2.61,0,0,1-.16,1,2.77,2.77,0,0,1-.42.75,3,3,0,0,1-.62.62c-.23.19-.48.38-.75.58s-.65.47-.89.66a3.23,3.23,0,0,0-.59.57,1.66,1.66,0,0,0-.33.57,2,2,0,0,0-.1.68v.08h3.87V8Z"/><path class="cls-1" d="M176.53,0V8H176V.78a3.83,3.83,0,0,1-.85.63,8.5,8.5,0,0,1-1.05.46V1.41a3.61,3.61,0,0,0,.63-.26,5,5,0,0,0,.56-.31,6.55,6.55,0,0,0,.53-.39q.26-.21.51-.45Z"/></g></g></svg>