<?xml version="1.0" encoding="iso-8859-1"?>
<!-- Generator: Adobe Illustrator 17.1.0, SVG Export Plug-In . SVG Version: 6.00 Build 0)  -->
<!DOCTYPE svg PUBLIC "-//W3C//DTD SVG 1.1//EN" "http://www.w3.org/Graphics/SVG/1.1/DTD/svg11.dtd">
<svg version="1.1" id="Capa_1" xmlns="http://www.w3.org/2000/svg" xmlns:xlink="http://www.w3.org/1999/xlink" x="0px" y="0px"
	 viewBox="0 0 296.455 296.455" style="enable-background:new 0 0 296.455 296.455;" xml:space="preserve">
<g>
	<polygon points="105.772,108.304 190.703,108.304 148.238,68.935 	"/>
	<path d="M82.492,130.304l-51.587,47.857v100.143h81V238.96c0-20.025,15.973-36.262,35.999-36.262
		c20.028,0,36.001,16.236,36.001,36.262v39.344h81V178.165l-50.921-47.861H82.492z"/>
	<path d="M30.905,123.208L3.218,148.903c-4.082,3.783-4.306,10.158-0.526,14.242c1.988,2.143,4.695,3.227,7.402,3.227
		c2.452,0,4.913-0.891,6.853-2.688l131.29-121.719l131.288,121.719c1.938,1.799,4.399,2.688,6.849,2.688
		c2.707,0,5.405-1.088,7.395-3.227c3.782-4.084,3.542-10.459-0.542-14.242L155.091,20.839c-1.933-1.793-4.392-2.688-6.852-2.688
		c-2.46,0-5.242,0.895-7.172,2.688l-89.162,82.359V75.727v-6.424h-21v26.434V123.208z"/>
</g>
<g>
</g>
<g>
</g>
<g>
</g>
<g>
</g>
<g>
</g>
<g>
</g>
<g>
</g>
<g>
</g>
<g>
</g>
<g>
</g>
<g>
</g>
<g>
</g>
<g>
</g>
<g>
</g>
<g>
</g>
</svg>
