<svg id="Capa_1" enable-background="new 0 0 512 512" height="512" viewBox="0 0 512 512" width="512" xmlns="http://www.w3.org/2000/svg"><g><path d="m148.606 178.238c17.486 13.508 53.381 59.555 56.58 64.934 5.822-17.018 24.838-55.119 27.06-58.797-54.778-106.391-156.994-106.42-156.994-106.42 36.769 27.578 59.5 63.574 73.354 100.283z"/><path d="m32.35 258.745c26.71 37.97 21.91 75.93 19.7 87.09h132.06c1.98-21.16 5.08-41.25 9.27-60.22-52.03-117.02-148.26-117.24-148.26-117.24 54.87 41.15 78.49 107.28 87.97 167.11-23.68-70.99-100.74-76.74-100.74-76.74z"/><path d="m256.26 345.835c9.529-57.482 33.258-113.582 77.33-153.08 14.11-32.26 34.74-62.17 64.69-84.63 0 0-160.51.32-184.02 237.71z"/><path d="m466.88 168.375s-148.79.01-180.18 177.46h173.25c-2.21-11.16-7.01-49.12 19.7-87.09 0 0-77.06 5.75-100.74 76.74 9.48-59.83 33.1-125.96 87.97-167.11z"/><path d="m0 375.835h512v58.21h-512z"/></g></svg>