<?xml version="1.0" encoding="utf-8"?>
<!-- Generator: Adobe Illustrator 25.2.1, SVG Export Plug-In . SVG Version: 6.00 Build 0)  -->
<svg version="1.1" id="圖層_1" xmlns="http://www.w3.org/2000/svg" xmlns:xlink="http://www.w3.org/1999/xlink" x="0px" y="0px"
	 viewBox="0 0 200 93.1" style="enable-background:new 0 0 200 93.1;" xml:space="preserve">
<style type="text/css">
	.st0{fill:#FFFFFF;}
</style>
<g id="圖層_2_1_">
	<g id="圖層_2-2">
		<path class="st0" d="M36,91.9h-1.8L31,86.8l-23.3-34v33.5c0,2.3,1.2,3.7,3.3,3.7h2.3v1.8H0v-1.8h2.6c1.9-0.2,3.2-1.9,3.2-3.7V53.8
			c0.1-1.4-1-2.7-2.4-2.7c-0.1,0-0.3,0-0.4,0H0v-1.8h8.9L34,85.9V53.7c0-2-1.5-2.6-3-2.6h-2.7v-1.8h13.4v1.8h-2.8
			c-1.7,0-2.9,0.9-2.9,2.6L36,91.9z"/>
		<path class="st0" d="M63.4,93.1c-10.1,0-13.7-8.3-13.7-14.5c0-11.2,8.3-15.2,13.7-15.2c6.9,0,13.4,5,13.4,15.2
			C76.8,85.1,73,93.1,63.4,93.1z M70.6,68.5c-1.8-2.1-4.4-3.3-7.2-3.2c-2.9,0-5.6,1.2-7.5,3.3c-1.9,2.1-2.8,5.5-2.8,10
			c0,4.3,1.6,12.7,10.4,12.7c7.9,0,9.9-7.8,9.9-12.7C73.4,74,72.5,70.6,70.6,68.5z"/>
		<path class="st0" d="M89.5,69.8c0-1.6-1.8-1.6-4.7-1.6v-1.8c2.7-0.1,5.3-0.8,7.7-2.1v4.4c2.2-2.6,3.7-4.4,7.7-4.4
			c2.3-0.1,4.5,0.8,5.9,2.6c0.5,0.7,0.8,1.5,1.1,2.3c1.8-3.1,5.1-5,8.7-4.9c4.2,0,7.3,2.8,7.3,8v15.6c-0.1,1.1,0.7,2.1,1.8,2.2
			c0.2,0,0.3,0,0.5,0h2.1v1.8h-11.7v-1.8h2.4c1.2,0,1.9-0.8,1.9-2.2V72.3c0-3.9-2-6.2-5-6.2c-2.6,0-6.5,2.2-7.4,5.5v16.3
			c-0.1,1.1,0.7,2.1,1.8,2.2c0.1,0,0.3,0,0.4,0h2.1v1.8h-12v-1.8h2.5c1.1,0,2-1,2-2.1c0,0,0,0,0,0V72.6c0-3.2-1.2-6.5-5.3-6.5
			c-3.4,0.2-6.3,2.7-6.9,6.1V88c-0.1,1,0.6,2,1.6,2.1c0.1,0,0.3,0,0.4,0h2.3v1.8h-12v-1.8h1.8c1,0,2.8-0.3,2.8-2.1L89.5,69.8z"/>
		<path class="st0" d="M152.5,90c-2.7,2-6.1,3.1-9.5,3c-2.7,0-7.4-1.3-7.4-7c0-2.3,1.1-4.5,3.1-5.8c2.8-2,7.9-3.5,15.6-4.5v-3.8
			c0-3.9-3.8-6.4-7.3-6.4c-4.4,0-6.4,2.7-6.4,3.9V70c0.1,0.7,0.4,2.3-1.8,2.3c-1,0.1-1.8-0.6-1.9-1.6c0-0.1,0-0.2,0-0.2
			c0-3.6,4.2-6.9,10-6.9c6.4,0,10.4,4.2,10.4,8.2v13.5c0,2.2,0,5.8,1.3,5.8c0.6,0,1.3-1.1,2.1-3.2l1.7,0.9c-1.2,3.7-2.9,4.1-4.4,4.1
			c-3.2,0-3.4-2.9-3.6-4.8L152.5,90z M154.2,77.6c-6.1,1-10.4,2.3-12.9,4c-1.6,0.9-2.7,2.6-2.7,4.4c0,3.2,2.9,5.2,5.6,5.2
			c3.8,0,9.4-2.6,10-6.9L154.2,77.6z"/>
		<path class="st0" d="M194.6,86.8c0,2.4,1.3,3.2,2.9,3.2h2.5v1.8h-8.5v-3.7c-2.3,2.9-4.7,4.1-9.2,4.1c-7.1,0-12.1-5.9-12.1-14.6
			c-0.1-7.3,5.8-13.3,13.1-13.4c3.1-0.1,6,1.1,8.2,3.2V54.7c0-1.5-0.5-1.6-4.7-1.6v-1.8c2.7-0.2,5.4-1,7.8-2.4V86.8z M191.5,70.8
			c-0.7-1.4-3.8-4.4-8.2-4.4c-4.6,0-9.7,3.8-9.7,11.3c0,5.4,2.5,12.6,9.4,12.6c3.9,0,7.4-2.6,8.4-6.4L191.5,70.8z"/>
		<path class="st0" d="M158.9,41.8c0,0,0.4,0.2,0.4,0.3s-0.9,0.5-1.1,0.5c-1.6,0.3-2.6-1.3-4.5-1.6c-2.5-0.5-3.5,2-5.7,1.3
			c-1.1-0.5-2.1-1.4-2.6-2.5c-1.1-1.7-0.8-2.6-1.6-3.7c-0.6-0.9-2-1.8-6.6-1.9l-3.5-14.8L158.9,41.8z"/>
		<path class="st0" d="M132.2,36.3c0.1,0.5,0.3,1.8-0.1,1.9c-0.2,0.1-0.6-0.2-0.7-0.3c-0.9-0.9-3.9-3.9-8-8l-2-9.7l2.8-1.3l5.7,3.6
			l-1.7,1.9c-2.1,2-2,2.8-1.9,4C126.8,31.3,131.6,32.8,132.2,36.3z"/>
		<path class="st0" d="M127.5,37.8c0.3,0.4,0.2,0.9-0.2,1.2c0,0-0.1,0.1-0.1,0.1c-0.5,0.4-1.5-0.4-3.4-1.3s-2.8-1.5-3.4-1.4
			c-1.2,0.2-1.3,1.4-3.6,2.8c-0.8,0.5-1,0.5-1.2,0.5c-0.9,0-1.5-1-2.8-3c-2-3.2-2.4-3.9-3.1-3.9s-1.4,1-1.9,1.6
			c-0.7,1-0.4,2-0.9,2.1s-1.3-0.7-1.9-1.5c-1.7-2.5-0.9-4.4-2-6.8c-0.7-1.5-1.8-2.8-3.3-3.6l-3-13.9l0,0l15.6,13.8L127.5,37.8z"/>
		<path class="st0" d="M82.1,25.2l-5.9,6.3c0,0,0.1-0.1,0.1-0.2l-0.1,0.2l0,0c-0.6,0.8-1.8,1-2.7,0.4c-0.5-0.4-0.8-1-0.7-1.6
			l-0.4-7.1l2.8-2.7L82.1,25.2z"/>
		<rect x="74.8" y="28" transform="matrix(0.682 -0.7314 0.7314 0.682 4.4133 66.8956)" class="st0" width="8.6" height="0.7"/>
		<path class="st0" d="M76.2,31.9c-0.1,0-0.2,0-0.2-0.1c-0.1-0.1-0.2-0.3-0.1-0.5l0.1-0.2c0.1-0.1,0.3-0.2,0.5-0.1
			c0.2,0.1,0.2,0.3,0.1,0.5c0,0.1-0.1,0.2-0.2,0.2l0,0C76.4,31.8,76.3,31.9,76.2,31.9z"/>
		<path class="st0" d="M74.7,32.6c-0.2,0-0.4,0-0.7-0.1c-1-0.3-1.6-1.2-1.6-2.2L72,23.2h0.7l0.4,7.1l0,0c0,0.9,0.6,1.6,1.5,1.6
			c0.5,0,1-0.2,1.3-0.6l0.6,0.4C76,32.3,75.4,32.6,74.7,32.6z"/>
		<path class="st0" d="M40.7,43.5c-0.1,0-0.2-0.1-0.3-0.1c-0.1-0.1-0.1-0.3,0-0.5l15.8-15.7c0.1-0.1,0.3-0.1,0.5,0l6,5.3
			c0.1,0.1,0.2,0.3,0,0.5l-2,2.6c-2,2.6-2.8,3.5-3.7,3.3c-0.3-0.1-0.6-0.3-0.8-0.6c-0.7-0.8-1.3-1.7-1.8-2.7
			c-0.3-0.7-0.6-1.2-0.9-1.2l0,0c-0.2,0-0.4,0.1-0.6,0.2c-6.2,4.5-12,8.7-12,8.7C40.9,43.5,40.8,43.5,40.7,43.5z M56.6,28L44.2,40.2
			c2.2-1.6,5.2-3.8,8.3-6c0.3-0.2,0.6-0.3,1-0.3c0.7,0,1.1,0.7,1.5,1.5c0.4,0.9,1,1.8,1.7,2.5c0.3,0.4,0.4,0.4,0.5,0.4
			c0.5,0.1,1.5-1,3-3.1l1.8-2.4L56.6,28z"/>
		
			<rect x="60.6" y="27.6" transform="matrix(0.7172 -0.6969 0.6969 0.7172 -0.4156 54.9199)" class="st0" width="13.7" height="0.7"/>
		<path class="st0" d="M82.1,25.5c-0.1,0-0.1,0-0.2-0.1l-6.7-4.6l-2.6,2.5l-0.5-0.5l2.8-2.7c0.1-0.1,0.3-0.1,0.4,0l6.6,4.5
			l14.5-14.6c0.1-0.1,0.3-0.1,0.5,0l0.1,0.1l15.6,13.8l-0.5,0.5L96.8,10.9L82.3,25.5C82.3,25.5,82.2,25.6,82.1,25.5z"/>
		<path class="st0" d="M129.8,22.9l-5.5-3.5l-2.6,1.2l-0.3-0.6l2.8-1.2c0.1-0.1,0.2-0.1,0.3,0l5.7,3.6L129.8,22.9z"/>
		<path class="st0" d="M157.8,43c-0.8-0.1-1.5-0.4-2.2-0.8c-0.6-0.4-1.2-0.7-1.9-0.8c-0.9-0.1-1.9,0.1-2.7,0.7c-0.9,0.6-2,0.8-3,0.6
			c-1.2-0.5-2.3-1.4-2.9-2.6l0,0c-0.5-0.7-0.8-1.5-1-2.3c-0.1-0.5-0.3-1-0.6-1.4c-0.6-0.8-1.8-1.7-6.3-1.8c-0.2,0-0.3-0.1-0.3-0.3
			l-3.5-14.8c0-0.1,0-0.3,0.1-0.4c0.1-0.1,0.3-0.1,0.4,0l25.2,22.4c0.2,0.1,0.5,0.3,0.5,0.6s-0.4,0.7-1.3,0.8
			C158.1,43,157.9,43,157.8,43z M153.1,40.6c0.2,0,0.5,0,0.7,0.1c0.8,0.2,1.5,0.5,2.1,0.9c0.6,0.5,1.4,0.8,2.2,0.7
			c0.2,0,0.4-0.1,0.6-0.2h-0.1l-24.4-21.7l3.2,13.5c4.6,0.1,5.9,1.1,6.6,2c0.3,0.5,0.6,1.1,0.7,1.6c0.2,0.8,0.5,1.5,0.9,2.1l0,0
			c0.5,1,1.4,1.8,2.4,2.3c0.9,0.2,1.8,0,2.5-0.5C151.4,40.9,152.2,40.6,153.1,40.6L153.1,40.6z"/>
		
			<rect x="129.4" y="20.6" transform="matrix(0.7533 -0.6576 0.6576 0.7533 18.7205 91.8601)" class="st0" width="4.9" height="0.7"/>
		<path class="st0" d="M132.1,38.7c-0.3-0.1-0.6-0.2-0.8-0.5c-1-0.9-4.1-4.1-8-8c0-0.1-0.1-0.1-0.1-0.2l-2-9.7l0.7-0.1l1.9,9.6
			c3.8,3.9,6.9,7,7.9,8c0.1,0.1,0.2,0.2,0.3,0.2c0-0.5,0-1-0.1-1.5c-0.3-1.8-1.7-3-3.1-4.2s-2.6-2.3-2.7-3.7s-0.2-2.2,2-4.3l1.7-1.8
			l0.5,0.5l-1.7,1.9c-2,2-1.9,2.6-1.8,3.7s1.3,2.2,2.5,3.3c1.4,1.2,2.9,2.6,3.3,4.6c0.2,1.2,0.3,2.1-0.2,2.3
			C132.2,38.7,132.1,38.7,132.1,38.7z"/>
		<rect x="112" y="22" transform="matrix(0.9108 -0.4128 0.4128 0.9108 1.2255 50.2888)" class="st0" width="10" height="0.7"/>
		<path class="st0" d="M115.6,40L115.6,40c-1.1,0-1.8-1.2-3.1-3.2l-0.1-0.2c-1.7-2.7-2.2-3.5-2.7-3.5l0,0c-0.6,0-1.2,0.9-1.6,1.5
			c-0.3,0.4-0.4,0.8-0.5,1.3c-0.1,0.4-0.2,0.8-0.6,0.9c-0.8,0.3-1.9-1.1-2.3-1.7c-0.8-1.2-1.2-2.6-1.3-4c-0.1-1-0.3-1.9-0.7-2.8
			c-0.7-1.4-1.8-2.6-3.1-3.5c-0.1,0-0.1-0.1-0.2-0.2l-3-14l0.7-0.1l2.9,13.8c1.4,0.9,2.5,2.2,3.2,3.7c0.4,1,0.6,2,0.7,3
			c0.1,1.3,0.5,2.6,1.2,3.7c0.7,1,1.3,1.5,1.5,1.4c0.1-0.1,0.1-0.3,0.1-0.4c0.1-0.6,0.3-1.1,0.6-1.6c0.5-0.7,1.2-1.8,2.2-1.8l0,0
			c0.8,0,1.2,0.6,3.2,3.9l0.1,0.2c1.2,1.9,1.8,2.8,2.5,2.9c0.1,0,0.3,0,1-0.4c0.8-0.5,1.6-1.1,2.2-1.8c0.4-0.5,0.9-0.9,1.6-1
			c0.7-0.1,1.6,0.3,3.6,1.4l1.2,0.6c0.9,0.5,1.6,0.9,1.9,0.8s0.4-0.4,0.2-0.8l-15-13.4l0.5-0.5l15.1,13.4c0,0,0.1,0,0.1,0.1
			c0.4,0.5,0.3,1.3-0.3,1.6c-0.1,0-0.1,0.1-0.2,0.1c-0.6,0.4-1.3,0-2.6-0.7l-1.2-0.6c-1.7-0.9-2.7-1.4-3.1-1.3s-0.7,0.4-1.2,0.8
			c-0.7,0.8-1.5,1.4-2.4,2C116.6,39.8,116.1,40,115.6,40z"/>
		<path class="st0" d="M22.7,8V0.2h3.6v0.5h-3.1v3.1h2.9v0.5h-2.9v3.2h3.3V8H22.7z"/>
		<path class="st0" d="M28.7,7.7V7.1c0.5,0.3,1.1,0.5,1.7,0.5c0.5,0,1-0.1,1.4-0.4c0.3-0.3,0.5-0.7,0.5-1.1c0-0.4-0.1-0.7-0.3-1
			c-0.4-0.4-0.9-0.7-1.4-1C30,3.9,29.4,3.5,29,3.1c-0.2-0.3-0.3-0.7-0.3-1.1c0-0.5,0.2-1.1,0.6-1.4C29.8,0.2,30.4,0,31.1,0
			c0.5,0,0.9,0.1,1.4,0.2v0.6c-0.5-0.2-1-0.3-1.5-0.3c-0.5,0-0.9,0.1-1.2,0.4c-0.3,0.2-0.5,0.6-0.5,1c0,0.4,0.1,0.7,0.3,1
			c0.4,0.4,0.9,0.7,1.4,1c0.5,0.3,1,0.6,1.5,1.1c0.2,0.3,0.4,0.7,0.4,1.1c0,0.6-0.2,1.1-0.6,1.5C31.7,8,31,8.2,30.4,8.1
			c-0.3,0-0.6,0-0.9-0.1C29.2,7.9,28.9,7.8,28.7,7.7z"/>
		<path class="st0" d="M37.2,0.7V8h-0.5V0.7h-2.2V0.2h5v0.5H37.2z"/>
		<path class="st0" d="M41.4,8V0.2h2c1.1-0.1,2.2,0.3,3,1C47,1.9,47.4,3,47.3,4c0,1.1-0.3,2.1-1.1,2.9c-0.8,0.8-1.9,1.2-3,1.1
			L41.4,8z M41.9,0.7v6.8h1.2c1,0.1,1.9-0.3,2.7-0.9c0.7-0.7,1-1.6,0.9-2.6c0-2.2-1.2-3.3-3.5-3.3L41.9,0.7z"/>
		<path class="st0" d="M155.1,8V7.6c0-0.2,0-0.4,0.1-0.7c0-0.2,0.1-0.4,0.2-0.5c0.1-0.1,0.2-0.3,0.3-0.4c0.1-0.2,0.3-0.3,0.4-0.4
			c0.2-0.1,0.4-0.3,0.6-0.4l0.7-0.5c0.2-0.2,0.5-0.3,0.7-0.5c0.2-0.2,0.4-0.3,0.5-0.5c0.2-0.2,0.3-0.4,0.4-0.6
			c0.1-0.3,0.1-0.5,0.1-0.8c0-0.5-0.1-0.9-0.4-1.2c-0.3-0.3-0.8-0.5-1.2-0.4c-0.3,0-0.7,0.1-1,0.2c-0.4,0.2-0.7,0.4-1,0.6V0.8
			c0.3-0.2,0.6-0.4,1-0.5c0.3-0.1,0.7-0.2,1.1-0.2c0.3,0,0.6,0,0.9,0.1c0.2,0.1,0.5,0.2,0.6,0.4c0.2,0.2,0.3,0.4,0.4,0.6
			c0.1,0.3,0.2,0.5,0.1,0.8c0,0.3,0,0.7-0.1,1c-0.1,0.3-0.2,0.5-0.4,0.8c-0.2,0.2-0.4,0.4-0.6,0.6c-0.2,0.2-0.5,0.4-0.8,0.6
			s-0.6,0.5-0.9,0.7c-0.2,0.2-0.4,0.4-0.6,0.6c-0.1,0.2-0.3,0.4-0.3,0.6c-0.1,0.2-0.1,0.4-0.1,0.7v0.1h3.9V8H155.1z"/>
		<path class="st0" d="M163.8,8.1c-0.7,0-1.4-0.4-1.7-1c-0.5-0.9-0.7-1.9-0.6-2.9c-0.1-1.1,0.2-2.2,0.6-3.1c0.4-0.7,1.1-1.1,1.9-1.1
			c1.5,0,2.2,1.3,2.2,4c0.1,1-0.2,2.1-0.6,3C165.3,7.7,164.6,8.1,163.8,8.1z M163.9,0.5c-0.6,0-1.2,0.4-1.4,0.9
			c-0.4,0.9-0.6,1.8-0.5,2.8c0,0.9,0.1,1.8,0.5,2.6c0.3,0.7,1.2,1.1,1.9,0.8c0.4-0.1,0.6-0.4,0.8-0.8c0.4-0.8,0.5-1.7,0.5-2.6
			C165.7,1.7,165.1,0.5,163.9,0.5z"/>
		<path class="st0" d="M167.9,8V7.6c0-0.2,0-0.4,0.1-0.7c0-0.2,0.1-0.4,0.2-0.5c0.1-0.2,0.2-0.3,0.3-0.5c0.1-0.2,0.3-0.3,0.4-0.4
			c0.2-0.1,0.3-0.3,0.6-0.4l0.7-0.5l0.7-0.5c0.2-0.2,0.4-0.3,0.5-0.5c0.2-0.2,0.3-0.4,0.4-0.6c0.1-0.3,0.1-0.5,0.1-0.8
			c0-0.4-0.1-0.9-0.4-1.2c-0.3-0.3-0.8-0.5-1.2-0.4c-0.3,0-0.7,0.1-1,0.2c-0.3,0.2-0.7,0.4-0.9,0.6V0.8c0.3-0.2,0.6-0.4,1-0.5
			c0.3-0.1,0.7-0.2,1.1-0.2c0.3,0,0.6,0,0.9,0.1c0.2,0.1,0.5,0.2,0.6,0.4c0.2,0.2,0.3,0.4,0.4,0.6c0.1,0.3,0.2,0.5,0.1,0.8
			c0,0.3,0,0.7-0.2,1c-0.1,0.3-0.2,0.5-0.4,0.8c-0.2,0.2-0.4,0.4-0.6,0.6c-0.2,0.2-0.5,0.4-0.8,0.6s-0.6,0.5-0.9,0.7
			c-0.2,0.2-0.4,0.4-0.6,0.6c-0.1,0.2-0.3,0.4-0.3,0.6c-0.1,0.2-0.1,0.4-0.1,0.7v0.1h3.9V8H167.9z"/>
		<path class="st0" d="M176.5,0v8H176V0.8c-0.3,0.2-0.5,0.5-0.9,0.6c-0.3,0.2-0.7,0.3-1.1,0.5V1.4c0.2-0.1,0.4-0.2,0.6-0.3
			c0.2-0.1,0.4-0.2,0.6-0.3c0.2-0.1,0.4-0.3,0.5-0.4c0.2-0.1,0.3-0.3,0.5-0.4H176.5z"/>
	</g>
</g>
</svg>
