<svg xmlns="http://www.w3.org/2000/svg" width="31.975" height="23.981" viewBox="0 0 31.975 23.981"><path d="M34.19,11.138H31.954V7.783l-4.616-.071.024,3.426H13.492l.095-3.426-4.52.071v3.426l-2.284-.071A2.285,2.285,0,0,0,4.5,13.422V29.41a2.285,2.285,0,0,0,2.284,2.284H34.19a2.285,2.285,0,0,0,2.284-2.284V13.422A2.285,2.285,0,0,0,34.19,11.138ZM28.48,8.854h2.284v4.568H28.48ZM13.635,16.633c1.38,0,2.5,1.47,2.5,3.283s-1.119,3.283-2.5,3.283-2.5-1.47-2.5-3.283,1.119-3.283,2.5-3.283ZM10.209,8.854h2.284v4.568H10.209ZM8.686,27.066s.271-2.172.886-2.582a8.758,8.758,0,0,1,2.387-.683s1.149,1.228,1.638,1.228S15.233,23.8,15.233,23.8a8.731,8.731,0,0,1,2.388.683c.723.482.9,2.582.9,2.582H8.686Zm23.22-1.083H21.628V24.842H31.906Zm0-2.284H21.628V22.558H31.906Zm0-2.284H21.628V20.274H31.906Zm0-2.284H21.628V17.99H31.906Z" transform="translate(-4.499 -7.712)" fill="#424642"/></svg>