<svg xmlns="http://www.w3.org/2000/svg" width="35.5" height="19.966" viewBox="0 0 35.5 19.966"><g transform="translate(-70.644 -5)"><g transform="translate(0 0)"><g transform="translate(70.644 5)"><path d="M1439.519,159.39a17.75,17.75,0,0,0-30.3,12.551v2.176h13.535l.083-.949a4.15,4.15,0,0,1,4.132-3.78,4.187,4.187,0,0,1,.652.052l-1.691,2.337v2.382h2.08v-1.708l1.555-2.148c.073.058.144.118.214.182a4.137,4.137,0,0,1,1.323,2.685l.083.949h13.535v-2.176a17.635,17.635,0,0,0-5.2-12.551Zm3.119,12.647h-9.624a6.215,6.215,0,0,0-1.828-3.084c-.13-.119-.264-.232-.4-.339l4.355-6.015-1.685-1.22-4.521,6.246a6.232,6.232,0,0,0-8.012,4.412H1411.3v-.1a15.67,15.67,0,0,1,31.34,0Z" transform="translate(-1409.218 -154.191)" fill="#fff"/></g></g></g></svg>