<svg xmlns="http://www.w3.org/2000/svg" xmlns:xlink="http://www.w3.org/1999/xlink" viewBox="0 0 38.91 38.93"><defs><style>.cls-1{fill:none;}.cls-2{clip-path:url(#clip-path);}.cls-3{fill:#fff;}</style><clipPath id="clip-path" transform="translate(-0.46 0.02)"><rect class="cls-1" width="39" height="39"/></clipPath></defs><g id="圖層_2" data-name="圖層 2"><g id="圖層_1-2" data-name="圖層 1"><g id="Group_382" data-name="Group 382"><g id="Group_381" data-name="Group 381"><g class="cls-2"><g id="Group_380" data-name="Group 380"><path id="Path_2991" data-name="Path 2991" class="cls-3" d="M25.75,3.89a.65.65,0,0,0-.65.65v.64H21.28a.69.69,0,0,1-.58-.24,2.11,2.11,0,0,0-.39-.4,2.59,2.59,0,1,0-3.66-.26l.08.08A3.7,3.7,0,0,0,16,5L11.77,9.65A2,2,0,0,0,11.21,11a1.9,1.9,0,0,0,.57,1.37,2,2,0,0,0,2.76,0L16,10.83v2.89l-2.45,5.64a2,2,0,0,0,0,1.41,1.25,1.25,0,0,0-.87.49L.72,36.82a1.31,1.31,0,0,0,1,2.09H38.07a1.29,1.29,0,0,0,1.29-1.31,1.31,1.31,0,0,0-.26-.78l-12-15.56a1.26,1.26,0,0,0-.72-.47V9a2,2,0,0,0,.71-.45,1.89,1.89,0,0,0,.52-1.86A2,2,0,0,0,26.4,5.31V4.54a.65.65,0,0,0-.65-.65Zm-7.14-2.6a1.3,1.3,0,1,1-1.3,1.3h0A1.31,1.31,0,0,1,18.61,1.29ZM14.77,19.86l2.49-5.74a.58.58,0,0,0,.06-.26V8.43a.65.65,0,1,0-1.3,0V9l-2.4,2.52a.65.65,0,0,1-.92,0h0a.6.6,0,0,1-.19-.45.71.71,0,0,1,.21-.49l4.19-4.66a2.12,2.12,0,0,1,.84-.58,2.18,2.18,0,0,1,.67-.1h0a1.46,1.46,0,0,1,1.22.51,2,2,0,0,0,1.63.78h4.39a.7.7,0,0,1,.7.49.65.65,0,0,1-.47.79l-.15,0H20.56a.65.65,0,0,0-.65.65h0v5.43a.75.75,0,0,0,.05.26l2.5,5.72a.67.67,0,0,1-.39.87H22a.67.67,0,0,1-.79-.44l-2-4.74a.65.65,0,0,0-.85-.34.62.62,0,0,0-.35.34l-2,4.77a.67.67,0,0,1-.78.41h0a.67.67,0,0,1-.47-.83s0,0,0,0Zm8.9.89a2,2,0,0,0,0-1.41l-2.44-5.62V9.08H25.1V20.75Zm-3.68,0H17.24l1.37-3.27ZM1.75,37.61l5.77-7.5.86,1-2.69,3.5a.65.65,0,1,0,1,.8h0l2.53-3.29.84,1a1.59,1.59,0,0,0,2.46,0l2.26-2.82a.31.31,0,0,1,.26-.11.28.28,0,0,1,.23.13l3.3,5.28a1.62,1.62,0,0,0,1.31.76H20a1.61,1.61,0,0,0,1.3-.67l3.2-4.49A.28.28,0,0,1,24.7,31a.29.29,0,0,1,.25.12L27.22,34a1.62,1.62,0,0,0,1.25.6h0A1.6,1.6,0,0,0,29.74,34l2.78-3.58,5.55,7.22Zm30-8.28-3,3.85a.3.3,0,0,1-.24.11.24.24,0,0,1-.23-.11L26,30.34a1.57,1.57,0,0,0-1.3-.6,1.59,1.59,0,0,0-1.26.67l-3.2,4.49A.26.26,0,0,1,20,35a.29.29,0,0,1-.25-.14l-3.3-5.28a1.59,1.59,0,0,0-2.21-.49,1.44,1.44,0,0,0-.39.35l-2.25,2.81a.33.33,0,0,1-.24.12.28.28,0,0,1-.23-.11l-1-1.2,4.54-5.9a.65.65,0,0,0-1-.8h0L9.2,30.07l-.86-1,5.4-7H26.11Z" transform="translate(-0.46 0.02)"/></g></g></g></g></g></g></svg>