<svg xmlns="http://www.w3.org/2000/svg" width="33.583" height="33.583" viewBox="0 0 33.583 33.583"><path d="M34.146,17.322A16.792,16.792,0,0,1,6.816,30.428a1.624,1.624,0,0,1-.125-2.411l.763-.763a1.628,1.628,0,0,1,2.159-.134,12.459,12.459,0,1,0-.8-18.843l3.436,3.436a1.083,1.083,0,0,1-.766,1.849H1.646A1.083,1.083,0,0,1,.563,12.479V2.636A1.083,1.083,0,0,1,2.412,1.87L5.755,5.213A16.791,16.791,0,0,1,34.146,17.322ZM21.9,22.657l.665-.855a1.625,1.625,0,0,0-.285-2.28l-2.756-2.143V10.312A1.625,1.625,0,0,0,17.9,8.687H16.812a1.625,1.625,0,0,0-1.625,1.625V19.5l4.429,3.445a1.625,1.625,0,0,0,2.28-.285Z" transform="translate(-0.563 -0.563)" fill="#424642"/></svg>