<svg xmlns="http://www.w3.org/2000/svg" viewBox="0 0 38.92 31.9"><defs><style>.cls-1{fill:#fff;}</style></defs><g id="圖層_2" data-name="圖層 2"><g id="圖層_1-2" data-name="圖層 1"><g id="Group_406" data-name="Group 406"><g id="Group_393" data-name="Group 393"><g id="Group_392" data-name="Group 392"><path id="Path_3001" data-name="Path 3001" class="cls-1" d="M17,6.07,14.86,3.9a.7.7,0,0,0-1-.11.71.71,0,0,0-.12,1l0,0,.08.08L16,7.07a.72.72,0,0,0,1-1Z"/></g></g><g id="Group_395" data-name="Group 395"><g id="Group_394" data-name="Group 394"><path id="Path_3002" data-name="Path 3002" class="cls-1" d="M35.17,4a.72.72,0,0,0-1-.09L34.08,4,31.91,6.15a.7.7,0,0,0-.11,1,.71.71,0,0,0,1,.12l0,0a.3.3,0,0,0,.08-.08L35.08,5A.72.72,0,0,0,35.17,4Z"/></g></g><g id="Group_397" data-name="Group 397"><g id="Group_396" data-name="Group 396"><path id="Path_3003" data-name="Path 3003" class="cls-1" d="M22.26,3.57s0,0,0-.06L21.46.56a.71.71,0,0,0-1.38.3h0a.13.13,0,0,0,0,.06l.78,2.94a.71.71,0,1,0,1.39-.29Z"/></g></g><g id="Group_399" data-name="Group 399"><g id="Group_398" data-name="Group 398"><path id="Path_3004" data-name="Path 3004" class="cls-1" d="M32,18.74c-.13-.14-.27-.27-.41-.4l.11-.21a8.07,8.07,0,0,0-3.22-11,7.56,7.56,0,0,0-.91-.43h0a8.12,8.12,0,0,0-10.07,3.53A9.22,9.22,0,0,0,6.1,16.66a9.32,9.32,0,0,0-.34,2.51v.37A6.19,6.19,0,0,0,6.15,31.9H26.54A7.71,7.71,0,0,0,32,18.74ZM22.07,8.05a6.71,6.71,0,0,1,8.7,8.73,6.3,6.3,0,0,1-.34.69v.06a7.75,7.75,0,0,0-6.48-.6,9.18,9.18,0,0,0-2.33-4.18,3.32,3.32,0,0,1,4.11-1.52.71.71,0,0,0,.9-.45.7.7,0,0,0-.38-.86,4.69,4.69,0,0,0-5.73,1.87,9.62,9.62,0,0,0-1.72-1A6.71,6.71,0,0,1,22.07,8.05Zm6,22.26a6.79,6.79,0,0,1-1.48.17H6.18a4.77,4.77,0,0,1-3.37-8.14h0A4.78,4.78,0,0,1,6.17,21H6.5a.71.71,0,0,0,.75-.66.55.55,0,0,0,0-.18c0-.14,0-.28,0-.45v-.49A7.81,7.81,0,0,1,22.72,18a.71.71,0,0,0,.8.6.74.74,0,0,0,.21-.07,6.3,6.3,0,1,1,5.72,11.23,6.43,6.43,0,0,1-1.43.52Z"/></g></g><g id="Group_401" data-name="Group 401"><g id="Group_400" data-name="Group 400"><path id="Path_3005" data-name="Path 3005" class="cls-1" d="M38.89,10.73a.7.7,0,0,0-.82-.48l-3,.78a.7.7,0,0,0-.51.86.71.71,0,0,0,.86.52h0l2.94-.78a.7.7,0,0,0,.47-.88Z"/></g></g><g id="Group_403" data-name="Group 403"><g id="Group_402" data-name="Group 402"><path id="Path_3006" data-name="Path 3006" class="cls-1" d="M38.39,17.66l-2.94-.8a.71.71,0,1,0-.39,1.37L38,19a.71.71,0,1,0,.41-1.36Z"/></g></g><g id="Group_405" data-name="Group 405"><g id="Group_404" data-name="Group 404"><path id="Path_3007" data-name="Path 3007" class="cls-1" d="M28.38.09a.71.71,0,0,0-.88.48l-.8,2.94a.7.7,0,0,0,.48.88h0a.7.7,0,0,0,.88-.48v0L28.87,1A.71.71,0,0,0,28.38.09Z"/></g></g></g></g></g></svg>