<svg xmlns="http://www.w3.org/2000/svg" width="17.039" height="25.737" viewBox="0 0 17.039 25.737"><path d="M176.229,87.017c2.294,0,4.161-2.154,4.161-4.8s-1.867-4.8-4.161-4.8-4.161,2.154-4.161,4.8S173.935,87.017,176.229,87.017Zm0-7.888a3.117,3.117,0,1,1-2.674,3.086A2.905,2.905,0,0,1,176.229,79.129Z" transform="translate(-167.709 -73.784)" fill="#fff"/><path d="M99.555,15.281c1.21,1.507.724.921,4.208,5.5a.839.839,0,0,0,1.309,0c3.5-4.6,3.019-4.017,4.209-5.5a18.427,18.427,0,0,0,3.135-4.874,7.1,7.1,0,0,0-1.2-7.338h0a9.057,9.057,0,0,0-13.59,0,7.1,7.1,0,0,0-1.2,7.338,18.424,18.424,0,0,0,3.135,4.874ZM98.886,3.967a7.374,7.374,0,0,1,11.065,0h0a5.764,5.764,0,0,1,.957,5.96A17.366,17.366,0,0,1,108,14.409c-.883,1.1-.619.763-3.579,4.667-2.957-3.9-2.7-3.568-3.579-4.667a17.367,17.367,0,0,1-2.911-4.481,5.764,5.764,0,0,1,.957-5.96Z" transform="translate(-95.898 0)" fill="#fff"/><path d="M110.331,370.577a.76.76,0,0,0-1.1-.267l-2.257,1.541a.9.9,0,0,0,0,1.451l7.113,4.857a.744.744,0,0,0,.848,0l7.113-4.857a.9.9,0,0,0,0-1.451L119.8,370.31a.76.76,0,0,0-1.1.267.9.9,0,0,0,.247,1.184l1.195.816-5.627,3.842-5.627-3.842,1.195-.816A.9.9,0,0,0,110.331,370.577Z" transform="translate(-105.996 -352.555)" fill="#fff"/></svg>