<svg xmlns="http://www.w3.org/2000/svg" width="29" height="29" viewBox="0 0 29 29"><g transform="translate(-244 -846)"><g transform="translate(257.178 852.482)"><path d="M1523.483,169.131l-4.242-3.182v-6.48a1.178,1.178,0,1,0-2.357,0v7.07a1.176,1.176,0,0,0,.472.943l4.713,3.535a1.178,1.178,0,0,0,1.414-1.885Z" transform="translate(-1516.884 -158.29)" fill="#fff"/></g><g transform="translate(244 846)"><g transform="translate(0)"><path d="M1508.321,146.691a14.5,14.5,0,1,0,14.5,14.5A14.516,14.516,0,0,0,1508.321,146.691Zm0,26.754a12.254,12.254,0,1,1,12.253-12.254A12.269,12.269,0,0,1,1508.321,173.445Z" transform="translate(-1493.821 -146.691)" fill="#fff"/></g></g></g></svg>