<?xml version="1.0" encoding="utf-8"?>
<!-- Generator: Adobe Illustrator 25.2.1, SVG Export Plug-In . SVG Version: 6.00 Build 0)  -->
<svg version="1.1" id="圖層_1" xmlns="http://www.w3.org/2000/svg" xmlns:xlink="http://www.w3.org/1999/xlink" x="0px" y="0px"
	 viewBox="0 0 38.9 38.9" style="enable-background:new 0 0 38.9 38.9;" xml:space="preserve">
<style type="text/css">
	.st0{clip-path:url(#SVGID_2_);}
	.st1{fill:#FFFFFF;}
</style>
<g id="圖層_2_1_">
	<g id="圖層_1-2">
		<g id="Group_385">
			<g id="Group_384">
				<g>
					<defs>
						<rect id="SVGID_1_" x="-0.4" y="-0.4" width="39" height="39"/>
					</defs>
					<clipPath id="SVGID_2_">
						<use xlink:href="#SVGID_1_"  style="overflow:visible;"/>
					</clipPath>
					<g class="st0">
						<g id="Group_383">
							<path id="Path_2992" class="st1" d="M21.5,6.5c-0.2-0.4-0.7-0.6-1.1-0.6h-0.3V4.4c0.4-0.2,0.6-0.7,0.6-1.1V1.9
								c0-0.5-0.2-0.9-0.6-1.1V0.6c0-0.4-0.3-0.7-0.6-0.7c-0.4,0-0.7,0.3-0.7,0.6c0,0,0,0,0,0h-2.9c-0.6,0-1,0.4-1,1
								c0,0.3,0.1,0.5,0.3,0.7l0.3,0.3l-0.3,0.3c-0.4,0.4-0.4,1,0,1.4c0.2,0.2,0.4,0.3,0.7,0.3h2.9v1.3h-0.2c-0.5,0-0.9,0.2-1.1,0.7
								l-0.8,1.3c-1-0.2-2.1,0.4-2.3,1.4c-0.2,0.6,0,1.3,0.5,1.8L0.2,37c-0.4,0.6-0.1,1.4,0.5,1.8c0.2,0.1,0.4,0.2,0.6,0.2h36.3
								c0.7,0,1.3-0.6,1.3-1.3c0,0,0,0,0,0c0-0.2-0.1-0.4-0.2-0.6L21.5,6.5z M16.7,1.9h2.8v1.3h-2.8C17,2.9,17,2.3,16.7,1.9
								L16.7,1.9z M20.4,7.1l5,8.8l-0.9,1.2l-1.2-1.5c-0.2-0.3-0.6-0.5-1-0.4c-0.4,0-0.7,0.2-0.9,0.5L21,16.1l-3.1-5.4
								c0.4-0.7,0.3-1.5-0.1-2.1l0.8-1.4L20.4,7.1z M19.6,18.1l-1.8-2.9c-0.3-0.6-1.1-0.7-1.6-0.4c0,0,0,0,0,0
								c-0.1,0.1-0.2,0.2-0.3,0.3l-1.2,1.5l-0.8-1l2.2-4h0.2c0.2,0,0.5,0,0.7-0.1l3.3,5.7L19.6,18.1z M16.2,9.1
								c0.4,0,0.6,0.3,0.6,0.6s-0.3,0.7-0.6,0.7c-0.4,0-0.6-0.3-0.6-0.6c0,0,0,0,0,0C15.5,9.4,15.8,9.1,16.2,9.1
								C16.2,9.1,16.2,9.1,16.2,9.1L16.2,9.1z M13.1,16.9l0.6,0.7c0.2,0.3,0.6,0.4,0.9,0.4c0.4,0,0.7-0.2,0.9-0.5l1.2-1.5l1.8,2.9
								c0.2,0.3,0.6,0.6,1,0.6l0,0c0.4,0,0.8-0.2,1-0.5l0.4-0.5l1,1.7c-0.3,0.3-0.4,0.7-0.5,1.1l-5.6,1.5c-0.6-0.9-1.8-1.1-2.7-0.4
								c-0.9,0.6-1.1,1.8-0.4,2.7c0.6,0.9,1.8,1.1,2.7,0.5l6.8,5c0,0,0,0.1,0,0.1L16,31.6c-0.5-1-1.7-1.3-2.6-0.9
								c-0.7,0.3-1.1,1-1.1,1.7c0,0.3,0.1,0.6,0.2,0.8l-4.4,4.3H1.3L13.1,16.9z M23.4,20.8c0.4,0,0.6,0.3,0.6,0.6s-0.3,0.6-0.6,0.6
								c-0.4,0-0.6-0.3-0.6-0.6l0,0l0,0C22.7,21.1,23,20.8,23.4,20.8C23.3,20.8,23.3,20.8,23.4,20.8L23.4,20.8z M14.9,24.1
								c0,0.4-0.3,0.6-0.6,0.6s-0.7-0.3-0.7-0.6c0-0.4,0.3-0.6,0.6-0.6c0,0,0,0,0,0l0,0C14.6,23.4,14.9,23.7,14.9,24.1z M13.6,32.5
								c0-0.4,0.3-0.6,0.7-0.6s0.6,0.3,0.6,0.6c0,0.4-0.3,0.6-0.7,0.6l0,0C13.9,33.1,13.6,32.8,13.6,32.5
								C13.6,32.5,13.6,32.4,13.6,32.5L13.6,32.5z M10,37.6l3.4-3.4c0.3,0.1,0.5,0.2,0.8,0.2c0.9,0,1.7-0.7,1.9-1.5l6.1-0.8
								c0.5,1,1.7,1.3,2.6,0.8c1-0.5,1.3-1.7,0.8-2.6c-0.5-0.9-1.7-1.3-2.6-0.8c-0.1,0-0.1,0.1-0.2,0.1l-6.8-5
								c0-0.1,0.1-0.3,0.1-0.4l5.6-1.6c0.8,0.7,2.1,0.7,2.8-0.1c0.5-0.6,0.7-1.4,0.4-2.1c-0.4-0.6-1.2-1-2-0.8l-1.3-2.2l0.6-0.8
								l1.2,1.5c0.2,0.3,0.6,0.5,0.9,0.5c0.4,0,0.7-0.2,1-0.5l0.7-0.9l11.6,20.5H10z M23.3,31.1c0-0.4,0.3-0.7,0.6-0.7
								c0.4,0,0.7,0.3,0.7,0.6c0,0.4-0.3,0.7-0.6,0.7c0,0,0,0,0,0l0,0C23.6,31.8,23.4,31.5,23.3,31.1z"/>
						</g>
					</g>
				</g>
			</g>
			<path id="Path_2993" class="st1" d="M33.7,36c0.1,0.3,0.5,0.5,0.8,0.4s0.5-0.5,0.4-0.8c0,0,0-0.1-0.1-0.1l0,0l-4.9-8.5
				c-0.2-0.3-0.6-0.4-0.9-0.2c-0.3,0.2-0.4,0.6-0.2,0.9l0,0L33.7,36z"/>
			<path id="Path_2994" class="st1" d="M28.7,25.1c0,0.4-0.3,0.6-0.6,0.6s-0.6-0.3-0.6-0.6c0-0.4,0.3-0.6,0.6-0.6l0,0l0,0
				C28.4,24.4,28.7,24.7,28.7,25.1z"/>
		</g>
	</g>
</g>
</svg>
