<svg xmlns="http://www.w3.org/2000/svg" width="86.742" height="37.452" viewBox="0 0 86.742 37.452"><g transform="translate(-133.911 -1693.874)"><g transform="translate(134.411 1711.87)"><path d="M149.825,1834.547h-.752l-1.375-2.176-9.991-14.554v14.354a1.4,1.4,0,0,0,1.427,1.6h.986v.776h-5.709v-.776h1.116a1.552,1.552,0,0,0,1.349-1.6v-13.929a1.115,1.115,0,0,0-1.22-1.175h-1.246v-.775h3.815l10.769,15.7v-13.8c0-.85-.623-1.125-1.3-1.125h-1.142v-.775h5.735v.775h-1.219a1.108,1.108,0,0,0-1.246,1.125Z" transform="translate(-134.411 -1816.117)" fill="#f2f7fb" stroke="#f8f1f1" stroke-width="1"/><path d="M260.307,1863.106c-4.334,0-5.891-3.551-5.891-6.227,0-4.8,3.555-6.5,5.891-6.5,2.958,0,5.735,2.126,5.735,6.5C266.042,1859.656,264.407,1863.106,260.307,1863.106Zm3.088-10.553a3.989,3.989,0,0,0-3.088-1.375,4.278,4.278,0,0,0-3.218,1.4,6.242,6.242,0,0,0-1.219,4.3c0,1.825.7,5.427,4.437,5.427,3.4,0,4.256-3.326,4.256-5.427A6.561,6.561,0,0,0,263.394,1852.553Z" transform="translate(-233.11 -1844.151)" fill="#f2f7fb" stroke="#f8f1f1" stroke-width="1"/><path d="M341.191,1854.867c0-.675-.779-.7-2-.7v-.775a8.044,8.044,0,0,0,3.322-.9v1.876c.934-1.125,1.583-1.876,3.3-1.876a3.038,3.038,0,0,1,2.543,1.125,3.492,3.492,0,0,1,.467.976,4.224,4.224,0,0,1,3.737-2.1c1.79,0,3.14,1.2,3.14,3.451v6.652a.865.865,0,0,0,.96.95h.908v.776h-5.034v-.776h1.012c.519,0,.83-.35.83-.95v-6.652c0-1.675-.857-2.676-2.154-2.676a3.535,3.535,0,0,0-3.166,2.375v6.977a.837.837,0,0,0,.96.925h.882v.776h-5.112v-.776h1.09a.888.888,0,0,0,.856-.925v-6.552c0-1.35-.493-2.8-2.258-2.8a3.191,3.191,0,0,0-2.958,2.6v6.777a.8.8,0,0,0,.856.9h.986v.776h-5.138v-.776H340c.441,0,1.194-.125,1.194-.9Z" transform="translate(-302.836 -1845.889)" fill="#f2f7fb" stroke="#f8f1f1" stroke-width="1"/><path d="M469.1,1862.244a6.63,6.63,0,0,1-4.074,1.3,3.012,3.012,0,0,1-1.868-5.5c1.194-.875,3.4-1.5,6.669-1.926v-1.65a3,3,0,0,0-3.14-2.751c-1.869,0-2.751,1.15-2.751,1.675v.3c.052.275.156,1-.752,1a.737.737,0,0,1-.8-.776c0-1.55,1.79-2.976,4.308-2.976,2.751,0,4.463,1.8,4.463,3.526v5.8c0,.925,0,2.5.545,2.5.233,0,.545-.475.882-1.375l.727.375c-.519,1.6-1.22,1.775-1.894,1.775-1.375,0-1.479-1.226-1.557-2.076Zm.727-5.326a14.893,14.893,0,0,0-5.527,1.726,2.144,2.144,0,0,0-1.142,1.9,2.341,2.341,0,0,0,2.387,2.226c1.635,0,4.022-1.125,4.282-2.951Z" transform="translate(-403.7 -1844.614)" fill="#f2f7fb" stroke="#f8f1f1" stroke-width="1"/><path d="M556.018,1831.586c0,1.05.571,1.375,1.246,1.375h1.064v.776h-3.633v-1.6a4.395,4.395,0,0,1-3.944,1.776c-3.062,0-5.164-2.526-5.164-6.277a5.675,5.675,0,0,1,5.605-5.727,4.767,4.767,0,0,1,3.5,1.376v-5.477c0-.625-.208-.7-2-.7v-.775a7.4,7.4,0,0,0,3.322-1.026Zm-1.323-6.9a4.112,4.112,0,0,0-3.5-1.9c-1.972,0-4.152,1.625-4.152,4.852,0,2.325,1.064,5.4,4.048,5.4a3.736,3.736,0,0,0,3.607-2.751Z" transform="translate(-472.586 -1815.306)" fill="#f2f7fb" stroke="#f8f1f1" stroke-width="1"/></g><g transform="translate(151.874 1695.374)"><g transform="translate(13.564 0.051)"><path d="M467.992,1753.614c.016.009.148.066.146.139,0,.124-.4.207-.447.22-.706.149-1.128-.544-1.922-.693-1.075-.2-1.513.842-2.456.546a2.289,2.289,0,0,1-1.123-1.05c-.48-.732-.341-1.127-.684-1.6-.274-.383-.844-.8-2.831-.817l-.492-2.063-1.022-4.283,2.96,2.625Z" transform="translate(-430.888 -1740.222)" fill="#f2f7fb" stroke="#f8f1f1" stroke-width="1"/><path d="M432.486,1750.591c.035.192.139.759-.023.83-.092.041-.234-.091-.293-.146-.391-.369-1.684-1.67-3.418-3.443l-.836-4.145,1.182-.536,2.424,1.538-.718.8c-.891.879-.88,1.179-.809,1.714C430.156,1748.416,432.206,1749.062,432.486,1750.591Z" transform="translate(-406.834 -1739.516)" fill="#f2f7fb" stroke="#f8f1f1" stroke-width="1"/><path d="M381.434,1734.37a.363.363,0,0,1-.136.545c-.223.158-.643-.157-1.453-.58s-1.21-.631-1.44-.586c-.5.1-.56.612-1.563,1.214-.324.2-.434.213-.524.208-.381-.016-.658-.446-1.2-1.306-.861-1.374-1.035-1.664-1.318-1.666-.337,0-.621.408-.817.69-.308.442-.188.833-.379.9-.217.081-.581-.3-.823-.659-.727-1.062-.368-1.866-.836-2.914a3.61,3.61,0,0,0-1.4-1.547l-1.271-5.981.012-.013,6.682,5.936Z" transform="translate(-357.784 -1722.676)" fill="#f2f7fb" stroke="#f8f1f1" stroke-width="1"/><path d="M313.333,1748.751l-2.528,2.711a.854.854,0,0,0,.051-.073l-.051.073-.006.007a.817.817,0,0,1-1.456-.545l-.168-3.038,1.2-1.162Z" transform="translate(-309.175 -1742.455)" fill="#f2f7fb" stroke="#f8f1f1" stroke-width="1"/></g><g transform="translate(0 0)"><line y1="2.711" x2="2.528" transform="translate(15.195 6.348)" fill="none" stroke="#f8f1f1" stroke-linejoin="round" stroke-width="3"/><path d="M318.357,1773.073a.818.818,0,0,0,.051-.073Z" transform="translate(-303.162 -1764.014)" fill="#f2f7fb" stroke="#f8f1f1" stroke-linejoin="round" stroke-width="3"/><path d="M309.175,1753.274l.168,3.038a.817.817,0,0,0,1.456.545l.006-.008" transform="translate(-295.611 -1747.79)" fill="#f2f7fb" stroke="#f8f1f1" stroke-linejoin="round" stroke-width="3"/><path d="M242.116,1765.94l-2.558-2.254-6.786,6.721c.324-.236,2.648-1.931,5.15-3.735a.577.577,0,0,1,.327-.121c.413-.009.507.876,1.285,1.691.157.165.217.2.286.213.313.063.633-.324,1.44-1.384C241.576,1766.656,241.86,1766.286,242.116,1765.94Z" transform="translate(-232.773 -1756.354)" fill="#f2f7fb" stroke="#f8f1f1" stroke-linejoin="round" stroke-width="3"/><line y1="4.103" x2="4.221" transform="translate(9.343 5.484)" fill="none" stroke="#f8f1f1" stroke-linejoin="round" stroke-width="3"/><path d="M326.361,1728.375l-6.682-5.937-.057-.051-6.289,6.348-2.963-2.027-1.2,1.163" transform="translate(-295.61 -1722.387)" fill="#f2f7fb" stroke="#f8f1f1" stroke-linejoin="round" stroke-width="3"/><path d="M431.521,1744.69l-2.424-1.538-1.182.536" transform="translate(-393.269 -1739.465)" fill="#f2f7fb" stroke="#f8f1f1" stroke-linejoin="round" stroke-width="3"/><path d="M457.161,1744.01l1.514,6.347c1.988.022,2.557.434,2.831.817.343.476.2.87.684,1.6a2.289,2.289,0,0,0,1.123,1.05c.943.3,1.381-.748,2.456-.546.794.15,1.216.842,1.922.693.051-.013.444-.1.447-.22,0-.074-.13-.131-.146-.139Z" transform="translate(-417.323 -1740.171)" fill="#f2f7fb" stroke="#f8f1f1" stroke-linejoin="round" stroke-width="3"/><line x1="1.586" y2="1.386" transform="translate(38.252 3.839)" fill="none" stroke="#f8f1f1" stroke-linejoin="round" stroke-width="3"/><path d="M427.915,1746.171l.836,4.145c1.734,1.773,3.027,3.073,3.418,3.442.059.055.2.188.293.146.163-.072.059-.639.023-.831-.28-1.529-2.33-2.175-2.491-3.389-.072-.535-.082-.835.809-1.714l.718-.8" transform="translate(-393.269 -1741.948)" fill="#f2f7fb" stroke="#f8f1f1" stroke-linejoin="round" stroke-width="3"/><line x1="3.895" y2="1.765" transform="translate(30.751 4.223)" fill="none" stroke="#f8f1f1" stroke-linejoin="round" stroke-width="3"/><path d="M368.277,1722.75l1.271,5.982a3.609,3.609,0,0,1,1.4,1.547c.469,1.048.11,1.853.836,2.915.242.354.606.74.823.659.192-.069.072-.46.379-.9.2-.282.48-.693.817-.69.283,0,.457.292,1.318,1.665.539.86.816,1.29,1.2,1.307.091,0,.2-.013.524-.208,1-.6,1.059-1.113,1.563-1.214.23-.045.634.164,1.44.586s1.23.738,1.453.58a.363.363,0,0,0,.136-.545l-6.464-5.758" transform="translate(-344.22 -1722.685)" fill="#f2f7fb" stroke="#f8f1f1" stroke-linejoin="round" stroke-width="3"/></g></g></g></svg>