<svg xmlns="http://www.w3.org/2000/svg" width="29" height="29" viewBox="0 0 29 29"><path d="M1580.693,148.635a14.5,14.5,0,1,0,14.5,14.5A14.516,14.516,0,0,0,1580.693,148.635Zm0,27.092a12.592,12.592,0,1,1,12.592-12.592A12.606,12.606,0,0,1,1580.693,175.727Z" transform="translate(-1566.193 -148.635)" fill="#fff"/><path d="M1588.776,165.013V159.6a2.745,2.745,0,0,1,1.339,1.066.954.954,0,0,0,1.594-1.049,4.648,4.648,0,0,0-2.933-2V156.1a.954.954,0,0,0-1.908,0v1.513a4.654,4.654,0,0,0,0,9.112v5.417a2.743,2.743,0,0,1-1.339-1.065.954.954,0,1,0-1.594,1.049,4.643,4.643,0,0,0,2.933,2v1.515a.954.954,0,0,0,1.908,0v-1.513a4.654,4.654,0,0,0,0-9.112Zm-3.7-2.844a2.749,2.749,0,0,1,1.8-2.573v5.145A2.748,2.748,0,0,1,1585.072,162.169Zm3.7,9.972V167a2.741,2.741,0,0,1,0,5.145Z" transform="translate(-1573.321 -151.369)" fill="#fff"/></svg>