<svg xmlns="http://www.w3.org/2000/svg" width="36.536" height="36.536" viewBox="0 0 36.536 36.536"><g transform="translate(1.5 1.5)"><path d="M15.253,31.626A1.626,1.626,0,1,1,13.626,30,1.626,1.626,0,0,1,15.253,31.626Z" transform="translate(-1.401 0.283)" fill="none" stroke="#fff" stroke-linecap="round" stroke-linejoin="round" stroke-width="3"/><path d="M31.753,31.626A1.626,1.626,0,1,1,30.126,30,1.626,1.626,0,0,1,31.753,31.626Z" transform="translate(-1.47 0.283)" fill="none" stroke="#fff" stroke-linecap="round" stroke-linejoin="round" stroke-width="3"/><path d="M1.5,1.5H7.6l4.085,21.225a3.079,3.079,0,0,0,3.049,2.552H29.548A3.079,3.079,0,0,0,32.6,22.725l2.439-13.3H9.122" transform="translate(-1.5 -1.5)" fill="none" stroke="#fff" stroke-linecap="round" stroke-linejoin="round" stroke-width="3"/></g></svg>